SplineFontDB: 3.2
FontName: kannada54m
FullName: kannada54m
FamilyName: kannada54m
Weight: Book
Copyright: Copyright 2022 The Noto Project Authors (https://github.com/notofonts/kannada)
Version: 2.003
ItalicAngle: 0
UnderlinePosition: -125
UnderlineWidth: 50
Ascent: 800
Descent: 200
InvalidEm: 0
sfntRevision: 0x000200c5
LayerCount: 2
Layer: 0 1 "Back" 1
Layer: 1 1 "Fore" 0
XUID: [1021 467 -1121320856 6045849]
StyleMap: 0x0040
FSType: 0
OS2Version: 4
OS2_WeightWidthSlopeOnly: 0
OS2_UseTypoMetrics: 1
CreationTime: 1528877849
ModificationTime: 1684152609
PfmFamily: 81
TTFWeight: 400
TTFWidth: 5
LineGap: 0
VLineGap: 0
Panose: 0 0 0 0 0 0 0 0 0 0
OS2TypoAscent: 809
OS2TypoAOffset: 0
OS2TypoDescent: -540
OS2TypoDOffset: 0
OS2TypoLinegap: 0
OS2WinAscent: 809
OS2WinAOffset: 0
OS2WinDescent: 540
OS2WinDOffset: 0
HheadAscent: 809
HheadAOffset: 0
HheadDescent: -540
HheadDOffset: 0
OS2SubXSize: 650
OS2SubYSize: 600
OS2SubXOff: 0
OS2SubYOff: 75
OS2SupXSize: 650
OS2SupYSize: 600
OS2SupXOff: 0
OS2SupYOff: 350
OS2StrikeYSize: 50
OS2StrikeYPos: 331
OS2CapHeight: 690
OS2XHeight: 551
OS2Vendor: 'GOOG'
OS2CodePages: 00000093.00000000
OS2UnicodeRanges: 80408003.00002042.00000000.00000000
Lookup: 2 0 0 "Multiple Substitution lookup 0" { "Multiple Substitution lookup 0 subtable"  } []
Lookup: 1 0 0 "Single Substitution lookup 1" { "Single Substitution lookup 1 subtable"  } []
Lookup: 1 0 0 "Single Substitution lookup 2" { "Single Substitution lookup 2 subtable"  } []
Lookup: 1 0 0 "Single Substitution lookup 3" { "Single Substitution lookup 3 subtable"  } []
Lookup: 1 0 0 "Single Substitution lookup 4" { "Single Substitution lookup 4 subtable"  } []
Lookup: 1 0 0 "Single Substitution lookup 5" { "Single Substitution lookup 5 subtable"  } []
Lookup: 1 0 0 "Single Substitution lookup 6" { "Single Substitution lookup 6 subtable"  } []
Lookup: 1 0 0 "Single Substitution lookup 7" { "Single Substitution lookup 7 subtable"  } []

StartChar: exclam.knda
Encoding: 33 33 1
Width: 930
Flags: W
LayerCount: 2
Fore
SplineSet
494 196 m 1,0,-1
 437 196 l 1,1,-1
 412 696 l 1,2,-1
 519 696 l 1,3,-1
 494 196 l 1,0,-1
403 56 m 0,4,5
 403 93 403 93 421 108 c 128,-1,6
 439 123 439 123 465 123 c 0,7,8
 490 123 490 123 508.5 108 c 128,-1,9
 527 93 527 93 527 56 c 0,10,11
 527 20 527 20 508.5 4 c 128,-1,12
 490 -12 490 -12 465 -12 c 0,13,14
 439 -12 439 -12 421 4 c 128,-1,15
 403 20 403 20 403 56 c 0,4,5
EndSplineSet
EndChar

StartChar: quotedbl.knda
Encoding: 34 34 2
Width: 930
Flags: W
LayerCount: 2
Fore
SplineSet
346 536 m 1,0,-1
 326 793 l 1,1,-1
 421 793 l 1,2,-1
 401 536 l 1,3,-1
 346 536 l 1,0,-1
529 536 m 1,4,-1
 509 793 l 1,5,-1
 604 793 l 1,6,-1
 584 536 l 1,7,-1
 529 536 l 1,4,-1
EndSplineSet
EndChar

StartChar: numbersign.knda
Encoding: 35 35 3
Width: 930
Flags: W
LayerCount: 2
Fore
SplineSet
255.5 0 m 1,0,-1
 295.5 202 l 1,1,-1
 167.5 202 l 1,2,-1
 167.5 269 l 1,3,-1
 308.5 269 l 1,4,-1
 338.5 421 l 1,5,-1
 204.5 421 l 1,6,-1
 204.5 487 l 1,7,-1
 350.5 487 l 1,8,-1
 390.5 690 l 1,9,-1
 462.5 690 l 1,10,-1
 420.5 487 l 1,11,-1
 565.5 487 l 1,12,-1
 606.5 690 l 1,13,-1
 675.5 690 l 1,14,-1
 633.5 487 l 1,15,-1
 762.5 487 l 1,16,-1
 762.5 421 l 1,17,-1
 621.5 421 l 1,18,-1
 590.5 269 l 1,19,-1
 728.5 269 l 1,20,-1
 728.5 202 l 1,21,-1
 577.5 202 l 1,22,-1
 537.5 0 l 1,23,-1
 466.5 0 l 1,24,-1
 508.5 202 l 1,25,-1
 365.5 202 l 1,26,-1
 325.5 0 l 1,27,-1
 255.5 0 l 1,0,-1
377.5 269 m 1,28,-1
 520.5 269 l 1,29,-1
 552.5 421 l 1,30,-1
 409.5 421 l 1,31,-1
 377.5 269 l 1,28,-1
EndSplineSet
EndChar

StartChar: percent.knda
Encoding: 37 37 4
Width: 930
Flags: W
LayerCount: 2
Fore
SplineSet
228.5 0 m 1,0,-1
 624.5 690 l 1,1,-1
 701.5 690 l 1,2,-1
 305.5 0 l 1,3,-1
 228.5 0 l 1,0,-1
244.5 276 m 0,4,5
 173.5 276 173.5 276 136 333 c 128,-1,6
 98.5 390 98.5 390 98.5 490 c 0,7,8
 98.5 591 98.5 591 133.5 646.5 c 128,-1,9
 168.5 702 168.5 702 244.5 702 c 0,10,11
 318.5 702 318.5 702 356.5 646.5 c 128,-1,12
 394.5 591 394.5 591 394.5 490 c 0,13,14
 394.5 390 394.5 390 358 333 c 128,-1,15
 321.5 276 321.5 276 244.5 276 c 0,4,5
244.5 339 m 0,16,17
 283.5 339 283.5 339 302.5 376.5 c 128,-1,18
 321.5 414 321.5 414 321.5 490 c 0,19,20
 321.5 565 321.5 565 302.5 602.5 c 128,-1,21
 283.5 640 283.5 640 244.5 640 c 0,22,23
 206.5 640 206.5 640 189 602.5 c 128,-1,24
 171.5 565 171.5 565 171.5 490 c 256,25,26
 171.5 415 171.5 415 189 377 c 128,-1,27
 206.5 339 206.5 339 244.5 339 c 0,16,17
681.5 -12 m 0,28,29
 610.5 -12 610.5 -12 573 45 c 128,-1,30
 535.5 102 535.5 102 535.5 202 c 0,31,32
 535.5 303 535.5 303 570.5 358.5 c 128,-1,33
 605.5 414 605.5 414 681.5 414 c 0,34,35
 754.5 414 754.5 414 793 358.5 c 128,-1,36
 831.5 303 831.5 303 831.5 202 c 0,37,38
 831.5 102 831.5 102 795 45 c 128,-1,39
 758.5 -12 758.5 -12 681.5 -12 c 0,28,29
681.5 51 m 0,40,41
 720.5 51 720.5 51 739.5 88.5 c 128,-1,42
 758.5 126 758.5 126 758.5 202 c 0,43,44
 758.5 276 758.5 276 739.5 313.5 c 128,-1,45
 720.5 351 720.5 351 681.5 351 c 0,46,47
 643.5 351 643.5 351 626 313.5 c 128,-1,48
 608.5 276 608.5 276 608.5 202 c 0,49,50
 608.5 126 608.5 126 626 88.5 c 128,-1,51
 643.5 51 643.5 51 681.5 51 c 0,40,41
EndSplineSet
EndChar

StartChar: quotesingle.knda
Encoding: 39 39 5
Width: 930
Flags: W
LayerCount: 2
Fore
SplineSet
437.5 536 m 1,0,-1
 417.5 793 l 1,1,-1
 512.5 793 l 1,2,-1
 492.5 536 l 1,3,-1
 437.5 536 l 1,0,-1
EndSplineSet
EndChar

StartChar: parenleft.knda
Encoding: 40 40 6
Width: 930
Flags: W
LayerCount: 2
Fore
SplineSet
330.5 218 m 0,0,1
 330.5 325 330.5 325 350.5 426.5 c 128,-1,2
 370.5 528 370.5 528 411.5 620.5 c 128,-1,3
 452.5 713 452.5 713 513.5 793 c 1,4,-1
 598.5 793 l 1,5,6
 537.5 702 537.5 702 498 608.5 c 128,-1,7
 458.5 515 458.5 515 439 417.5 c 128,-1,8
 419.5 320 419.5 320 419.5 217 c 0,9,10
 419.5 59 419.5 59 462.5 -84.5 c 128,-1,11
 505.5 -228 505.5 -228 599.5 -368 c 1,12,-1
 513.5 -368 l 1,13,14
 420.5 -248 420.5 -248 375.5 -96.5 c 128,-1,15
 330.5 55 330.5 55 330.5 218 c 0,0,1
EndSplineSet
EndChar

StartChar: parenright.knda
Encoding: 41 41 7
Width: 930
Flags: W
LayerCount: 2
Fore
SplineSet
599.5 207 m 0,0,1
 599.5 100 599.5 100 579 -1.5 c 128,-1,2
 558.5 -103 558.5 -103 518 -195.5 c 128,-1,3
 477.5 -288 477.5 -288 415.5 -368 c 1,4,-1
 331.5 -368 l 1,5,6
 392.5 -277 392.5 -277 432 -183.5 c 128,-1,7
 471.5 -90 471.5 -90 491 7.5 c 128,-1,8
 510.5 105 510.5 105 510.5 208 c 0,9,10
 510.5 366 510.5 366 467.5 509.5 c 128,-1,11
 424.5 653 424.5 653 330.5 793 c 1,12,-1
 415.5 793 l 1,13,14
 508.5 673 508.5 673 554 521.5 c 128,-1,15
 599.5 370 599.5 370 599.5 207 c 0,0,1
EndSplineSet
EndChar

StartChar: asterisk.knda
Encoding: 42 42 8
Width: 930
Flags: W
LayerCount: 2
Fore
SplineSet
512.5 793 m 1,0,-1
 492.5 602 l 1,1,-1
 684.5 656 l 1,2,-1
 698.5 563 l 1,3,-1
 514.5 549 l 1,4,-1
 633.5 391 l 1,5,-1
 547.5 344 l 1,6,-1
 462.5 519 l 1,7,-1
 385.5 344 l 1,8,-1
 296.5 391 l 1,9,-1
 413.5 549 l 1,10,-1
 231.5 563 l 1,11,-1
 245.5 656 l 1,12,-1
 435.5 602 l 1,13,-1
 414.5 793 l 1,14,-1
 512.5 793 l 1,0,-1
EndSplineSet
EndChar

StartChar: plus.knda
Encoding: 43 43 9
Width: 930
Flags: W
LayerCount: 2
Fore
SplineSet
429 101 m 1,0,-1
 429 307 l 1,1,-1
 230 307 l 1,2,-1
 230 378 l 1,3,-1
 429 378 l 1,4,-1
 429 585 l 1,5,-1
 501 585 l 1,6,-1
 501 378 l 1,7,-1
 700 378 l 1,8,-1
 700 307 l 1,9,-1
 501 307 l 1,10,-1
 501 101 l 1,11,-1
 429 101 l 1,0,-1
EndSplineSet
EndChar

StartChar: comma.knda
Encoding: 44 44 10
Width: 930
Flags: W
LayerCount: 2
Fore
SplineSet
533.5 119 m 1,0,-1
 540.5 107 l 1,1,2
 531.5 72 531.5 72 517.5 31.5 c 128,-1,3
 503.5 -9 503.5 -9 487 -49.5 c 128,-1,4
 470.5 -90 470.5 -90 454.5 -126 c 1,5,-1
 389.5 -126 l 1,6,7
 399.5 -88 399.5 -88 409 -45 c 128,-1,8
 418.5 -2 418.5 -2 426.5 41 c 128,-1,9
 434.5 84 434.5 84 439.5 119 c 1,10,-1
 533.5 119 l 1,0,-1
EndSplineSet
EndChar

StartChar: hyphen.knda
Encoding: 45 45 11
Width: 930
Flags: W
LayerCount: 2
Fore
SplineSet
344 244 m 1,0,-1
 344 322 l 1,1,-1
 586 322 l 1,2,-1
 586 244 l 1,3,-1
 344 244 l 1,0,-1
EndSplineSet
EndChar

StartChar: period.knda
Encoding: 46 46 12
Width: 930
Flags: W
LayerCount: 2
Fore
SplineSet
403 57 m 0,0,1
 403 93 403 93 421 108.5 c 128,-1,2
 439 124 439 124 464 124 c 0,3,4
 490 124 490 124 508.5 108.5 c 128,-1,5
 527 93 527 93 527 57 c 0,6,7
 527 20 527 20 508.5 4 c 128,-1,8
 490 -12 490 -12 464 -12 c 0,9,10
 439 -12 439 -12 421 4 c 128,-1,11
 403 20 403 20 403 57 c 0,0,1
EndSplineSet
EndChar

StartChar: slash.knda
Encoding: 47 47 13
Width: 930
Flags: W
LayerCount: 2
Fore
SplineSet
650.5 793 m 1,0,-1
 365.5 -368 l 1,1,-1
 279.5 -368 l 1,2,-1
 564.5 793 l 1,3,-1
 650.5 793 l 1,0,-1
EndSplineSet
EndChar

StartChar: zero.knda
Encoding: 48 48 14
Width: 930
Flags: W
LayerCount: 2
Fore
SplineSet
702 345 m 0,0,1
 702 261 702 261 689 195 c 128,-1,2
 676 129 676 129 647.5 82.5 c 128,-1,3
 619 36 619 36 573.5 12 c 128,-1,4
 528 -12 528 -12 464 -12 c 0,5,6
 384 -12 384 -12 331.5 30.5 c 128,-1,7
 279 73 279 73 253.5 153 c 128,-1,8
 228 233 228 233 228 345 c 0,9,10
 228 458 228 458 251.5 537.5 c 128,-1,11
 275 617 275 617 327 659.5 c 128,-1,12
 379 702 379 702 464 702 c 0,13,14
 544 702 544 702 597 660 c 128,-1,15
 650 618 650 618 676 538 c 128,-1,16
 702 458 702 458 702 345 c 0,0,1
316 345 m 0,17,18
 316 251 316 251 330.5 188.5 c 128,-1,19
 345 126 345 126 377.5 94.5 c 128,-1,20
 410 63 410 63 464 63 c 256,21,22
 518 63 518 63 550.5 94 c 128,-1,23
 583 125 583 125 598 188 c 128,-1,24
 613 251 613 251 613 345 c 0,25,26
 613 440 613 440 598 502.5 c 128,-1,27
 583 565 583 565 550.5 596 c 128,-1,28
 518 627 518 627 464 627 c 256,29,30
 410 627 410 627 377.5 596 c 128,-1,31
 345 565 345 565 330.5 502.5 c 128,-1,32
 316 440 316 440 316 345 c 0,17,18
EndSplineSet
EndChar

StartChar: one.knda
Encoding: 49 49 15
Width: 930
Flags: W
LayerCount: 2
Fore
SplineSet
598 0 m 1,0,-1
 512 0 l 1,1,-1
 512 482 l 2,2,3
 512 511 512 511 512.5 531.5 c 128,-1,4
 513 552 513 552 514 569 c 128,-1,5
 515 586 515 586 516 605 c 1,6,7
 500 589 500 589 487 578 c 128,-1,8
 474 567 474 567 454 550 c 2,9,-1
 378 488 l 1,10,-1
 332 547 l 1,11,-1
 525 697 l 1,12,-1
 598 697 l 1,13,-1
 598 0 l 1,0,-1
EndSplineSet
EndChar

StartChar: two.knda
Encoding: 50 50 16
Width: 930
Flags: W
LayerCount: 2
Fore
SplineSet
701 0 m 1,0,-1
 229 0 l 1,1,-1
 229 73 l 1,2,-1
 394 234 l 2,3,4
 459 297 459 297 500.5 342.5 c 128,-1,5
 542 388 542 388 562 428 c 128,-1,6
 582 468 582 468 582 511 c 0,7,8
 582 549 582 549 567 575 c 128,-1,9
 552 601 552 601 524 614 c 128,-1,10
 496 627 496 627 456 627 c 0,11,12
 404 627 404 627 364.5 609 c 128,-1,13
 325 591 325 591 284 559 c 1,14,-1
 237 618 l 1,15,16
 265 642 265 642 298.5 661 c 128,-1,17
 332 680 332 680 371.5 691 c 128,-1,18
 411 702 411 702 457 702 c 0,19,20
 525 702 525 702 573 680 c 128,-1,21
 621 658 621 658 646.5 617 c 128,-1,22
 672 576 672 576 672 519 c 0,23,24
 672 464 672 464 652 417.5 c 128,-1,25
 632 371 632 371 595.5 327 c 128,-1,26
 559 283 559 283 508 233 c 2,27,-1
 353 84 l 1,28,-1
 353 80 l 1,29,-1
 701 80 l 1,30,-1
 701 0 l 1,0,-1
EndSplineSet
EndChar

StartChar: three.knda
Encoding: 51 51 17
Width: 930
Flags: W
LayerCount: 2
Fore
SplineSet
678 530 m 0,0,1
 678 484 678 484 660 449.5 c 128,-1,2
 642 415 642 415 608.5 394 c 128,-1,3
 575 373 575 373 530 364 c 1,4,-1
 530 361 l 1,5,6
 616 351 616 351 658 307.5 c 128,-1,7
 700 264 700 264 700 196 c 0,8,9
 700 135 700 135 671 88 c 128,-1,10
 642 41 642 41 581.5 14.5 c 128,-1,11
 521 -12 521 -12 426 -12 c 0,12,13
 370 -12 370 -12 322 -3.5 c 128,-1,14
 274 5 274 5 230 27 c 1,15,-1
 230 109 l 1,16,17
 275 87 275 87 327 74.5 c 128,-1,18
 379 62 379 62 427 62 c 0,19,20
 523 62 523 62 565.5 98 c 128,-1,21
 608 134 608 134 608 198 c 0,22,23
 608 241 608 241 584.5 267.5 c 128,-1,24
 561 294 561 294 516 306.5 c 128,-1,25
 471 319 471 319 408 319 c 2,26,-1
 339 319 l 1,27,-1
 339 394 l 1,28,-1
 409 394 l 2,29,30
 468 394 468 394 507.5 410 c 128,-1,31
 547 426 547 426 567.5 455 c 128,-1,32
 588 484 588 484 588 523 c 0,33,34
 588 573 588 573 553 600.5 c 128,-1,35
 518 628 518 628 458 628 c 0,36,37
 400 628 400 628 359 611 c 128,-1,38
 318 594 318 594 278 568 c 1,39,-1
 234 628 l 1,40,41
 272 658 272 658 328.5 680 c 128,-1,42
 385 702 385 702 457 702 c 0,43,44
 569 702 569 702 623.5 653 c 128,-1,45
 678 604 678 604 678 530 c 0,0,1
EndSplineSet
EndChar

StartChar: four.knda
Encoding: 52 52 18
Width: 930
Flags: W
LayerCount: 2
Fore
SplineSet
730.5 157 m 1,0,-1
 626.5 157 l 1,1,-1
 626.5 0 l 1,2,-1
 541.5 0 l 1,3,-1
 541.5 157 l 1,4,-1
 199.5 157 l 1,5,-1
 199.5 231 l 1,6,-1
 535.5 695 l 1,7,-1
 626.5 695 l 1,8,-1
 626.5 236 l 1,9,-1
 730.5 236 l 1,10,-1
 730.5 157 l 1,0,-1
541.5 236 m 1,11,-1
 541.5 443 l 2,12,13
 541.5 496 541.5 496 543.5 533 c 128,-1,14
 545.5 570 545.5 570 546.5 603 c 1,15,-1
 542.5 603 l 1,16,17
 534.5 584 534.5 584 520.5 561.5 c 128,-1,18
 506.5 539 506.5 539 495.5 524 c 2,19,-1
 285.5 236 l 1,20,-1
 541.5 236 l 1,11,-1
EndSplineSet
EndChar

StartChar: five.knda
Encoding: 53 53 19
Width: 930
Flags: W
LayerCount: 2
Fore
SplineSet
424 -12 m 0,0,1
 369 -12 369 -12 320.5 -2 c 128,-1,2
 272 8 272 8 239 27 c 1,3,-1
 239 110 l 1,4,5
 275 88 275 88 326.5 75.5 c 128,-1,6
 378 63 378 63 425 63 c 0,7,8
 478 63 478 63 517.5 79 c 128,-1,9
 557 95 557 95 579 128 c 128,-1,10
 601 161 601 161 601 212 c 0,11,12
 601 280 601 280 558 316.5 c 128,-1,13
 515 353 515 353 422 353 c 0,14,15
 394 353 394 353 358 348 c 128,-1,16
 322 343 322 343 300 338 c 1,17,-1
 256 366 l 1,18,-1
 282 690 l 1,19,-1
 641 690 l 1,20,-1
 641 610 l 1,21,-1
 358 610 l 1,22,-1
 341 416 l 1,23,24
 358 419 358 419 387 423 c 128,-1,25
 416 427 416 427 451 427 c 0,26,27
 524 427 524 427 578 402.5 c 128,-1,28
 632 378 632 378 661.5 332 c 128,-1,29
 691 286 691 286 691 221 c 0,30,31
 691 149 691 149 659 96.5 c 128,-1,32
 627 44 627 44 567.5 16 c 128,-1,33
 508 -12 508 -12 424 -12 c 0,0,1
EndSplineSet
EndChar

StartChar: six.knda
Encoding: 54 54 20
Width: 930
Flags: W
LayerCount: 2
Fore
SplineSet
230 295 m 0,0,1
 230 355 230 355 238.5 413.5 c 128,-1,2
 247 472 247 472 268 524 c 128,-1,3
 289 576 289 576 326 616 c 128,-1,4
 363 656 363 656 419.5 679 c 128,-1,5
 476 702 476 702 557 702 c 0,6,7
 578 702 578 702 603.5 700 c 128,-1,8
 629 698 629 698 645 693 c 1,9,-1
 645 619 l 1,10,11
 627 624 627 624 604.5 627 c 128,-1,12
 582 630 582 630 559 630 c 0,13,14
 490 630 490 630 444 608 c 128,-1,15
 398 586 398 586 371.5 547.5 c 128,-1,16
 345 509 345 509 333 459 c 128,-1,17
 321 409 321 409 318 353 c 1,18,-1
 324 353 l 1,19,20
 339 377 339 377 362 396 c 128,-1,21
 385 415 385 415 417.5 426 c 128,-1,22
 450 437 450 437 493 437 c 0,23,24
 555 437 555 437 601.5 412 c 128,-1,25
 648 387 648 387 674 339.5 c 128,-1,26
 700 292 700 292 700 224 c 0,27,28
 700 151 700 151 672 98.5 c 128,-1,29
 644 46 644 46 593.5 17.5 c 128,-1,30
 543 -11 543 -11 473 -11 c 0,31,32
 422 -11 422 -11 378 7.5 c 128,-1,33
 334 26 334 26 300.5 63.5 c 128,-1,34
 267 101 267 101 248.5 159 c 128,-1,35
 230 217 230 217 230 295 c 0,0,1
472 63 m 0,36,37
 535 63 535 63 574 102.5 c 128,-1,38
 613 142 613 142 613 224 c 0,39,40
 613 291 613 291 578.5 329.5 c 128,-1,41
 544 368 544 368 475 368 c 0,42,43
 428 368 428 368 393 349 c 128,-1,44
 358 330 358 330 338.5 301 c 128,-1,45
 319 272 319 272 319 241 c 0,46,47
 319 209 319 209 328.5 177.5 c 128,-1,48
 338 146 338 146 357.5 120 c 128,-1,49
 377 94 377 94 405.5 78.5 c 128,-1,50
 434 63 434 63 472 63 c 0,36,37
EndSplineSet
EndChar

StartChar: seven.knda
Encoding: 55 55 21
Width: 930
Flags: W
LayerCount: 2
Fore
SplineSet
323.5 0 m 1,0,-1
 610.5 610 l 1,1,-1
 225.5 610 l 1,2,-1
 225.5 690 l 1,3,-1
 704.5 690 l 1,4,-1
 704.5 623 l 1,5,-1
 419.5 0 l 1,6,-1
 323.5 0 l 1,0,-1
EndSplineSet
EndChar

StartChar: eight.knda
Encoding: 56 56 22
Width: 930
Flags: W
LayerCount: 2
Fore
SplineSet
464.5 702 m 0,0,1
 527.5 702 527.5 702 575.5 683 c 128,-1,2
 623.5 664 623.5 664 651 627 c 128,-1,3
 678.5 590 678.5 590 678.5 536 c 0,4,5
 678.5 495 678.5 495 660 463.5 c 128,-1,6
 641.5 432 641.5 432 610.5 408.5 c 128,-1,7
 579.5 385 579.5 385 542.5 366 c 1,8,9
 586.5 345 586.5 345 622.5 319.5 c 128,-1,10
 658.5 294 658.5 294 680 260 c 128,-1,11
 701.5 226 701.5 226 701.5 178 c 0,12,13
 701.5 120 701.5 120 672.5 77 c 128,-1,14
 643.5 34 643.5 34 591 11 c 128,-1,15
 538.5 -12 538.5 -12 467.5 -12 c 0,16,17
 390.5 -12 390.5 -12 337 10 c 128,-1,18
 283.5 32 283.5 32 256 74 c 128,-1,19
 228.5 116 228.5 116 228.5 175 c 0,20,21
 228.5 223 228.5 223 249 258 c 128,-1,22
 269.5 293 269.5 293 303.5 318.5 c 128,-1,23
 337.5 344 337.5 344 376.5 361 c 1,24,25
 341.5 381 341.5 381 313 405 c 128,-1,26
 284.5 429 284.5 429 268 461.5 c 128,-1,27
 251.5 494 251.5 494 251.5 537 c 0,28,29
 251.5 590 251.5 590 279.5 627 c 128,-1,30
 307.5 664 307.5 664 355.5 683 c 128,-1,31
 403.5 702 403.5 702 464.5 702 c 0,0,1
314.5 175 m 0,32,33
 314.5 125 314.5 125 351.5 91.5 c 128,-1,34
 388.5 58 388.5 58 465.5 58 c 0,35,36
 538.5 58 538.5 58 577 91.5 c 128,-1,37
 615.5 125 615.5 125 615.5 178 c 0,38,39
 615.5 211 615.5 211 597 236.5 c 128,-1,40
 578.5 262 578.5 262 545 282.5 c 128,-1,41
 511.5 303 511.5 303 465.5 319 c 2,42,-1
 449.5 325 l 1,43,44
 405.5 307 405.5 307 375.5 285.5 c 128,-1,45
 345.5 264 345.5 264 330 237 c 128,-1,46
 314.5 210 314.5 210 314.5 175 c 0,32,33
463.5 631 m 0,47,48
 408.5 631 408.5 631 373 605.5 c 128,-1,49
 337.5 580 337.5 580 337.5 532 c 0,50,51
 337.5 497 337.5 497 355 473 c 128,-1,52
 372.5 449 372.5 449 402.5 432 c 128,-1,53
 432.5 415 432.5 415 468.5 400 c 1,54,55
 503.5 414 503.5 414 531 431.5 c 128,-1,56
 558.5 449 558.5 449 575 473.5 c 128,-1,57
 591.5 498 591.5 498 591.5 532 c 0,58,59
 591.5 580 591.5 580 556.5 605.5 c 128,-1,60
 521.5 631 521.5 631 463.5 631 c 0,47,48
EndSplineSet
EndChar

StartChar: nine.knda
Encoding: 57 57 23
Width: 930
Flags: W
LayerCount: 2
Fore
SplineSet
700 396 m 0,0,1
 700 336 700 336 691.5 277 c 128,-1,2
 683 218 683 218 662 166 c 128,-1,3
 641 114 641 114 604 74 c 128,-1,4
 567 34 567 34 510 11 c 128,-1,5
 453 -12 453 -12 372 -12 c 0,6,7
 352 -12 352 -12 325.5 -9.5 c 128,-1,8
 299 -7 299 -7 282 -2 c 1,9,-1
 282 73 l 1,10,11
 300 67 300 67 324 63.5 c 128,-1,12
 348 60 348 60 370 60 c 0,13,14
 440 60 440 60 485.5 82 c 128,-1,15
 531 104 531 104 558 142 c 128,-1,16
 585 180 585 180 597 230 c 128,-1,17
 609 280 609 280 611 336 c 1,18,-1
 605 336 l 1,19,20
 590 314 590 314 567 295 c 128,-1,21
 544 276 544 276 511.5 264.5 c 128,-1,22
 479 253 479 253 435 253 c 0,23,24
 374 253 374 253 327.5 278 c 128,-1,25
 281 303 281 303 255.5 350.5 c 128,-1,26
 230 398 230 398 230 465 c 0,27,28
 230 538 230 538 258.5 591 c 128,-1,29
 287 644 287 644 338 673 c 128,-1,30
 389 702 389 702 458 702 c 0,31,32
 509 702 509 702 553 683.5 c 128,-1,33
 597 665 597 665 630 627 c 128,-1,34
 663 589 663 589 681.5 531.5 c 128,-1,35
 700 474 700 474 700 396 c 0,0,1
458 628 m 0,36,37
 396 628 396 628 356.5 588.5 c 128,-1,38
 317 549 317 549 317 466 c 0,39,40
 317 400 317 400 350.5 361.5 c 128,-1,41
 384 323 384 323 454 323 c 0,42,43
 502 323 502 323 537 341.5 c 128,-1,44
 572 360 572 360 591.5 389.5 c 128,-1,45
 611 419 611 419 611 450 c 0,46,47
 611 482 611 482 601.5 513 c 128,-1,48
 592 544 592 544 573 570.5 c 128,-1,49
 554 597 554 597 525 612.5 c 128,-1,50
 496 628 496 628 458 628 c 0,36,37
EndSplineSet
EndChar

StartChar: colon.knda
Encoding: 58 58 24
Width: 930
Flags: W
LayerCount: 2
Fore
SplineSet
403 57 m 0,0,1
 403 93 403 93 421 108.5 c 128,-1,2
 439 124 439 124 464 124 c 0,3,4
 490 124 490 124 508.5 108.5 c 128,-1,5
 527 93 527 93 527 57 c 0,6,7
 527 20 527 20 508.5 4 c 128,-1,8
 490 -12 490 -12 464 -12 c 0,9,10
 439 -12 439 -12 421 4 c 128,-1,11
 403 20 403 20 403 57 c 0,0,1
403 384 m 0,12,13
 403 422 403 422 421 437 c 128,-1,14
 439 452 439 452 464 452 c 0,15,16
 490 452 490 452 508.5 437 c 128,-1,17
 527 422 527 422 527 384 c 0,18,19
 527 348 527 348 508.5 332 c 128,-1,20
 490 316 490 316 464 316 c 0,21,22
 439 316 439 316 421 332 c 128,-1,23
 403 348 403 348 403 384 c 0,12,13
EndSplineSet
EndChar

StartChar: semicolon.knda
Encoding: 59 59 25
Width: 930
Flags: W
LayerCount: 2
Fore
SplineSet
528.5 119 m 1,0,-1
 535.5 107 l 1,1,2
 526.5 73 526.5 73 512.5 32 c 128,-1,3
 498.5 -9 498.5 -9 482 -50 c 128,-1,4
 465.5 -91 465.5 -91 449.5 -126 c 1,5,-1
 383.5 -126 l 1,6,7
 393.5 -89 393.5 -89 403 -45.5 c 128,-1,8
 412.5 -2 412.5 -2 421 41 c 128,-1,9
 429.5 84 429.5 84 434.5 119 c 1,10,-1
 528.5 119 l 1,0,-1
422.5 384 m 0,11,12
 422.5 422 422.5 422 440.5 437 c 128,-1,13
 458.5 452 458.5 452 483.5 452 c 0,14,15
 509.5 452 509.5 452 528 437 c 128,-1,16
 546.5 422 546.5 422 546.5 384 c 0,17,18
 546.5 348 546.5 348 528 332 c 128,-1,19
 509.5 316 509.5 316 483.5 316 c 0,20,21
 458.5 316 458.5 316 440.5 332 c 128,-1,22
 422.5 348 422.5 348 422.5 384 c 0,11,12
EndSplineSet
EndChar

StartChar: less.knda
Encoding: 60 60 26
Width: 930
Flags: W
LayerCount: 2
Fore
SplineSet
700.5 106 m 1,0,-1
 229.5 313 l 1,1,-1
 229.5 363 l 1,2,-1
 700.5 598 l 1,3,-1
 700.5 520 l 1,4,-1
 323.5 342 l 1,5,-1
 700.5 184 l 1,6,-1
 700.5 106 l 1,0,-1
EndSplineSet
EndChar

StartChar: equal.knda
Encoding: 61 61 27
Width: 930
Flags: W
LayerCount: 2
Fore
SplineSet
236 406 m 1,0,-1
 236 477 l 1,1,-1
 694 477 l 1,2,-1
 694 406 l 1,3,-1
 236 406 l 1,0,-1
236 207 m 1,4,-1
 236 278 l 1,5,-1
 694 278 l 1,6,-1
 694 207 l 1,7,-1
 236 207 l 1,4,-1
EndSplineSet
EndChar

StartChar: greater.knda
Encoding: 62 62 28
Width: 930
Flags: W
LayerCount: 2
Fore
SplineSet
229.5 106 m 1,0,-1
 229.5 184 l 1,1,-1
 606.5 341 l 1,2,-1
 229.5 520 l 1,3,-1
 229.5 598 l 1,4,-1
 700.5 363 l 1,5,-1
 700.5 313 l 1,6,-1
 229.5 106 l 1,0,-1
EndSplineSet
EndChar

StartChar: question.knda
Encoding: 63 63 29
Width: 930
Flags: W
LayerCount: 2
Fore
SplineSet
455.5 702 m 0,0,1
 546.5 702 546.5 702 599.5 653.5 c 128,-1,2
 652.5 605 652.5 605 652.5 519 c 0,3,4
 652.5 476 652.5 476 640.5 444 c 128,-1,5
 628.5 412 628.5 412 604.5 384 c 128,-1,6
 580.5 356 580.5 356 543.5 324 c 0,7,8
 511.5 297 511.5 297 494.5 277 c 128,-1,9
 477.5 257 477.5 257 471 238.5 c 128,-1,10
 464.5 220 464.5 220 464.5 195 c 2,11,-1
 464.5 186 l 1,12,-1
 396.5 186 l 1,13,-1
 396.5 204 l 2,14,15
 396.5 237 396.5 237 403.5 263 c 128,-1,16
 410.5 289 410.5 289 428.5 314 c 128,-1,17
 446.5 339 446.5 339 479.5 367 c 0,18,19
 510.5 394 510.5 394 530 415 c 128,-1,20
 549.5 436 549.5 436 558.5 460 c 128,-1,21
 567.5 484 567.5 484 567.5 518 c 0,22,23
 567.5 565 567.5 565 539 594.5 c 128,-1,24
 510.5 624 510.5 624 455.5 624 c 0,25,26
 415.5 624 415.5 624 379 611.5 c 128,-1,27
 342.5 599 342.5 599 307.5 582 c 1,28,-1
 277.5 653 l 1,29,30
 316.5 673 316.5 673 362.5 687.5 c 128,-1,31
 408.5 702 408.5 702 455.5 702 c 0,0,1
434.5 -12 m 0,32,33
 409.5 -12 409.5 -12 391 4 c 128,-1,34
 372.5 20 372.5 20 372.5 56 c 0,35,36
 372.5 94 372.5 94 391 109 c 128,-1,37
 409.5 124 409.5 124 434.5 124 c 0,38,39
 460.5 124 460.5 124 478.5 109 c 128,-1,40
 496.5 94 496.5 94 496.5 56 c 0,41,42
 496.5 20 496.5 20 478.5 4 c 128,-1,43
 460.5 -12 460.5 -12 434.5 -12 c 0,32,33
EndSplineSet
EndChar

StartChar: bracketleft.knda
Encoding: 91 91 30
Width: 930
Flags: W
LayerCount: 2
Fore
SplineSet
368 832 m 1,0,-1
 562 832 l 1,1,-1
 562 762 l 1,2,-1
 448 762 l 1,3,-1
 448 -96 l 1,4,-1
 562 -96 l 1,5,-1
 562 -166 l 1,6,-1
 368 -166 l 1,7,-1
 368 832 l 1,0,-1
EndSplineSet
EndChar

StartChar: backslash.knda
Encoding: 92 92 31
Width: 930
Flags: W
LayerCount: 2
Fore
SplineSet
292.5 832 m 1,0,-1
 374.5 832 l 1,1,-1
 637.5 -166 l 1,2,-1
 555.5 -166 l 1,3,-1
 292.5 832 l 1,0,-1
EndSplineSet
EndChar

StartChar: bracketright.knda
Encoding: 93 93 32
Width: 930
Flags: W
LayerCount: 2
Fore
SplineSet
368 -96 m 1,0,-1
 481 -96 l 1,1,-1
 481 762 l 1,2,-1
 368 762 l 1,3,-1
 368 832 l 1,4,-1
 562 832 l 1,5,-1
 562 -166 l 1,6,-1
 368 -166 l 1,7,-1
 368 -96 l 1,0,-1
EndSplineSet
EndChar

StartChar: asciicircum.knda
Encoding: 94 94 33
Width: 930
Flags: W
LayerCount: 2
Fore
SplineSet
443 719 m 1,0,-1
 493 719 l 1,1,-1
 711 268 l 1,2,-1
 633 268 l 1,3,-1
 468 627 l 1,4,-1
 298 268 l 1,5,-1
 219 268 l 1,6,-1
 443 719 l 1,0,-1
EndSplineSet
EndChar

StartChar: underscore.knda
Encoding: 95 95 34
Width: 930
Flags: W
LayerCount: 2
Fore
SplineSet
257.5 -90 m 1,0,-1
 672.5 -90 l 1,1,-1
 672.5 -158 l 1,2,-1
 257.5 -158 l 1,3,-1
 257.5 -90 l 1,0,-1
EndSplineSet
EndChar

StartChar: braceleft.knda
Encoding: 123 123 35
Width: 930
Flags: W
LayerCount: 2
Fore
SplineSet
318.5 370 m 1,0,1
 358.5 370 358.5 370 386 379 c 128,-1,2
 413.5 388 413.5 388 427.5 408 c 128,-1,3
 441.5 428 441.5 428 441.5 460 c 2,4,-1
 441.5 691 l 2,5,6
 441.5 741 441.5 741 463.5 771.5 c 128,-1,7
 485.5 802 485.5 802 524 816.5 c 128,-1,8
 562.5 831 562.5 831 611.5 832 c 1,9,-1
 611.5 760 l 1,10,11
 584.5 760 584.5 760 564.5 753.5 c 128,-1,12
 544.5 747 544.5 747 533.5 731.5 c 128,-1,13
 522.5 716 522.5 716 522.5 685 c 2,14,-1
 522.5 455 l 2,15,16
 522.5 405 522.5 405 495.5 375.5 c 128,-1,17
 468.5 346 468.5 346 416.5 335 c 1,18,-1
 416.5 330 l 1,19,20
 468.5 320 468.5 320 495.5 291 c 128,-1,21
 522.5 262 522.5 262 522.5 211 c 2,22,-1
 522.5 -18 l 2,23,24
 522.5 -49 522.5 -49 533.5 -65 c 128,-1,25
 544.5 -81 544.5 -81 564.5 -87 c 128,-1,26
 584.5 -93 584.5 -93 611.5 -94 c 1,27,-1
 611.5 -166 l 1,28,29
 562.5 -165 562.5 -165 524 -150.5 c 128,-1,30
 485.5 -136 485.5 -136 463.5 -105.5 c 128,-1,31
 441.5 -75 441.5 -75 441.5 -25 c 2,32,-1
 441.5 206 l 2,33,34
 441.5 239 441.5 239 427.5 258.5 c 128,-1,35
 413.5 278 413.5 278 386 287 c 128,-1,36
 358.5 296 358.5 296 318.5 296 c 1,37,-1
 318.5 370 l 1,0,1
EndSplineSet
EndChar

StartChar: bar.knda
Encoding: 124 124 36
Width: 930
Flags: W
LayerCount: 2
Fore
SplineSet
429 832 m 1,0,-1
 501 832 l 1,1,-1
 501 -166 l 1,2,-1
 429 -166 l 1,3,-1
 429 832 l 1,0,-1
EndSplineSet
EndChar

StartChar: braceright.knda
Encoding: 125 125 37
Width: 930
Flags: W
LayerCount: 2
Fore
SplineSet
611.5 296 m 1,0,1
 571.5 296 571.5 296 544.5 287 c 128,-1,2
 517.5 278 517.5 278 503.5 258.5 c 128,-1,3
 489.5 239 489.5 239 489.5 206 c 2,4,-1
 489.5 -25 l 2,5,6
 489.5 -75 489.5 -75 467 -105.5 c 128,-1,7
 444.5 -136 444.5 -136 406 -150.5 c 128,-1,8
 367.5 -165 367.5 -165 318.5 -166 c 1,9,-1
 318.5 -94 l 1,10,11
 346.5 -93 346.5 -93 366.5 -87 c 128,-1,12
 386.5 -81 386.5 -81 397 -65 c 128,-1,13
 407.5 -49 407.5 -49 407.5 -18 c 2,14,-1
 407.5 211 l 2,15,16
 407.5 262 407.5 262 434.5 291 c 128,-1,17
 461.5 320 461.5 320 513.5 330 c 1,18,-1
 513.5 335 l 1,19,20
 461.5 346 461.5 346 434.5 375.5 c 128,-1,21
 407.5 405 407.5 405 407.5 455 c 2,22,-1
 407.5 685 l 2,23,24
 407.5 716 407.5 716 397 731.5 c 128,-1,25
 386.5 747 386.5 747 366.5 753.5 c 128,-1,26
 346.5 760 346.5 760 318.5 760 c 1,27,-1
 318.5 832 l 1,28,29
 367.5 831 367.5 831 406 816.5 c 128,-1,30
 444.5 802 444.5 802 467 771.5 c 128,-1,31
 489.5 741 489.5 741 489.5 691 c 2,32,-1
 489.5 460 l 2,33,34
 489.5 428 489.5 428 503.5 408 c 128,-1,35
 517.5 388 517.5 388 544.5 379 c 128,-1,36
 571.5 370 571.5 370 611.5 370 c 1,37,-1
 611.5 296 l 1,0,1
EndSplineSet
EndChar

StartChar: asciitilde.knda
Encoding: 126 126 38
Width: 930
Flags: W
LayerCount: 2
Fore
SplineSet
239.5 335 m 1,0,1
 264.5 362 264.5 362 294.5 375 c 128,-1,2
 324.5 388 324.5 388 360.5 388 c 0,3,4
 379.5 388 379.5 388 395.5 385.5 c 128,-1,5
 411.5 383 411.5 383 431.5 376.5 c 128,-1,6
 451.5 370 451.5 370 481.5 357 c 0,7,8
 518.5 341 518.5 341 538.5 335.5 c 128,-1,9
 558.5 330 558.5 330 579.5 330 c 0,10,11
 607.5 330 607.5 330 637.5 347 c 128,-1,12
 667.5 364 667.5 364 690.5 389 c 1,13,-1
 690.5 310 l 1,14,15
 666.5 284 666.5 284 636 270.5 c 128,-1,16
 605.5 257 605.5 257 569.5 257 c 0,17,18
 550.5 257 550.5 257 534.5 259.5 c 128,-1,19
 518.5 262 518.5 262 499 268.5 c 128,-1,20
 479.5 275 479.5 275 448.5 288 c 0,21,22
 412.5 304 412.5 304 393 309.5 c 128,-1,23
 373.5 315 373.5 315 350.5 315 c 0,24,25
 323.5 315 323.5 315 293.5 298 c 128,-1,26
 263.5 281 263.5 281 239.5 256 c 1,27,-1
 239.5 335 l 1,0,1
EndSplineSet
EndChar

StartChar: A
Encoding: 65 65 40
Width: 930
Flags: W
AnchorPoint: "Anchor-0" 464.5 -24 basechar 0
LayerCount: 2
Fore
SplineSet
454.5 69 m 0,0,1
 563.5 69 563.5 69 635 96 c 128,-1,2
 706.5 123 706.5 123 742 180.5 c 128,-1,3
 777.5 238 777.5 238 777.5 328 c 0,4,5
 777.5 373 777.5 373 765.5 409.5 c 128,-1,6
 753.5 446 753.5 446 729.5 467.5 c 128,-1,7
 705.5 489 705.5 489 668.5 489 c 0,8,9
 645.5 489 645.5 489 625 472.5 c 128,-1,10
 604.5 456 604.5 456 604.5 419 c 0,11,12
 604.5 394 604.5 394 618.5 373.5 c 128,-1,13
 632.5 353 632.5 353 657 337.5 c 128,-1,14
 681.5 322 681.5 322 712.5 312 c 1,15,-1
 712.5 241 l 1,16,-1
 476.5 241 l 5,17,-1
 476.5 317 l 5,18,-1
 585.5 317 l 1,19,20
 567.5 332 567.5 332 554.5 350 c 128,-1,21
 541.5 368 541.5 368 534 389.5 c 128,-1,22
 526.5 411 526.5 411 526.5 438 c 0,23,24
 526.5 469 526.5 469 542 497.5 c 128,-1,25
 557.5 526 557.5 526 589 544.5 c 128,-1,26
 620.5 563 620.5 563 667.5 563 c 0,27,28
 728.5 563 728.5 563 771.5 533 c 128,-1,29
 814.5 503 814.5 503 837 450.5 c 128,-1,30
 859.5 398 859.5 398 859.5 330 c 0,31,32
 859.5 210 859.5 210 811.5 134.5 c 128,-1,33
 763.5 59 763.5 59 673 23.5 c 128,-1,34
 582.5 -12 582.5 -12 456.5 -12 c 0,35,36
 328.5 -12 328.5 -12 242.5 29.5 c 128,-1,37
 156.5 71 156.5 71 113.5 144 c 128,-1,38
 70.5 217 70.5 217 70.5 311 c 0,39,40
 70.5 392 70.5 392 97.5 448 c 128,-1,41
 124.5 504 124.5 504 171 533.5 c 128,-1,42
 217.5 563 217.5 563 275.5 563 c 0,43,44
 319.5 563 319.5 563 351.5 547 c 128,-1,45
 383.5 531 383.5 531 401 501 c 128,-1,46
 418.5 471 418.5 471 418.5 429 c 0,47,48
 418.5 386 418.5 386 399 352 c 128,-1,49
 379.5 318 379.5 318 341 298 c 128,-1,50
 302.5 278 302.5 278 245.5 278 c 0,51,52
 209.5 278 209.5 278 180.5 289 c 128,-1,53
 151.5 300 151.5 300 131 316 c 128,-1,54
 110.5 332 110.5 332 96.5 348 c 1,55,-1
 120.5 414 l 1,56,57
 129.5 402 129.5 402 145.5 386.5 c 128,-1,58
 161.5 371 161.5 371 185 359.5 c 128,-1,59
 208.5 348 208.5 348 239.5 348 c 0,60,61
 292.5 348 292.5 348 316.5 370 c 128,-1,62
 340.5 392 340.5 392 340.5 426 c 0,63,64
 340.5 458 340.5 458 322.5 475.5 c 128,-1,65
 304.5 493 304.5 493 275.5 493 c 0,66,67
 216.5 493 216.5 493 183.5 446.5 c 128,-1,68
 150.5 400 150.5 400 150.5 315 c 2,69,-1
 150.5 311 l 2,70,71
 150.5 265 150.5 265 167.5 221.5 c 128,-1,72
 184.5 178 184.5 178 220.5 143.5 c 128,-1,73
 256.5 109 256.5 109 314.5 89 c 128,-1,74
 372.5 69 372.5 69 454.5 69 c 0,0,1
EndSplineSet
EndChar

StartChar: B
Encoding: 66 66 41
Width: 930
Flags: W
LayerCount: 2
Fore
SplineSet
466.5 636 m 5,0,1
 453.5 659 453.5 659 431.5 685.5 c 132,-1,2
 409.5 712 409.5 712 385.5 738 c 132,-1,3
 361.5 764 361.5 764 343.5 783 c 5,4,-1
 343.5 796 l 5,5,-1
 403.5 796 l 5,6,7
 429.5 779 429.5 779 457.5 755 c 132,-1,8
 485.5 731 485.5 731 510.5 704 c 5,9,10
 537.5 731 537.5 731 565.5 755 c 132,-1,11
 593.5 779 593.5 779 619.5 796 c 5,12,-1
 681.5 796 l 5,13,-1
 681.5 783 l 5,14,15
 662.5 764 662.5 764 638 738 c 132,-1,16
 613.5 712 613.5 712 591 685.5 c 132,-1,17
 568.5 659 568.5 659 556.5 636 c 5,18,-1
 466.5 636 l 5,0,1
315.5 575 m 2,19,20
 315.5 541 315.5 541 314 511.5 c 128,-1,21
 312.5 482 312.5 482 310.5 465 c 1,22,-1
 315.5 465 l 1,23,24
 338.5 499 338.5 499 378.5 522 c 128,-1,25
 418.5 545 418.5 545 481.5 545 c 0,26,27
 581.5 545 581.5 545 642 475.5 c 128,-1,28
 702.5 406 702.5 406 702.5 268 c 0,29,30
 702.5 176 702.5 176 675 114 c 128,-1,31
 647.5 52 647.5 52 597.5 21 c 128,-1,32
 547.5 -10 547.5 -10 481.5 -10 c 0,33,34
 418.5 -10 418.5 -10 378.5 13 c 128,-1,35
 338.5 36 338.5 36 315.5 68 c 1,36,-1
 308.5 68 l 1,37,-1
 290.5 0 l 1,38,-1
 227.5 0 l 1,39,-1
 227.5 760 l 1,40,-1
 315.5 760 l 1,41,-1
 315.5 575 l 2,19,20
466.5 472 m 0,42,43
 409.5 472 409.5 472 376.5 450.5 c 128,-1,44
 343.5 429 343.5 429 329.5 384.5 c 128,-1,45
 315.5 340 315.5 340 315.5 271 c 2,46,-1
 315.5 267 l 2,47,48
 315.5 168 315.5 168 348 115.5 c 128,-1,49
 380.5 63 380.5 63 468.5 63 c 0,50,51
 540.5 63 540.5 63 576 116 c 128,-1,52
 611.5 169 611.5 169 611.5 269 c 0,53,54
 611.5 370 611.5 370 576 421 c 128,-1,55
 540.5 472 540.5 472 466.5 472 c 0,42,43
EndSplineSet
EndChar

StartChar: C
Encoding: 67 67 42
Width: 930
Flags: W
AnchorPoint: "Anchor-1" 465 536 basechar 0
AnchorPoint: "Anchor-0" 465 0 basechar 0
LayerCount: 2
Fore
SplineSet
419 610 m 5,0,1
 406 633 406 633 384 659.5 c 132,-1,2
 362 686 362 686 338 712 c 132,-1,3
 314 738 314 738 296 757 c 5,4,-1
 296 770 l 5,5,-1
 356 770 l 5,6,7
 382 753 382 753 410 729 c 132,-1,8
 438 705 438 705 463 678 c 5,9,10
 490 705 490 705 518 729 c 132,-1,11
 546 753 546 753 572 770 c 5,12,-1
 634 770 l 5,13,-1
 634 757 l 5,14,15
 615 738 615 738 590.5 712 c 132,-1,16
 566 686 566 686 543.5 659.5 c 132,-1,17
 521 633 521 633 509 610 c 5,18,-1
 419 610 l 5,0,1
521 -10 m 0,19,20
 403 -10 403 -10 338 57 c 128,-1,21
 273 124 273 124 273 245 c 0,22,23
 273 325 273 325 302 380.5 c 128,-1,24
 331 436 331 436 385 465 c 1,25,-1
 252 465 l 1,26,-1
 252 537 l 1,27,-1
 678 537 l 1,28,-1
 678 465 l 1,29,-1
 565 465 l 2,30,31
 471 465 471 465 417.5 411.5 c 128,-1,32
 364 358 364 358 364 252 c 0,33,34
 364 165 364 165 407 114.5 c 128,-1,35
 450 64 450 64 530 64 c 0,36,37
 567 64 567 64 601 73.5 c 128,-1,38
 635 83 635 83 667 99 c 1,39,-1
 667 21 l 1,40,41
 638 5 638 5 603 -2.5 c 128,-1,42
 568 -10 568 -10 521 -10 c 0,19,20
EndSplineSet
EndChar

StartChar: D
Encoding: 68 68 43
Width: 930
Flags: W
AnchorPoint: "Anchor-0" 464.5 -24 basechar 0
LayerCount: 2
Fore
SplineSet
298.5 -12 m 0,0,1
 220.5 -12 220.5 -12 172.5 46 c 128,-1,2
 124.5 104 124.5 104 124.5 220 c 0,3,4
 124.5 282 124.5 282 142 334 c 128,-1,5
 159.5 386 159.5 386 194.5 425.5 c 128,-1,6
 229.5 465 229.5 465 279.5 487 c 1,7,-1
 294.5 474 l 1,8,-1
 129.5 474 l 5,9,-1
 129.5 551 l 5,10,-1
 594.5 551 l 2,11,12
 647.5 551 647.5 551 670 556 c 128,-1,13
 692.5 561 692.5 561 702.5 569 c 0,14,15
 716.5 579 716.5 579 720.5 591.5 c 128,-1,16
 724.5 604 724.5 604 724.5 618 c 0,17,18
 724.5 651 724.5 651 708.5 682.5 c 128,-1,19
 692.5 714 692.5 714 659.5 747 c 1,20,-1
 724.5 790 l 1,21,22
 771.5 738 771.5 738 788.5 696.5 c 128,-1,23
 805.5 655 805.5 655 805.5 612 c 0,24,25
 805.5 593 805.5 593 797.5 565.5 c 128,-1,26
 789.5 538 789.5 538 764.5 516 c 0,27,28
 754.5 507 754.5 507 740 499 c 128,-1,29
 725.5 491 725.5 491 707.5 485.5 c 128,-1,30
 689.5 480 689.5 480 665.5 477 c 1,31,-1
 666.5 483 l 1,32,33
 709.5 460 709.5 460 740.5 421 c 128,-1,34
 771.5 382 771.5 382 788.5 331 c 128,-1,35
 805.5 280 805.5 280 805.5 220 c 0,36,37
 805.5 104 805.5 104 757 46 c 128,-1,38
 708.5 -12 708.5 -12 627.5 -12 c 0,39,40
 584.5 -12 584.5 -12 553 -0.5 c 128,-1,41
 521.5 11 521.5 11 496.5 36.5 c 128,-1,42
 471.5 62 471.5 62 448.5 104 c 1,43,-1
 480.5 109 l 1,44,45
 457.5 58 457.5 58 429 32 c 128,-1,46
 400.5 6 400.5 6 367.5 -3 c 128,-1,47
 334.5 -12 334.5 -12 298.5 -12 c 0,0,1
309.5 67 m 0,48,49
 359.5 67 359.5 67 390.5 102 c 128,-1,50
 421.5 137 421.5 137 426.5 195 c 1,51,-1
 502.5 195 l 1,52,53
 507.5 128 507.5 128 543 97.5 c 128,-1,54
 578.5 67 578.5 67 619.5 67 c 0,55,56
 667.5 67 667.5 67 695.5 101 c 128,-1,57
 723.5 135 723.5 135 723.5 217 c 0,58,59
 723.5 269 723.5 269 708 316 c 128,-1,60
 692.5 363 692.5 363 661.5 399 c 128,-1,61
 630.5 435 630.5 435 584 455.5 c 128,-1,62
 537.5 476 537.5 476 475.5 476 c 2,63,-1
 458.5 476 l 2,64,65
 396.5 476 396.5 476 349.5 457 c 128,-1,66
 302.5 438 302.5 438 270.5 403 c 128,-1,67
 238.5 368 238.5 368 222.5 321.5 c 128,-1,68
 206.5 275 206.5 275 206.5 219 c 0,69,70
 206.5 137 206.5 137 233.5 102 c 128,-1,71
 260.5 67 260.5 67 309.5 67 c 0,48,49
EndSplineSet
EndChar

StartChar: E
Encoding: 69 69 44
Width: 930
Flags: W
AnchorPoint: "Anchor-1" 466 766 basechar 0
LayerCount: 2
Fore
SplineSet
420 610 m 5,0,1
 407 633 407 633 385 659.5 c 132,-1,2
 363 686 363 686 339 712 c 132,-1,3
 315 738 315 738 297 757 c 5,4,-1
 297 770 l 5,5,-1
 357 770 l 5,6,7
 383 753 383 753 411 729 c 132,-1,8
 439 705 439 705 464 678 c 5,9,10
 491 705 491 705 519 729 c 132,-1,11
 547 753 547 753 573 770 c 5,12,-1
 635 770 l 5,13,-1
 635 757 l 5,14,15
 616 738 616 738 591.5 712 c 132,-1,16
 567 686 567 686 544.5 659.5 c 132,-1,17
 522 633 522 633 510 610 c 5,18,-1
 420 610 l 5,0,1
473 546 m 0,19,20
 542 546 542 546 591.5 516 c 128,-1,21
 641 486 641 486 667.5 431.5 c 128,-1,22
 694 377 694 377 694 304 c 2,23,-1
 694 251 l 1,24,-1
 327 251 l 1,25,26
 329 160 329 160 373.5 112.5 c 128,-1,27
 418 65 418 65 498 65 c 0,28,29
 549 65 549 65 588.5 74.5 c 128,-1,30
 628 84 628 84 670 102 c 1,31,-1
 670 25 l 1,32,33
 629 7 629 7 589 -1.5 c 128,-1,34
 549 -10 549 -10 494 -10 c 0,35,36
 418 -10 418 -10 359.5 21 c 128,-1,37
 301 52 301 52 268.5 113.5 c 128,-1,38
 236 175 236 175 236 264 c 0,39,40
 236 352 236 352 265.5 415 c 128,-1,41
 295 478 295 478 348.5 512 c 128,-1,42
 402 546 402 546 473 546 c 0,19,20
472 474 m 0,43,44
 409 474 409 474 372.5 433.5 c 128,-1,45
 336 393 336 393 329 321 c 1,46,-1
 602 321 l 1,47,48
 602 367 602 367 588 401 c 128,-1,49
 574 435 574 435 545.5 454.5 c 128,-1,50
 517 474 517 474 472 474 c 0,43,44
EndSplineSet
EndChar

StartChar: F
Encoding: 70 70 45
Width: 930
Flags: W
LayerCount: 2
Fore
SplineSet
355.5 0 m 1,0,-1
 265.5 0 l 1,1,-1
 265.5 714 l 1,2,-1
 664.5 714 l 1,3,-1
 664.5 635 l 1,4,-1
 355.5 635 l 1,5,-1
 355.5 382 l 1,6,-1
 645.5 382 l 1,7,-1
 645.5 303 l 1,8,-1
 355.5 303 l 1,9,-1
 355.5 0 l 1,0,-1
EndSplineSet
EndChar

StartChar: G
Encoding: 71 71 46
Width: 930
Flags: W
AnchorPoint: "Anchor-1" 457.5 766 basechar 0
LayerCount: 2
Fore
SplineSet
411.5 606 m 5,0,1
 398.5 629 398.5 629 376.5 655.5 c 132,-1,2
 354.5 682 354.5 682 330.5 708 c 132,-1,3
 306.5 734 306.5 734 288.5 753 c 5,4,-1
 288.5 766 l 5,5,-1
 348.5 766 l 5,6,7
 374.5 749 374.5 749 402.5 725 c 132,-1,8
 430.5 701 430.5 701 455.5 674 c 5,9,10
 482.5 701 482.5 701 510.5 725 c 132,-1,11
 538.5 749 538.5 749 564.5 766 c 5,12,-1
 626.5 766 l 5,13,-1
 626.5 753 l 5,14,15
 607.5 734 607.5 734 583 708 c 132,-1,16
 558.5 682 558.5 682 536 655.5 c 132,-1,17
 513.5 629 513.5 629 501.5 606 c 5,18,-1
 411.5 606 l 5,0,1
447.5 546 m 0,19,20
 500.5 546 500.5 546 543 526 c 128,-1,21
 585.5 506 585.5 506 615.5 465 c 1,22,-1
 620.5 465 l 1,23,-1
 632.5 536 l 1,24,-1
 702.5 536 l 1,25,-1
 702.5 -9 l 2,26,27
 702.5 -85 702.5 -85 676.5 -136.5 c 128,-1,28
 650.5 -188 650.5 -188 597.5 -214 c 128,-1,29
 544.5 -240 544.5 -240 462.5 -240 c 0,30,31
 404.5 -240 404.5 -240 356 -231.5 c 128,-1,32
 307.5 -223 307.5 -223 269.5 -206 c 1,33,-1
 269.5 -125 l 1,34,35
 307.5 -145 307.5 -145 358.5 -156 c 128,-1,36
 409.5 -167 409.5 -167 467.5 -167 c 0,37,38
 536.5 -167 536.5 -167 576 -126.5 c 128,-1,39
 615.5 -86 615.5 -86 615.5 -16 c 2,40,-1
 615.5 5 l 2,41,42
 615.5 17 615.5 17 616.5 39.5 c 128,-1,43
 617.5 62 617.5 62 618.5 71 c 1,44,-1
 614.5 71 l 1,45,46
 586.5 30 586.5 30 545 10 c 128,-1,47
 503.5 -10 503.5 -10 448.5 -10 c 0,48,49
 344.5 -10 344.5 -10 286 63 c 128,-1,50
 227.5 136 227.5 136 227.5 267 c 0,51,52
 227.5 395 227.5 395 286 470.5 c 128,-1,53
 344.5 546 344.5 546 447.5 546 c 0,19,20
459.5 472 m 0,54,55
 414.5 472 414.5 472 383 448 c 128,-1,56
 351.5 424 351.5 424 335 378 c 128,-1,57
 318.5 332 318.5 332 318.5 266 c 0,58,59
 318.5 167 318.5 167 355 114.5 c 128,-1,60
 391.5 62 391.5 62 461.5 62 c 0,61,62
 502.5 62 502.5 62 531.5 72.5 c 128,-1,63
 560.5 83 560.5 83 579.5 105.5 c 128,-1,64
 598.5 128 598.5 128 607.5 163 c 128,-1,65
 616.5 198 616.5 198 616.5 246 c 2,66,-1
 616.5 267 l 2,67,68
 616.5 340 616.5 340 600 385 c 128,-1,69
 583.5 430 583.5 430 548.5 451 c 128,-1,70
 513.5 472 513.5 472 459.5 472 c 0,54,55
EndSplineSet
EndChar

StartChar: H
Encoding: 72 72 47
Width: 930
Flags: W
AnchorPoint: "Anchor-0" 464.5 -24 basechar 0
LayerCount: 2
Fore
SplineSet
295.5 -12 m 0,0,1
 204.5 -12 204.5 -12 151 39 c 128,-1,2
 97.5 90 97.5 90 97.5 181 c 0,3,4
 97.5 267 97.5 267 150.5 321 c 128,-1,5
 203.5 375 203.5 375 300.5 375 c 0,6,7
 329.5 375 329.5 375 354 368 c 128,-1,8
 378.5 361 378.5 361 398 348 c 128,-1,9
 417.5 335 417.5 335 431.5 316 c 1,10,-1
 427.5 315 l 2,11,12
 428.5 317 428.5 317 429 324.5 c 128,-1,13
 429.5 332 429.5 332 429.5 335 c 0,14,15
 429.5 364 429.5 364 417.5 389.5 c 128,-1,16
 405.5 415 405.5 415 383.5 434.5 c 128,-1,17
 361.5 454 361.5 454 333 466 c 128,-1,18
 304.5 478 304.5 478 271.5 481 c 1,19,-1
 425.5 486 l 1,20,21
 448.5 474 448.5 474 466.5 454 c 128,-1,22
 484.5 434 484.5 434 495 406.5 c 128,-1,23
 505.5 379 505.5 379 505.5 343 c 0,24,25
 505.5 336 505.5 336 504.5 327.5 c 128,-1,26
 503.5 319 503.5 319 502.5 315 c 1,27,-1
 500.5 316 l 1,28,29
 517.5 335 517.5 335 538 348 c 128,-1,30
 558.5 361 558.5 361 584 368 c 128,-1,31
 609.5 375 609.5 375 640.5 375 c 0,32,33
 734.5 375 734.5 375 783.5 320 c 128,-1,34
 832.5 265 832.5 265 832.5 181 c 256,35,36
 832.5 97 832.5 97 780 42.5 c 128,-1,37
 727.5 -12 727.5 -12 630.5 -12 c 0,38,39
 585.5 -12 585.5 -12 550.5 1.5 c 128,-1,40
 515.5 15 515.5 15 491.5 41 c 128,-1,41
 467.5 67 467.5 67 454.5 102 c 1,42,-1
 473.5 101 l 1,43,44
 460.5 68 460.5 68 436 42.5 c 128,-1,45
 411.5 17 411.5 17 376.5 2.5 c 128,-1,46
 341.5 -12 341.5 -12 295.5 -12 c 0,0,1
301.5 63 m 0,47,48
 366.5 63 366.5 63 396.5 96.5 c 128,-1,49
 426.5 130 426.5 130 426.5 181 c 0,50,51
 426.5 236 426.5 236 394.5 268 c 128,-1,52
 362.5 300 362.5 300 305.5 300 c 0,53,54
 261.5 300 261.5 300 233.5 284.5 c 128,-1,55
 205.5 269 205.5 269 192.5 242.5 c 128,-1,56
 179.5 216 179.5 216 179.5 183 c 0,57,58
 179.5 128 179.5 128 212.5 95.5 c 128,-1,59
 245.5 63 245.5 63 301.5 63 c 0,47,48
625.5 63 m 0,60,61
 689.5 63 689.5 63 720 96.5 c 128,-1,62
 750.5 130 750.5 130 750.5 181 c 0,63,64
 750.5 218 750.5 218 736 244.5 c 128,-1,65
 721.5 271 721.5 271 694.5 285.5 c 128,-1,66
 667.5 300 667.5 300 628.5 300 c 0,67,68
 565.5 300 565.5 300 534.5 266.5 c 128,-1,69
 503.5 233 503.5 233 503.5 183 c 0,70,71
 503.5 128 503.5 128 536 95.5 c 128,-1,72
 568.5 63 568.5 63 625.5 63 c 0,60,61
114.5 474 m 1,73,-1
 114.5 551 l 1,74,-1
 573.5 551 l 6,75,76
 626.5 551 626.5 551 648.5 556 c 132,-1,77
 670.5 561 670.5 561 681.5 569 c 4,78,79
 694.5 579 694.5 579 699 591.5 c 132,-1,80
 703.5 604 703.5 604 703.5 618 c 4,81,82
 703.5 651 703.5 651 687.5 682.5 c 132,-1,83
 671.5 714 671.5 714 638.5 747 c 5,84,-1
 703.5 790 l 5,85,86
 750.5 738 750.5 738 767.5 696.5 c 132,-1,87
 784.5 655 784.5 655 784.5 612 c 4,88,89
 784.5 593 784.5 593 776.5 565.5 c 132,-1,90
 768.5 538 768.5 538 743.5 516 c 4,91,92
 717.5 494 717.5 494 683 484 c 132,-1,93
 648.5 474 648.5 474 591.5 474 c 6,94,-1
 114.5 474 l 1,73,-1
EndSplineSet
EndChar

StartChar: I
Encoding: 73 73 48
Width: 930
Flags: W
AnchorPoint: "Anchor-1" 456.971 635.345 basechar 0
LayerCount: 2
Fore
SplineSet
431.419921875 608.530273438 m 5,0,1
 421.9296875 629 421.9296875 629 405.870117188 652.584960938 c 132,-1,2
 389.809570312 676.169921875 389.809570312 676.169921875 372.290039062 699.309570312 c 132,-1,3
 354.76953125 722.450195312 354.76953125 722.450195312 341.629882812 739.360351562 c 5,4,-1
 341.629882812 750.9296875 l 5,5,-1
 385.4296875 750.9296875 l 5,6,7
 404.41015625 735.799804688 404.41015625 735.799804688 424.849609375 714.440429688 c 132,-1,8
 445.290039062 693.080078125 445.290039062 693.080078125 463.540039062 669.049804688 c 5,9,10
 483.25 693.080078125 483.25 693.080078125 503.689453125 714.440429688 c 132,-1,11
 524.129882812 735.799804688 524.129882812 735.799804688 543.109375 750.9296875 c 5,12,-1
 588.370117188 750.9296875 l 5,13,-1
 588.370117188 739.360351562 l 5,14,15
 574.5 722.450195312 574.5 722.450195312 556.614257812 699.309570312 c 132,-1,16
 538.729492188 676.169921875 538.729492188 676.169921875 522.3046875 652.584960938 c 132,-1,17
 505.879882812 629 505.879882812 629 497.120117188 608.530273438 c 5,18,-1
 431.419921875 608.530273438 l 5,0,1
509.969726562 536 m 1,19,-1
 509.969726562 0 l 1,20,-1
 421.969726562 0 l 1,21,-1
 421.969726562 536 l 1,22,-1
 509.969726562 536 l 1,19,-1
EndSplineSet
EndChar

StartChar: J
Encoding: 74 74 49
Width: 930
Flags: W
LayerCount: 2
Fore
SplineSet
414.5 -8 m 4,0,1
 359.5 -8 359.5 -8 315.5 4 c 132,-1,2
 271.5 16 271.5 16 237.5 33 c 5,3,-1
 268.5 103 l 5,4,5
 298.5 89 298.5 89 335 77 c 132,-1,6
 371.5 65 371.5 65 412.5 65 c 4,7,8
 469.5 65 469.5 65 499.5 94.5 c 132,-1,9
 529.5 124 529.5 124 529.5 190 c 6,10,-1
 529.5 329 l 5,11,-1
 325.5 329 l 5,12,-1
 325.5 395 l 5,13,-1
 529.5 395 l 5,14,-1
 529.5 499 l 6,15,16
 529.5 539 529.5 539 539 565.5 c 132,-1,17
 548.5 592 548.5 592 564 608 c 132,-1,18
 579.5 624 579.5 624 597.5 635 c 5,19,-1
 213.5 635 l 5,20,-1
 213.5 715 l 5,21,-1
 716.5 715 l 5,22,-1
 716.5 641 l 5,23,24
 687.5 634 687.5 634 665.5 617.5 c 132,-1,25
 643.5 601 643.5 601 630.5 572.5 c 132,-1,26
 617.5 544 617.5 544 617.5 500 c 6,27,-1
 617.5 395 l 5,28,-1
 713.5 395 l 5,29,-1
 713.5 329 l 5,30,-1
 617.5 329 l 5,31,-1
 617.5 181 l 6,32,33
 617.5 121 617.5 121 592.5 79 c 132,-1,34
 567.5 37 567.5 37 521.5 14.5 c 132,-1,35
 475.5 -8 475.5 -8 414.5 -8 c 4,0,1
EndSplineSet
EndChar

StartChar: K
Encoding: 75 75 50
Width: 930
Flags: W
LayerCount: 2
Fore
SplineSet
453 635 m 5,0,1
 440 658 440 658 418 684.5 c 132,-1,2
 396 711 396 711 372 737 c 132,-1,3
 348 763 348 763 330 782 c 5,4,-1
 330 795 l 5,5,-1
 390 795 l 5,6,7
 416 778 416 778 444 754 c 132,-1,8
 472 730 472 730 497 703 c 5,9,10
 524 730 524 730 552 754 c 132,-1,11
 580 778 580 778 606 795 c 5,12,-1
 668 795 l 5,13,-1
 668 782 l 5,14,15
 649 763 649 763 624.5 737 c 132,-1,16
 600 711 600 711 577.5 684.5 c 132,-1,17
 555 658 555 658 543 635 c 5,18,-1
 453 635 l 5,0,1
332 363 m 2,19,20
 332 347 332 347 330.5 321 c 128,-1,21
 329 295 329 295 328 276 c 1,22,-1
 332 276 l 1,23,24
 338 284 338 284 350 299 c 128,-1,25
 362 314 362 314 374.5 329.5 c 128,-1,26
 387 345 387 345 396 355 c 2,27,-1
 567 536 l 1,28,-1
 670 536 l 1,29,-1
 453 307 l 1,30,-1
 685 0 l 1,31,-1
 579 0 l 1,32,-1
 393 250 l 1,33,-1
 332 197 l 1,34,-1
 332 0 l 1,35,-1
 245 0 l 1,36,-1
 245 760 l 1,37,-1
 332 760 l 1,38,-1
 332 363 l 2,19,20
EndSplineSet
EndChar

StartChar: L
Encoding: 76 76 51
Width: 930
Flags: W
LayerCount: 2
Fore
SplineSet
515.5 723 m 0,0,1
 570.5 723 570.5 723 614.5 711 c 128,-1,2
 658.5 699 658.5 699 692.5 682 c 1,3,-1
 661.5 612 l 1,4,5
 631.5 626 631.5 626 595 638 c 128,-1,6
 558.5 650 558.5 650 517.5 650 c 0,7,8
 460.5 650 460.5 650 430.5 620.5 c 128,-1,9
 400.5 591 400.5 591 400.5 525 c 2,10,-1
 400.5 386 l 1,11,-1
 604.5 386 l 1,12,-1
 604.5 320 l 1,13,-1
 400.5 320 l 1,14,-1
 400.5 216 l 2,15,16
 400.5 176 400.5 176 391 149.5 c 128,-1,17
 381.5 123 381.5 123 366 107 c 128,-1,18
 350.5 91 350.5 91 332.5 80 c 1,19,-1
 716.5 80 l 1,20,-1
 716.5 0 l 1,21,-1
 213.5 0 l 1,22,-1
 213.5 74 l 1,23,24
 242.5 81 242.5 81 264.5 97.5 c 128,-1,25
 286.5 114 286.5 114 299.5 142.5 c 128,-1,26
 312.5 171 312.5 171 312.5 215 c 2,27,-1
 312.5 320 l 1,28,-1
 216.5 320 l 1,29,-1
 216.5 386 l 1,30,-1
 312.5 386 l 1,31,-1
 312.5 534 l 2,32,33
 312.5 594 312.5 594 337.5 636 c 128,-1,34
 362.5 678 362.5 678 408.5 700.5 c 128,-1,35
 454.5 723 454.5 723 515.5 723 c 0,0,1
EndSplineSet
EndChar

StartChar: M
Encoding: 77 77 52
Width: 930
Flags: W
LayerCount: 2
Fore
SplineSet
454.5 606 m 5,0,1
 441.5 629 441.5 629 419.5 655.5 c 132,-1,2
 397.5 682 397.5 682 373.5 708 c 132,-1,3
 349.5 734 349.5 734 331.5 753 c 5,4,-1
 331.5 766 l 5,5,-1
 391.5 766 l 5,6,7
 417.5 749 417.5 749 445.5 725 c 132,-1,8
 473.5 701 473.5 701 498.5 674 c 5,9,10
 525.5 701 525.5 701 553.5 725 c 132,-1,11
 581.5 749 581.5 749 607.5 766 c 5,12,-1
 669.5 766 l 5,13,-1
 669.5 753 l 5,14,15
 650.5 734 650.5 734 626 708 c 132,-1,16
 601.5 682 601.5 682 579 655.5 c 132,-1,17
 556.5 629 556.5 629 544.5 606 c 5,18,-1
 454.5 606 l 5,0,1
668.5 546 m 0,19,20
 759.5 546 759.5 546 804.5 499.5 c 128,-1,21
 849.5 453 849.5 453 849.5 349 c 2,22,-1
 849.5 0 l 1,23,-1
 762.5 0 l 1,24,-1
 762.5 345 l 2,25,26
 762.5 408 762.5 408 736 440 c 128,-1,27
 709.5 472 709.5 472 653.5 472 c 0,28,29
 575.5 472 575.5 472 542 427 c 128,-1,30
 508.5 382 508.5 382 508.5 296 c 2,31,-1
 508.5 0 l 1,32,-1
 421.5 0 l 1,33,-1
 421.5 345 l 2,34,35
 421.5 387 421.5 387 409.5 415.5 c 128,-1,36
 397.5 444 397.5 444 373.5 458 c 128,-1,37
 349.5 472 349.5 472 311.5 472 c 0,38,39
 257.5 472 257.5 472 226.5 449.5 c 128,-1,40
 195.5 427 195.5 427 182 384 c 128,-1,41
 168.5 341 168.5 341 168.5 278 c 2,42,-1
 168.5 0 l 1,43,-1
 80.5 0 l 1,44,-1
 80.5 536 l 1,45,-1
 151.5 536 l 1,46,-1
 164.5 463 l 1,47,-1
 169.5 463 l 1,48,49
 186.5 491 186.5 491 211 509.5 c 128,-1,50
 235.5 528 235.5 528 265.5 537 c 128,-1,51
 295.5 546 295.5 546 327.5 546 c 0,52,53
 389.5 546 389.5 546 431 524 c 128,-1,54
 472.5 502 472.5 502 491.5 456 c 1,55,-1
 496.5 456 l 1,56,57
 523.5 502 523.5 502 570 524 c 128,-1,58
 616.5 546 616.5 546 668.5 546 c 0,19,20
EndSplineSet
EndChar

StartChar: N
Encoding: 78 78 53
Width: 930
Flags: W
AnchorPoint: "Anchor-1" 466 572 basechar 0
AnchorPoint: "Anchor-0" 466 0 basechar 0
LayerCount: 2
Fore
SplineSet
702 572 m 1,0,-1
 702 0 l 1,1,-1
 595 0 l 1,2,-1
 305 464 l 1,3,-1
 301 464 l 1,4,5
 303 437 303 437 305 396.5 c 128,-1,6
 307 356 307 356 307 324 c 2,7,-1
 307 0 l 1,8,-1
 228 0 l 1,9,-1
 228 572 l 1,10,-1
 335 572 l 1,11,-1
 624 110 l 1,12,-1
 627 110 l 1,13,14
 625 131 625 131 624 170 c 128,-1,15
 623 209 623 209 623 244 c 2,16,-1
 623 572 l 1,17,-1
 702 572 l 1,0,-1
EndSplineSet
EndChar

StartChar: O
Encoding: 79 79 54
Width: 930
Flags: W
AnchorPoint: "Anchor-1" 447 766 basechar 0
LayerCount: 2
Fore
SplineSet
401 606 m 5,0,1
 388 629 388 629 366 655.5 c 132,-1,2
 344 682 344 682 320 708 c 132,-1,3
 296 734 296 734 278 753 c 5,4,-1
 278 766 l 5,5,-1
 338 766 l 5,6,7
 364 749 364 749 392 725 c 132,-1,8
 420 701 420 701 445 674 c 5,9,10
 472 701 472 701 500 725 c 132,-1,11
 528 749 528 749 554 766 c 5,12,-1
 616 766 l 5,13,-1
 616 753 l 5,14,15
 597 734 597 734 572.5 708 c 132,-1,16
 548 682 548 682 525.5 655.5 c 132,-1,17
 503 629 503 629 491 606 c 5,18,-1
 401 606 l 5,0,1
713 269 m 0,19,20
 713 202 713 202 695.5 150.5 c 128,-1,21
 678 99 678 99 645.5 63 c 128,-1,22
 613 27 613 27 566.5 8.5 c 128,-1,23
 520 -10 520 -10 463 -10 c 0,24,25
 410 -10 410 -10 365 8.5 c 128,-1,26
 320 27 320 27 287 63 c 128,-1,27
 254 99 254 99 235.5 150.5 c 128,-1,28
 217 202 217 202 217 269 c 0,29,30
 217 358 217 358 247 419.5 c 128,-1,31
 277 481 277 481 333 513.5 c 128,-1,32
 389 546 389 546 466 546 c 0,33,34
 539 546 539 546 594.5 513.5 c 128,-1,35
 650 481 650 481 681.5 419.5 c 128,-1,36
 713 358 713 358 713 269 c 0,19,20
308 269 m 0,37,38
 308 206 308 206 324.5 159.5 c 128,-1,39
 341 113 341 113 376 88 c 128,-1,40
 411 63 411 63 465 63 c 256,41,42
 519 63 519 63 554 88 c 128,-1,43
 589 113 589 113 605.5 159.5 c 128,-1,44
 622 206 622 206 622 269 c 0,45,46
 622 333 622 333 605 378 c 128,-1,47
 588 423 588 423 553.5 447.5 c 128,-1,48
 519 472 519 472 464 472 c 0,49,50
 382 472 382 472 345 418 c 128,-1,51
 308 364 308 364 308 269 c 0,37,38
EndSplineSet
EndChar

StartChar: P
Encoding: 80 80 55
Width: 930
Flags: W
LayerCount: 2
Fore
SplineSet
381.5 606 m 5,0,1
 368.5 629 368.5 629 346.5 655.5 c 132,-1,2
 324.5 682 324.5 682 300.5 708 c 132,-1,3
 276.5 734 276.5 734 258.5 753 c 5,4,-1
 258.5 766 l 5,5,-1
 318.5 766 l 5,6,7
 344.5 749 344.5 749 372.5 725 c 132,-1,8
 400.5 701 400.5 701 425.5 674 c 5,9,10
 452.5 701 452.5 701 480.5 725 c 132,-1,11
 508.5 749 508.5 749 534.5 766 c 5,12,-1
 596.5 766 l 5,13,-1
 596.5 753 l 5,14,15
 577.5 734 577.5 734 553 708 c 132,-1,16
 528.5 682 528.5 682 506 655.5 c 132,-1,17
 483.5 629 483.5 629 471.5 606 c 5,18,-1
 381.5 606 l 5,0,1
482.5 546 m 0,19,20
 581.5 546 581.5 546 642 477 c 128,-1,21
 702.5 408 702.5 408 702.5 269 c 0,22,23
 702.5 178 702.5 178 675 115.5 c 128,-1,24
 647.5 53 647.5 53 598 21.5 c 128,-1,25
 548.5 -10 548.5 -10 481.5 -10 c 0,26,27
 440.5 -10 440.5 -10 408.5 1 c 128,-1,28
 376.5 12 376.5 12 354 29.5 c 128,-1,29
 331.5 47 331.5 47 315.5 68 c 1,30,-1
 309.5 68 l 1,31,32
 311.5 51 311.5 51 313.5 25 c 128,-1,33
 315.5 -1 315.5 -1 315.5 -20 c 2,34,-1
 315.5 -240 l 1,35,-1
 227.5 -240 l 1,36,-1
 227.5 536 l 1,37,-1
 299.5 536 l 1,38,-1
 311.5 463 l 1,39,-1
 315.5 463 l 1,40,41
 331.5 486 331.5 486 354 505 c 128,-1,42
 376.5 524 376.5 524 408 535 c 128,-1,43
 439.5 546 439.5 546 482.5 546 c 0,19,20
466.5 472 m 0,44,45
 412.5 472 412.5 472 379.5 451.5 c 128,-1,46
 346.5 431 346.5 431 331.5 390 c 128,-1,47
 316.5 349 316.5 349 315.5 286 c 2,48,-1
 315.5 269 l 2,49,50
 315.5 203 315.5 203 329.5 157 c 128,-1,51
 343.5 111 343.5 111 377 87 c 128,-1,52
 410.5 63 410.5 63 468.5 63 c 0,53,54
 517.5 63 517.5 63 549 90 c 128,-1,55
 580.5 117 580.5 117 596 163.5 c 128,-1,56
 611.5 210 611.5 210 611.5 270 c 0,57,58
 611.5 362 611.5 362 576 417 c 128,-1,59
 540.5 472 540.5 472 466.5 472 c 0,44,45
EndSplineSet
EndChar

StartChar: Q
Encoding: 81 81 56
Width: 930
Flags: W
LayerCount: 2
Fore
SplineSet
716 -5 m 1,0,1
 696 -5 696 -5 677 2 c 128,-1,2
 658 9 658 9 644 26 c 1,3,-1
 644 291 l 5,4,5
 616 266 616 266 579 250.5 c 132,-1,6
 542 235 542 235 492 235 c 4,7,8
 450 235 450 235 401 258 c 132,-1,9
 352 281 352 281 310 318 c 132,-1,10
 268 355 268 355 240 401 c 132,-1,11
 212 447 212 447 212 493 c 4,12,13
 212 541 212 541 229.5 578 c 132,-1,14
 247 615 247 615 277 640.5 c 132,-1,15
 307 666 307 666 347.5 679 c 132,-1,16
 388 692 388 692 434 692 c 4,17,18
 468 692 468 692 498 684 c 4,19,20
 547 671 547 671 554 662.5 c 4,21,22
 589 622 589 622 602.5 631.5 c 4,23,24
 606 634 606 634 644 718 c 5,25,-1
 642 717 l 5,26,-1
 718 717 l 6,27,-1
 716 -5 l 1,0,1
435 292 m 4,28,29
 473 292 473 292 509 304.5 c 132,-1,30
 545 317 545 317 575 340 c 5,31,-1
 342 580 l 5,32,33
 315 556 315 556 300 521.5 c 132,-1,34
 285 487 285 487 285 442 c 4,35,36
 285 406 285 406 296.5 378 c 132,-1,37
 308 350 308 350 328 331 c 132,-1,38
 348 312 348 312 375.5 302 c 132,-1,39
 403 292 403 292 435 292 c 4,28,29
644 571 m 5,40,41
 609 598 609 598 571.5 613.5 c 132,-1,42
 534 629 534 629 485 629 c 4,43,44
 413 629 413 629 362 596 c 5,45,-1
 593 356 l 5,46,47
 609 371 609 371 622 389 c 132,-1,48
 635 407 635 407 644 427 c 5,49,-1
 644 571 l 5,40,41
EndSplineSet
EndChar

StartChar: R
Encoding: 82 82 57
Width: 930
Flags: W
LayerCount: 2
Fore
SplineSet
417.5 606 m 5,0,1
 404.5 629 404.5 629 382.5 655.5 c 132,-1,2
 360.5 682 360.5 682 336.5 708 c 132,-1,3
 312.5 734 312.5 734 294.5 753 c 5,4,-1
 294.5 766 l 5,5,-1
 354.5 766 l 5,6,7
 380.5 749 380.5 749 408.5 725 c 132,-1,8
 436.5 701 436.5 701 461.5 674 c 5,9,10
 488.5 701 488.5 701 516.5 725 c 132,-1,11
 544.5 749 544.5 749 570.5 766 c 5,12,-1
 632.5 766 l 5,13,-1
 632.5 753 l 5,14,15
 613.5 734 613.5 734 589 708 c 132,-1,16
 564.5 682 564.5 682 542 655.5 c 132,-1,17
 519.5 629 519.5 629 507.5 606 c 5,18,-1
 417.5 606 l 5,0,1
572.5 546 m 0,19,20
 587.5 546 587.5 546 605 544.5 c 128,-1,21
 622.5 543 622.5 543 635.5 540 c 1,22,-1
 624.5 459 l 1,23,24
 611.5 462 611.5 462 596 464 c 128,-1,25
 580.5 466 580.5 466 566.5 466 c 0,26,27
 535.5 466 535.5 466 507.5 453 c 128,-1,28
 479.5 440 479.5 440 457.5 416.5 c 128,-1,29
 435.5 393 435.5 393 423 360 c 128,-1,30
 410.5 327 410.5 327 410.5 286 c 2,31,-1
 410.5 0 l 1,32,-1
 322.5 0 l 1,33,-1
 322.5 536 l 1,34,-1
 394.5 536 l 1,35,-1
 404.5 438 l 1,36,-1
 408.5 438 l 1,37,38
 425.5 468 425.5 468 449.5 492.5 c 128,-1,39
 473.5 517 473.5 517 504.5 531.5 c 128,-1,40
 535.5 546 535.5 546 572.5 546 c 0,19,20
EndSplineSet
EndChar

StartChar: S
Encoding: 83 83 58
Width: 930
Flags: W
LayerCount: 2
Fore
SplineSet
405.5 606 m 5,0,1
 392.5 629 392.5 629 370.5 655.5 c 132,-1,2
 348.5 682 348.5 682 324.5 708 c 132,-1,3
 300.5 734 300.5 734 282.5 753 c 5,4,-1
 282.5 766 l 5,5,-1
 342.5 766 l 5,6,7
 368.5 749 368.5 749 396.5 725 c 132,-1,8
 424.5 701 424.5 701 449.5 674 c 5,9,10
 476.5 701 476.5 701 504.5 725 c 132,-1,11
 532.5 749 532.5 749 558.5 766 c 5,12,-1
 620.5 766 l 5,13,-1
 620.5 753 l 5,14,15
 601.5 734 601.5 734 577 708 c 132,-1,16
 552.5 682 552.5 682 530 655.5 c 132,-1,17
 507.5 629 507.5 629 495.5 606 c 5,18,-1
 405.5 606 l 5,0,1
656.5 148 m 0,19,20
 656.5 96 656.5 96 630.5 61 c 128,-1,21
 604.5 26 604.5 26 556.5 8 c 128,-1,22
 508.5 -10 508.5 -10 442.5 -10 c 0,23,24
 386.5 -10 386.5 -10 346 -1 c 128,-1,25
 305.5 8 305.5 8 274.5 24 c 1,26,-1
 274.5 104 l 1,27,28
 306.5 88 306.5 88 352 74.5 c 128,-1,29
 397.5 61 397.5 61 444.5 61 c 0,30,31
 511.5 61 511.5 61 541.5 82.5 c 128,-1,32
 571.5 104 571.5 104 571.5 140 c 0,33,34
 571.5 160 571.5 160 560.5 176 c 128,-1,35
 549.5 192 549.5 192 521 208 c 128,-1,36
 492.5 224 492.5 224 439.5 244 c 0,37,38
 387.5 264 387.5 264 350.5 284 c 128,-1,39
 313.5 304 313.5 304 293.5 332 c 128,-1,40
 273.5 360 273.5 360 273.5 404 c 0,41,42
 273.5 472 273.5 472 329 509 c 128,-1,43
 384.5 546 384.5 546 474.5 546 c 0,44,45
 523.5 546 523.5 546 566 536.5 c 128,-1,46
 608.5 527 608.5 527 645.5 510 c 1,47,-1
 615.5 440 l 1,48,49
 581.5 454 581.5 454 544.5 464 c 128,-1,50
 507.5 474 507.5 474 468.5 474 c 0,51,52
 414.5 474 414.5 474 386 456.5 c 128,-1,53
 357.5 439 357.5 439 357.5 409 c 0,54,55
 357.5 387 357.5 387 370.5 371.5 c 128,-1,56
 383.5 356 383.5 356 414 341.5 c 128,-1,57
 444.5 327 444.5 327 495.5 307 c 0,58,59
 546.5 288 546.5 288 582.5 268 c 128,-1,60
 618.5 248 618.5 248 637.5 219.5 c 128,-1,61
 656.5 191 656.5 191 656.5 148 c 0,19,20
EndSplineSet
EndChar

StartChar: T
Encoding: 84 84 59
Width: 930
Flags: W
AnchorPoint: "Anchor-0" 472.5 -24 basechar 0
LayerCount: 2
Fore
SplineSet
464.5 -12 m 0,0,1
 395.5 -12 395.5 -12 343.5 4 c 128,-1,2
 291.5 20 291.5 20 257.5 49.5 c 128,-1,3
 223.5 79 223.5 79 206.5 117.5 c 128,-1,4
 189.5 156 189.5 156 189.5 201 c 0,5,6
 189.5 215 189.5 215 191 230.5 c 128,-1,7
 192.5 246 192.5 246 195.5 259 c 1,8,-1
 274.5 248 l 1,9,10
 272.5 238 272.5 238 271.5 229 c 128,-1,11
 270.5 220 270.5 220 270.5 209 c 0,12,13
 270.5 183 270.5 183 279 158 c 128,-1,14
 287.5 133 287.5 133 309 112.5 c 128,-1,15
 330.5 92 330.5 92 368 79.5 c 128,-1,16
 405.5 67 405.5 67 463.5 67 c 0,17,18
 526.5 67 526.5 67 567 80 c 128,-1,19
 607.5 93 607.5 93 629.5 114 c 128,-1,20
 651.5 135 651.5 135 660 159 c 128,-1,21
 668.5 183 668.5 183 668.5 205 c 0,22,23
 668.5 228 668.5 228 663 249 c 128,-1,24
 657.5 270 657.5 270 643.5 287 c 0,25,26
 639.5 291 639.5 291 635.5 293.5 c 128,-1,27
 631.5 296 631.5 296 627.5 300 c 0,28,29
 608.5 316 608.5 316 582 325.5 c 128,-1,30
 555.5 335 555.5 335 518.5 335 c 0,31,32
 476.5 335 476.5 335 458.5 324.5 c 128,-1,33
 440.5 314 440.5 314 440.5 294 c 0,34,35
 440.5 275 440.5 275 457 264.5 c 128,-1,36
 473.5 254 473.5 254 505.5 254 c 0,37,38
 539.5 254 539.5 254 562 267.5 c 128,-1,39
 584.5 281 584.5 281 596 305 c 128,-1,40
 607.5 329 607.5 329 607.5 360 c 0,41,42
 607.5 399 607.5 399 588 425.5 c 128,-1,43
 568.5 452 568.5 452 542 467 c 128,-1,44
 515.5 482 515.5 482 494.5 486 c 1,45,-1
 613.5 492 l 1,46,47
 645.5 471 645.5 471 663.5 436.5 c 128,-1,48
 681.5 402 681.5 402 681.5 355 c 0,49,50
 681.5 347 681.5 347 681 340 c 128,-1,51
 680.5 333 680.5 333 679.5 328 c 2,52,-1
 673.5 300 l 2,53,54
 661.5 258 661.5 258 634 232 c 128,-1,55
 606.5 206 606.5 206 571 193.5 c 128,-1,56
 535.5 181 535.5 181 498.5 181 c 0,57,58
 434.5 181 434.5 181 397.5 209.5 c 128,-1,59
 360.5 238 360.5 238 360.5 293 c 0,60,61
 360.5 324 360.5 324 375.5 348.5 c 128,-1,62
 390.5 373 390.5 373 423 387.5 c 128,-1,63
 455.5 402 455.5 402 507.5 402 c 0,64,65
 544.5 402 544.5 402 576 395 c 128,-1,66
 607.5 388 607.5 388 632.5 375 c 0,67,68
 635.5 374 635.5 374 638.5 372.5 c 128,-1,69
 641.5 371 641.5 371 644.5 369.5 c 128,-1,70
 647.5 368 647.5 368 650.5 366 c 0,71,72
 696.5 339 696.5 339 718.5 296.5 c 128,-1,73
 740.5 254 740.5 254 740.5 207 c 0,74,75
 740.5 156 740.5 156 724 115.5 c 128,-1,76
 707.5 75 707.5 75 673.5 46.5 c 128,-1,77
 639.5 18 639.5 18 587.5 3 c 128,-1,78
 535.5 -12 535.5 -12 464.5 -12 c 0,0,1
233.5 474 m 5,79,-1
 233.5 551 l 5,80,-1
 529.5 551 l 2,81,82
 583.5 551 583.5 551 605.5 556 c 128,-1,83
 627.5 561 627.5 561 637.5 569 c 0,84,85
 651.5 579 651.5 579 655.5 591.5 c 128,-1,86
 659.5 604 659.5 604 659.5 618 c 0,87,88
 659.5 651 659.5 651 643.5 682.5 c 128,-1,89
 627.5 714 627.5 714 594.5 747 c 1,90,-1
 659.5 790 l 1,91,92
 706.5 738 706.5 738 723.5 696.5 c 128,-1,93
 740.5 655 740.5 655 740.5 612 c 0,94,95
 740.5 593 740.5 593 733 565.5 c 128,-1,96
 725.5 538 725.5 538 699.5 516 c 0,97,98
 674.5 494 674.5 494 640 484 c 128,-1,99
 605.5 474 605.5 474 547.5 474 c 2,100,-1
 233.5 474 l 5,79,-1
EndSplineSet
EndChar

StartChar: U
Encoding: 85 85 60
Width: 930
Flags: W
LayerCount: 2
Fore
SplineSet
398 586 m 5,0,1
 385 609 385 609 363 635.5 c 132,-1,2
 341 662 341 662 317 688 c 132,-1,3
 293 714 293 714 275 733 c 5,4,-1
 275 746 l 5,5,-1
 335 746 l 5,6,7
 361 729 361 729 389 705 c 132,-1,8
 417 681 417 681 442 654 c 5,9,10
 469 681 469 681 497 705 c 132,-1,11
 525 729 525 729 551 746 c 5,12,-1
 613 746 l 5,13,-1
 613 733 l 5,14,15
 594 714 594 714 569.5 688 c 132,-1,16
 545 662 545 662 522.5 635.5 c 132,-1,17
 500 609 500 609 488 586 c 5,18,-1
 398 586 l 5,0,1
692 536 m 1,19,-1
 692 0 l 1,20,-1
 620 0 l 1,21,-1
 607 71 l 1,22,-1
 603 71 l 1,23,24
 586 43 586 43 559 25 c 128,-1,25
 532 7 532 7 500 -1.5 c 128,-1,26
 468 -10 468 -10 433 -10 c 0,27,28
 369 -10 369 -10 325.5 10.5 c 128,-1,29
 282 31 282 31 260 74 c 128,-1,30
 238 117 238 117 238 185 c 2,31,-1
 238 536 l 1,32,-1
 327 536 l 1,33,-1
 327 191 l 2,34,35
 327 127 327 127 356 95 c 128,-1,36
 385 63 385 63 446 63 c 0,37,38
 506 63 506 63 540.5 85.5 c 128,-1,39
 575 108 575 108 589.5 151.5 c 128,-1,40
 604 195 604 195 604 257 c 2,41,-1
 604 536 l 1,42,-1
 692 536 l 1,19,-1
EndSplineSet
EndChar

StartChar: V
Encoding: 86 86 61
Width: 930
Flags: W
LayerCount: 2
Fore
SplineSet
414 569 m 5,0,1
 401 592 401 592 379 618.5 c 132,-1,2
 357 645 357 645 333 671 c 132,-1,3
 309 697 309 697 291 716 c 5,4,-1
 291 729 l 5,5,-1
 351 729 l 5,6,7
 377 712 377 712 405 688 c 132,-1,8
 433 664 433 664 458 637 c 5,9,10
 485 664 485 664 513 688 c 132,-1,11
 541 712 541 712 567 729 c 5,12,-1
 629 729 l 5,13,-1
 629 716 l 5,14,15
 610 697 610 697 585.5 671 c 132,-1,16
 561 645 561 645 538.5 618.5 c 132,-1,17
 516 592 516 592 504 569 c 5,18,-1
 414 569 l 5,0,1
414 0 m 1,19,-1
 211 536 l 1,20,-1
 305 536 l 1,21,-1
 419 220 l 2,22,23
 427 198 427 198 436 171 c 128,-1,24
 445 144 445 144 452 119.5 c 128,-1,25
 459 95 459 95 462 78 c 1,26,-1
 466 78 l 1,27,28
 470 95 470 95 477.5 120 c 128,-1,29
 485 145 485 145 494.5 172 c 128,-1,30
 504 199 504 199 511 220 c 2,31,-1
 625 536 l 1,32,-1
 719 536 l 1,33,-1
 515 0 l 1,34,-1
 414 0 l 1,19,-1
EndSplineSet
EndChar

StartChar: W
Encoding: 87 87 62
Width: 930
Flags: W
LayerCount: 2
Fore
SplineSet
917.5 714 m 1,0,-1
 727.5 0 l 1,1,-1
 636.5 0 l 1,2,-1
 497.5 468 l 2,3,4
 491.5 489 491.5 489 485.5 511 c 128,-1,5
 479.5 533 479.5 533 474.5 553 c 128,-1,6
 469.5 573 469.5 573 466 587.5 c 128,-1,7
 462.5 602 462.5 602 461.5 609 c 1,8,9
 460.5 602 460.5 602 458 587.5 c 128,-1,10
 455.5 573 455.5 573 450.5 553 c 128,-1,11
 445.5 533 445.5 533 440 510.5 c 128,-1,12
 434.5 488 434.5 488 427.5 465 c 2,13,-1
 292.5 0 l 1,14,-1
 201.5 0 l 1,15,-1
 12.5 714 l 1,16,-1
 106.5 714 l 1,17,-1
 217.5 278 l 2,18,19
 223.5 255 223.5 255 228.5 232.5 c 128,-1,20
 233.5 210 233.5 210 238 188.5 c 128,-1,21
 242.5 167 242.5 167 245.5 147 c 128,-1,22
 248.5 127 248.5 127 251.5 108 c 1,23,24
 254.5 128 254.5 128 258 149 c 128,-1,25
 261.5 170 261.5 170 266.5 192.5 c 128,-1,26
 271.5 215 271.5 215 277.5 238 c 128,-1,27
 283.5 261 283.5 261 289.5 283 c 2,28,-1
 415.5 714 l 1,29,-1
 508.5 714 l 1,30,-1
 639.5 280 l 2,31,32
 646.5 257 646.5 257 652.5 233.5 c 128,-1,33
 658.5 210 658.5 210 663.5 188 c 128,-1,34
 668.5 166 668.5 166 672 145.5 c 128,-1,35
 675.5 125 675.5 125 678.5 108 c 1,36,37
 681.5 133 681.5 133 686.5 160.5 c 128,-1,38
 691.5 188 691.5 188 698.5 218 c 128,-1,39
 705.5 248 705.5 248 713.5 279 c 2,40,-1
 823.5 714 l 1,41,-1
 917.5 714 l 1,0,-1
EndSplineSet
EndChar

StartChar: X
Encoding: 88 88 63
Width: 930
Flags: W
LayerCount: 2
Fore
SplineSet
754 0 m 1,0,-1
 652 0 l 1,1,-1
 463 310 l 1,2,-1
 271 0 l 1,3,-1
 176 0 l 1,4,-1
 413 372 l 1,5,-1
 191 714 l 1,6,-1
 291 714 l 1,7,-1
 466 434 l 1,8,-1
 642 714 l 1,9,-1
 737 714 l 1,10,-1
 516 374 l 1,11,-1
 754 0 l 1,0,-1
EndSplineSet
EndChar

StartChar: Y
Encoding: 89 89 64
Width: 930
Flags: W
LayerCount: 2
Fore
SplineSet
419.5 551 m 5,0,1
 406.5 574 406.5 574 384.5 600.5 c 132,-1,2
 362.5 627 362.5 627 338.5 653 c 132,-1,3
 314.5 679 314.5 679 296.5 698 c 5,4,-1
 296.5 711 l 5,5,-1
 356.5 711 l 5,6,7
 382.5 694 382.5 694 410.5 670 c 132,-1,8
 438.5 646 438.5 646 463.5 619 c 5,9,10
 490.5 646 490.5 646 518.5 670 c 132,-1,11
 546.5 694 546.5 694 572.5 711 c 5,12,-1
 634.5 711 l 5,13,-1
 634.5 698 l 5,14,15
 615.5 679 615.5 679 591 653 c 132,-1,16
 566.5 627 566.5 627 544 600.5 c 132,-1,17
 521.5 574 521.5 574 509.5 551 c 5,18,-1
 419.5 551 l 5,0,1
210.5 536 m 1,19,-1
 304.5 536 l 1,20,-1
 420.5 231 l 2,21,22
 430.5 204 430.5 204 439 179 c 128,-1,23
 447.5 154 447.5 154 454.5 130.5 c 128,-1,24
 461.5 107 461.5 107 465.5 85 c 1,25,-1
 469.5 85 l 1,26,27
 475.5 110 475.5 110 488.5 150.5 c 128,-1,28
 501.5 191 501.5 191 515.5 232 c 2,29,-1
 624.5 536 l 1,30,-1
 719.5 536 l 1,31,-1
 488.5 -74 l 2,32,33
 469.5 -124 469.5 -124 444 -161.5 c 128,-1,34
 418.5 -199 418.5 -199 382 -219.5 c 128,-1,35
 345.5 -240 345.5 -240 293.5 -240 c 0,36,37
 269.5 -240 269.5 -240 251.5 -237.5 c 128,-1,38
 233.5 -235 233.5 -235 220.5 -232 c 1,39,-1
 220.5 -162 l 1,40,41
 231.5 -164 231.5 -164 247 -166 c 128,-1,42
 262.5 -168 262.5 -168 279.5 -168 c 0,43,44
 310.5 -168 310.5 -168 333 -156.5 c 128,-1,45
 355.5 -145 355.5 -145 371.5 -123.5 c 128,-1,46
 387.5 -102 387.5 -102 398.5 -73 c 2,47,-1
 426.5 -2 l 1,48,-1
 210.5 536 l 1,19,-1
EndSplineSet
EndChar

StartChar: Z
Encoding: 90 90 65
Width: 930
Flags: W
LayerCount: 2
Fore
SplineSet
421 599 m 5,0,1
 408 622 408 622 386 648.5 c 132,-1,2
 364 675 364 675 340 701 c 132,-1,3
 316 727 316 727 298 746 c 5,4,-1
 298 759 l 5,5,-1
 358 759 l 5,6,7
 384 742 384 742 412 718 c 132,-1,8
 440 694 440 694 465 667 c 5,9,10
 492 694 492 694 520 718 c 132,-1,11
 548 742 548 742 574 759 c 5,12,-1
 636 759 l 5,13,-1
 636 746 l 5,14,15
 617 727 617 727 592.5 701 c 132,-1,16
 568 675 568 675 545.5 648.5 c 132,-1,17
 523 622 523 622 511 599 c 5,18,-1
 421 599 l 5,0,1
661 0 m 1,19,-1
 269 0 l 1,20,-1
 269 58 l 1,21,-1
 557 468 l 1,22,-1
 286 468 l 1,23,-1
 286 536 l 1,24,-1
 654 536 l 1,25,-1
 654 470 l 1,26,-1
 370 68 l 1,27,-1
 661 68 l 1,28,-1
 661 0 l 1,19,-1
EndSplineSet
EndChar

StartChar: a
Encoding: 97 97 66
Width: 930
Flags: W
LayerCount: 2
Fore
SplineSet
490 545 m 0,0,1
 588 545 588 545 635 502 c 128,-1,2
 682 459 682 459 682 365 c 2,3,-1
 682 0 l 1,4,-1
 618 0 l 1,5,-1
 601 76 l 1,6,-1
 597 76 l 1,7,8
 574 47 574 47 549.5 27.5 c 128,-1,9
 525 8 525 8 493.5 -1 c 128,-1,10
 462 -10 462 -10 417 -10 c 0,11,12
 369 -10 369 -10 330.5 7 c 128,-1,13
 292 24 292 24 270 59.5 c 128,-1,14
 248 95 248 95 248 149 c 0,15,16
 248 229 248 229 311 272.5 c 128,-1,17
 374 316 374 316 505 320 c 2,18,-1
 596 323 l 1,19,-1
 596 355 l 2,20,21
 596 422 596 422 567 448 c 128,-1,22
 538 474 538 474 485 474 c 0,23,24
 443 474 443 474 405 461.5 c 128,-1,25
 367 449 367 449 334 433 c 1,26,-1
 307 499 l 1,27,28
 342 518 342 518 390 531.5 c 128,-1,29
 438 545 438 545 490 545 c 0,0,1
516 259 m 2,30,31
 416 255 416 255 377.5 227 c 128,-1,32
 339 199 339 199 339 148 c 0,33,34
 339 103 339 103 366.5 82 c 128,-1,35
 394 61 394 61 437 61 c 0,36,37
 505 61 505 61 550 98.5 c 128,-1,38
 595 136 595 136 595 214 c 2,39,-1
 595 262 l 1,40,-1
 516 259 l 2,30,31
EndSplineSet
EndChar

StartChar: b
Encoding: 98 98 67
Width: 930
Flags: W
LayerCount: 2
Fore
SplineSet
315.5 575 m 2,0,1
 315.5 541 315.5 541 314 511.5 c 128,-1,2
 312.5 482 312.5 482 310.5 465 c 1,3,-1
 315.5 465 l 1,4,5
 338.5 499 338.5 499 378.5 522 c 128,-1,6
 418.5 545 418.5 545 481.5 545 c 0,7,8
 581.5 545 581.5 545 642 475.5 c 128,-1,9
 702.5 406 702.5 406 702.5 268 c 0,10,11
 702.5 176 702.5 176 675 114 c 128,-1,12
 647.5 52 647.5 52 597.5 21 c 128,-1,13
 547.5 -10 547.5 -10 481.5 -10 c 0,14,15
 418.5 -10 418.5 -10 378.5 13 c 128,-1,16
 338.5 36 338.5 36 315.5 68 c 1,17,-1
 308.5 68 l 1,18,-1
 290.5 0 l 1,19,-1
 227.5 0 l 1,20,-1
 227.5 760 l 1,21,-1
 315.5 760 l 1,22,-1
 315.5 575 l 2,0,1
466.5 472 m 0,23,24
 409.5 472 409.5 472 376.5 450.5 c 128,-1,25
 343.5 429 343.5 429 329.5 384.5 c 128,-1,26
 315.5 340 315.5 340 315.5 271 c 2,27,-1
 315.5 267 l 2,28,29
 315.5 168 315.5 168 348 115.5 c 128,-1,30
 380.5 63 380.5 63 468.5 63 c 0,31,32
 540.5 63 540.5 63 576 116 c 128,-1,33
 611.5 169 611.5 169 611.5 269 c 0,34,35
 611.5 370 611.5 370 576 421 c 128,-1,36
 540.5 472 540.5 472 466.5 472 c 0,23,24
EndSplineSet
EndChar

StartChar: c
Encoding: 99 99 68
Width: 930
Flags: W
AnchorPoint: "Anchor-1" 465 536 basechar 0
AnchorPoint: "Anchor-0" 465 0 basechar 0
LayerCount: 2
Fore
SplineSet
521 -10 m 0,0,1
 403 -10 403 -10 338 57 c 128,-1,2
 273 124 273 124 273 245 c 0,3,4
 273 325 273 325 302 380.5 c 128,-1,5
 331 436 331 436 385 465 c 1,6,-1
 252 465 l 1,7,-1
 252 537 l 1,8,-1
 678 537 l 1,9,-1
 678 465 l 1,10,-1
 565 465 l 2,11,12
 471 465 471 465 417.5 411.5 c 128,-1,13
 364 358 364 358 364 252 c 0,14,15
 364 165 364 165 407 114.5 c 128,-1,16
 450 64 450 64 530 64 c 0,17,18
 567 64 567 64 601 73.5 c 128,-1,19
 635 83 635 83 667 99 c 1,20,-1
 667 21 l 1,21,22
 638 5 638 5 603 -2.5 c 128,-1,23
 568 -10 568 -10 521 -10 c 0,0,1
EndSplineSet
EndChar

StartChar: d
Encoding: 100 100 69
Width: 930
Flags: W
LayerCount: 2
Fore
SplineSet
447.5 -10 m 0,0,1
 347.5 -10 347.5 -10 287.5 59.5 c 128,-1,2
 227.5 129 227.5 129 227.5 267 c 256,3,4
 227.5 405 227.5 405 288 475.5 c 128,-1,5
 348.5 546 348.5 546 448.5 546 c 0,6,7
 490.5 546 490.5 546 521.5 535.5 c 128,-1,8
 552.5 525 552.5 525 575.5 507 c 128,-1,9
 598.5 489 598.5 489 614.5 467 c 1,10,-1
 620.5 467 l 1,11,12
 619.5 480 619.5 480 617 505.5 c 128,-1,13
 614.5 531 614.5 531 614.5 546 c 2,14,-1
 614.5 760 l 1,15,-1
 702.5 760 l 1,16,-1
 702.5 0 l 1,17,-1
 631.5 0 l 1,18,-1
 618.5 72 l 1,19,-1
 614.5 72 l 1,20,21
 598.5 49 598.5 49 575.5 30.5 c 128,-1,22
 552.5 12 552.5 12 521 1 c 128,-1,23
 489.5 -10 489.5 -10 447.5 -10 c 0,0,1
461.5 63 m 0,24,25
 546.5 63 546.5 63 581 109.5 c 128,-1,26
 615.5 156 615.5 156 615.5 250 c 2,27,-1
 615.5 266 l 2,28,29
 615.5 366 615.5 366 582.5 419.5 c 128,-1,30
 549.5 473 549.5 473 460.5 473 c 0,31,32
 389.5 473 389.5 473 354 416.5 c 128,-1,33
 318.5 360 318.5 360 318.5 265 c 0,34,35
 318.5 169 318.5 169 354 116 c 128,-1,36
 389.5 63 389.5 63 461.5 63 c 0,24,25
EndSplineSet
EndChar

StartChar: e
Encoding: 101 101 70
Width: 930
Flags: W
LayerCount: 2
Fore
SplineSet
473 546 m 0,0,1
 542 546 542 546 591.5 516 c 128,-1,2
 641 486 641 486 667.5 431.5 c 128,-1,3
 694 377 694 377 694 304 c 2,4,-1
 694 251 l 1,5,-1
 327 251 l 1,6,7
 329 160 329 160 373.5 112.5 c 128,-1,8
 418 65 418 65 498 65 c 0,9,10
 549 65 549 65 588.5 74.5 c 128,-1,11
 628 84 628 84 670 102 c 1,12,-1
 670 25 l 1,13,14
 629 7 629 7 589 -1.5 c 128,-1,15
 549 -10 549 -10 494 -10 c 0,16,17
 418 -10 418 -10 359.5 21 c 128,-1,18
 301 52 301 52 268.5 113.5 c 128,-1,19
 236 175 236 175 236 264 c 0,20,21
 236 352 236 352 265.5 415 c 128,-1,22
 295 478 295 478 348.5 512 c 128,-1,23
 402 546 402 546 473 546 c 0,0,1
472 474 m 0,24,25
 409 474 409 474 372.5 433.5 c 128,-1,26
 336 393 336 393 329 321 c 1,27,-1
 602 321 l 1,28,29
 602 367 602 367 588 401 c 128,-1,30
 574 435 574 435 545.5 454.5 c 128,-1,31
 517 474 517 474 472 474 c 0,24,25
EndSplineSet
EndChar

StartChar: f
Encoding: 102 102 71
Width: 930
Flags: W
LayerCount: 2
Fore
SplineSet
596 468 m 1,0,-1
 461 468 l 1,1,-1
 461 0 l 1,2,-1
 373 0 l 1,3,-1
 373 468 l 1,4,-1
 279 468 l 1,5,-1
 279 509 l 1,6,-1
 373 539 l 1,7,-1
 373 570 l 2,8,9
 373 639 373 639 393.5 682 c 128,-1,10
 414 725 414 725 453 745 c 128,-1,11
 492 765 492 765 547 765 c 0,12,13
 579 765 579 765 605.5 759.5 c 128,-1,14
 632 754 632 754 651 747 c 1,15,-1
 628 678 l 1,16,17
 612 683 612 683 591 688 c 128,-1,18
 570 693 570 693 548 693 c 0,19,20
 504 693 504 693 482.5 663.5 c 128,-1,21
 461 634 461 634 461 571 c 2,22,-1
 461 536 l 1,23,-1
 596 536 l 1,24,-1
 596 468 l 1,0,-1
EndSplineSet
EndChar

StartChar: g
Encoding: 103 103 72
Width: 930
Flags: W
LayerCount: 2
Fore
SplineSet
447.5 546 m 0,0,1
 500.5 546 500.5 546 543 526 c 128,-1,2
 585.5 506 585.5 506 615.5 465 c 1,3,-1
 620.5 465 l 1,4,-1
 632.5 536 l 1,5,-1
 702.5 536 l 1,6,-1
 702.5 -9 l 2,7,8
 702.5 -85 702.5 -85 676.5 -136.5 c 128,-1,9
 650.5 -188 650.5 -188 597.5 -214 c 128,-1,10
 544.5 -240 544.5 -240 462.5 -240 c 0,11,12
 404.5 -240 404.5 -240 356 -231.5 c 128,-1,13
 307.5 -223 307.5 -223 269.5 -206 c 1,14,-1
 269.5 -125 l 1,15,16
 307.5 -145 307.5 -145 358.5 -156 c 128,-1,17
 409.5 -167 409.5 -167 467.5 -167 c 0,18,19
 536.5 -167 536.5 -167 576 -126.5 c 128,-1,20
 615.5 -86 615.5 -86 615.5 -16 c 2,21,-1
 615.5 5 l 2,22,23
 615.5 17 615.5 17 616.5 39.5 c 128,-1,24
 617.5 62 617.5 62 618.5 71 c 1,25,-1
 614.5 71 l 1,26,27
 586.5 30 586.5 30 545 10 c 128,-1,28
 503.5 -10 503.5 -10 448.5 -10 c 0,29,30
 344.5 -10 344.5 -10 286 63 c 128,-1,31
 227.5 136 227.5 136 227.5 267 c 0,32,33
 227.5 395 227.5 395 286 470.5 c 128,-1,34
 344.5 546 344.5 546 447.5 546 c 0,0,1
459.5 472 m 0,35,36
 414.5 472 414.5 472 383 448 c 128,-1,37
 351.5 424 351.5 424 335 378 c 128,-1,38
 318.5 332 318.5 332 318.5 266 c 0,39,40
 318.5 167 318.5 167 355 114.5 c 128,-1,41
 391.5 62 391.5 62 461.5 62 c 0,42,43
 502.5 62 502.5 62 531.5 72.5 c 128,-1,44
 560.5 83 560.5 83 579.5 105.5 c 128,-1,45
 598.5 128 598.5 128 607.5 163 c 128,-1,46
 616.5 198 616.5 198 616.5 246 c 2,47,-1
 616.5 267 l 2,48,49
 616.5 340 616.5 340 600 385 c 128,-1,50
 583.5 430 583.5 430 548.5 451 c 128,-1,51
 513.5 472 513.5 472 459.5 472 c 0,35,36
EndSplineSet
EndChar

StartChar: h
Encoding: 104 104 73
Width: 930
Flags: W
LayerCount: 2
Fore
SplineSet
327 537 m 2,0,1
 327 518 327 518 325.5 498 c 128,-1,2
 324 478 324 478 322 462 c 1,3,-1
 328 462 l 1,4,5
 345 490 345 490 371 508 c 128,-1,6
 397 526 397 526 429 535.5 c 128,-1,7
 461 545 461 545 495 545 c 0,8,9
 560 545 560 545 603.5 524.5 c 128,-1,10
 647 504 647 504 669 461 c 128,-1,11
 691 418 691 418 691 349 c 2,12,-1
 691 0 l 1,13,-1
 604 0 l 1,14,-1
 604 343 l 2,15,16
 604 408 604 408 575 440 c 128,-1,17
 546 472 546 472 484 472 c 0,18,19
 424 472 424 472 390 449.5 c 128,-1,20
 356 427 356 427 341.5 383.5 c 128,-1,21
 327 340 327 340 327 277 c 2,22,-1
 327 0 l 1,23,-1
 239 0 l 1,24,-1
 239 760 l 1,25,-1
 327 760 l 1,26,-1
 327 537 l 2,0,1
EndSplineSet
EndChar

StartChar: i
Encoding: 105 105 74
Width: 930
Flags: W
LayerCount: 2
Fore
SplineSet
508.5 536 m 1,0,-1
 508.5 0 l 1,1,-1
 420.5 0 l 1,2,-1
 420.5 536 l 1,3,-1
 508.5 536 l 1,0,-1
465.5 737 m 0,4,5
 485.5 737 485.5 737 501 723.5 c 128,-1,6
 516.5 710 516.5 710 516.5 681 c 0,7,8
 516.5 653 516.5 653 501 639 c 128,-1,9
 485.5 625 485.5 625 465.5 625 c 0,10,11
 443.5 625 443.5 625 428.5 639 c 128,-1,12
 413.5 653 413.5 653 413.5 681 c 0,13,14
 413.5 710 413.5 710 428.5 723.5 c 128,-1,15
 443.5 737 443.5 737 465.5 737 c 0,4,5
EndSplineSet
Substitution2: "Single Substitution lookup 193 subtable" dotlessi
Substitution2: "Single Substitution lookup 192 subtable" dotlessi
EndChar

StartChar: j
Encoding: 106 106 75
Width: 930
Flags: W
AnchorPoint: "Anchor-1" 465 536 basechar 0
AnchorPoint: "Anchor-0" 465 0 basechar 0
LayerCount: 2
Fore
SplineSet
654 536 m 1,0,-1
 654 470 l 1,1,-1
 543 313 l 1,2,-1
 644 313 l 1,3,-1
 644 243 l 1,4,-1
 493 243 l 1,5,-1
 370 68 l 1,6,-1
 661 68 l 1,7,-1
 661 0 l 1,8,-1
 269 0 l 1,9,-1
 269 58 l 1,10,-1
 399 243 l 1,11,-1
 287 243 l 1,12,-1
 287 313 l 1,13,-1
 448 313 l 1,14,-1
 557 468 l 1,15,-1
 286 468 l 1,16,-1
 286 536 l 1,17,-1
 654 536 l 1,0,-1
EndSplineSet
Substitution2: "Single Substitution lookup 193 subtable" uni0237
Substitution2: "Single Substitution lookup 192 subtable" uni0237
EndChar

StartChar: k
Encoding: 107 107 76
Width: 930
Flags: W
LayerCount: 2
Fore
SplineSet
332 363 m 2,0,1
 332 347 332 347 330.5 321 c 128,-1,2
 329 295 329 295 328 276 c 1,3,-1
 332 276 l 1,4,5
 338 284 338 284 350 299 c 128,-1,6
 362 314 362 314 374.5 329.5 c 128,-1,7
 387 345 387 345 396 355 c 2,8,-1
 567 536 l 1,9,-1
 670 536 l 1,10,-1
 453 307 l 1,11,-1
 685 0 l 1,12,-1
 579 0 l 1,13,-1
 393 250 l 1,14,-1
 332 197 l 1,15,-1
 332 0 l 1,16,-1
 245 0 l 1,17,-1
 245 760 l 1,18,-1
 332 760 l 1,19,-1
 332 363 l 2,0,1
EndSplineSet
EndChar

StartChar: l
Encoding: 108 108 77
Width: 930
Flags: W
LayerCount: 2
Fore
SplineSet
509 0 m 1,0,-1
 421 0 l 1,1,-1
 421 760 l 1,2,-1
 509 760 l 1,3,-1
 509 0 l 1,0,-1
EndSplineSet
EndChar

StartChar: m
Encoding: 109 109 78
Width: 930
Flags: W
LayerCount: 2
Fore
SplineSet
668.5 546 m 0,0,1
 759.5 546 759.5 546 804.5 499.5 c 128,-1,2
 849.5 453 849.5 453 849.5 349 c 2,3,-1
 849.5 0 l 1,4,-1
 762.5 0 l 1,5,-1
 762.5 345 l 2,6,7
 762.5 408 762.5 408 736 440 c 128,-1,8
 709.5 472 709.5 472 653.5 472 c 0,9,10
 575.5 472 575.5 472 542 427 c 128,-1,11
 508.5 382 508.5 382 508.5 296 c 2,12,-1
 508.5 0 l 1,13,-1
 421.5 0 l 1,14,-1
 421.5 345 l 2,15,16
 421.5 387 421.5 387 409.5 415.5 c 128,-1,17
 397.5 444 397.5 444 373.5 458 c 128,-1,18
 349.5 472 349.5 472 311.5 472 c 0,19,20
 257.5 472 257.5 472 226.5 449.5 c 128,-1,21
 195.5 427 195.5 427 182 384 c 128,-1,22
 168.5 341 168.5 341 168.5 278 c 2,23,-1
 168.5 0 l 1,24,-1
 80.5 0 l 1,25,-1
 80.5 536 l 1,26,-1
 151.5 536 l 1,27,-1
 164.5 463 l 1,28,-1
 169.5 463 l 1,29,30
 186.5 491 186.5 491 211 509.5 c 128,-1,31
 235.5 528 235.5 528 265.5 537 c 128,-1,32
 295.5 546 295.5 546 327.5 546 c 0,33,34
 389.5 546 389.5 546 431 524 c 128,-1,35
 472.5 502 472.5 502 491.5 456 c 1,36,-1
 496.5 456 l 1,37,38
 523.5 502 523.5 502 570 524 c 128,-1,39
 616.5 546 616.5 546 668.5 546 c 0,0,1
EndSplineSet
EndChar

StartChar: n
Encoding: 110 110 79
Width: 930
Flags: W
LayerCount: 2
Fore
SplineSet
497 546 m 0,0,1
 593 546 593 546 642 499.5 c 128,-1,2
 691 453 691 453 691 349 c 2,3,-1
 691 0 l 1,4,-1
 604 0 l 1,5,-1
 604 343 l 2,6,7
 604 408 604 408 575 440 c 128,-1,8
 546 472 546 472 484 472 c 0,9,10
 395 472 395 472 361 422 c 128,-1,11
 327 372 327 372 327 278 c 2,12,-1
 327 0 l 1,13,-1
 239 0 l 1,14,-1
 239 536 l 1,15,-1
 310 536 l 1,16,-1
 323 463 l 1,17,-1
 328 463 l 1,18,19
 346 491 346 491 372.5 509.5 c 128,-1,20
 399 528 399 528 431 537 c 128,-1,21
 463 546 463 546 497 546 c 0,0,1
EndSplineSet
EndChar

StartChar: o
Encoding: 111 111 80
Width: 930
Flags: W
LayerCount: 2
Fore
SplineSet
713 269 m 0,0,1
 713 202 713 202 695.5 150.5 c 128,-1,2
 678 99 678 99 645.5 63 c 128,-1,3
 613 27 613 27 566.5 8.5 c 128,-1,4
 520 -10 520 -10 463 -10 c 0,5,6
 410 -10 410 -10 365 8.5 c 128,-1,7
 320 27 320 27 287 63 c 128,-1,8
 254 99 254 99 235.5 150.5 c 128,-1,9
 217 202 217 202 217 269 c 0,10,11
 217 358 217 358 247 419.5 c 128,-1,12
 277 481 277 481 333 513.5 c 128,-1,13
 389 546 389 546 466 546 c 0,14,15
 539 546 539 546 594.5 513.5 c 128,-1,16
 650 481 650 481 681.5 419.5 c 128,-1,17
 713 358 713 358 713 269 c 0,0,1
308 269 m 0,18,19
 308 206 308 206 324.5 159.5 c 128,-1,20
 341 113 341 113 376 88 c 128,-1,21
 411 63 411 63 465 63 c 256,22,23
 519 63 519 63 554 88 c 128,-1,24
 589 113 589 113 605.5 159.5 c 128,-1,25
 622 206 622 206 622 269 c 0,26,27
 622 333 622 333 605 378 c 128,-1,28
 588 423 588 423 553.5 447.5 c 128,-1,29
 519 472 519 472 464 472 c 0,30,31
 382 472 382 472 345 418 c 128,-1,32
 308 364 308 364 308 269 c 0,18,19
EndSplineSet
EndChar

StartChar: p
Encoding: 112 112 81
Width: 930
Flags: W
LayerCount: 2
Fore
SplineSet
482.5 546 m 0,0,1
 581.5 546 581.5 546 642 477 c 128,-1,2
 702.5 408 702.5 408 702.5 269 c 0,3,4
 702.5 178 702.5 178 675 115.5 c 128,-1,5
 647.5 53 647.5 53 598 21.5 c 128,-1,6
 548.5 -10 548.5 -10 481.5 -10 c 0,7,8
 440.5 -10 440.5 -10 408.5 1 c 128,-1,9
 376.5 12 376.5 12 354 29.5 c 128,-1,10
 331.5 47 331.5 47 315.5 68 c 1,11,-1
 309.5 68 l 1,12,13
 311.5 51 311.5 51 313.5 25 c 128,-1,14
 315.5 -1 315.5 -1 315.5 -20 c 2,15,-1
 315.5 -240 l 1,16,-1
 227.5 -240 l 1,17,-1
 227.5 536 l 1,18,-1
 299.5 536 l 1,19,-1
 311.5 463 l 1,20,-1
 315.5 463 l 1,21,22
 331.5 486 331.5 486 354 505 c 128,-1,23
 376.5 524 376.5 524 408 535 c 128,-1,24
 439.5 546 439.5 546 482.5 546 c 0,0,1
466.5 472 m 0,25,26
 412.5 472 412.5 472 379.5 451.5 c 128,-1,27
 346.5 431 346.5 431 331.5 390 c 128,-1,28
 316.5 349 316.5 349 315.5 286 c 2,29,-1
 315.5 269 l 2,30,31
 315.5 203 315.5 203 329.5 157 c 128,-1,32
 343.5 111 343.5 111 377 87 c 128,-1,33
 410.5 63 410.5 63 468.5 63 c 0,34,35
 517.5 63 517.5 63 549 90 c 128,-1,36
 580.5 117 580.5 117 596 163.5 c 128,-1,37
 611.5 210 611.5 210 611.5 270 c 0,38,39
 611.5 362 611.5 362 576 417 c 128,-1,40
 540.5 472 540.5 472 466.5 472 c 0,25,26
EndSplineSet
EndChar

StartChar: q
Encoding: 113 113 82
Width: 930
Flags: W
AnchorPoint: "Anchor-1" 427 765 basechar 0
AnchorPoint: "Anchor-0" 427 0 basechar 0
LayerCount: 2
Fore
SplineSet
366 765 m 0,0,1
 385 765 385 765 403 761 c 128,-1,2
 421 757 421 757 431 752 c 1,3,-1
 431 679 l 1,4,5
 424 682 424 682 410 685.5 c 128,-1,6
 396 689 396 689 379 689 c 0,7,8
 357 689 357 689 344.5 676 c 128,-1,9
 332 663 332 663 332 631 c 2,10,-1
 332 363 l 2,11,12
 332 347 332 347 331 321 c 128,-1,13
 330 295 330 295 328 276 c 1,14,-1
 332 276 l 1,15,16
 338 285 338 285 350 299.5 c 128,-1,17
 362 314 362 314 374.5 329.5 c 128,-1,18
 387 345 387 345 396 355 c 2,19,-1
 567 536 l 1,20,-1
 670 536 l 1,21,-1
 453 307 l 1,22,-1
 685 0 l 1,23,-1
 579 0 l 1,24,-1
 393 250 l 1,25,-1
 332 197 l 1,26,-1
 332 0 l 1,27,-1
 245 0 l 1,28,-1
 245 625 l 2,29,30
 245 765 245 765 366 765 c 0,0,1
EndSplineSet
EndChar

StartChar: r
Encoding: 114 114 83
Width: 930
Flags: W
LayerCount: 2
Fore
SplineSet
558.5 546 m 0,0,1
 573.5 546 573.5 546 591 544.5 c 128,-1,2
 608.5 543 608.5 543 621.5 540 c 1,3,-1
 610.5 459 l 1,4,5
 597.5 462 597.5 462 582 464 c 128,-1,6
 566.5 466 566.5 466 552.5 466 c 0,7,8
 521.5 466 521.5 466 493.5 453 c 128,-1,9
 465.5 440 465.5 440 443.5 416.5 c 128,-1,10
 421.5 393 421.5 393 409 360 c 128,-1,11
 396.5 327 396.5 327 396.5 286 c 2,12,-1
 396.5 0 l 1,13,-1
 308.5 0 l 1,14,-1
 308.5 536 l 1,15,-1
 380.5 536 l 1,16,-1
 390.5 438 l 1,17,-1
 394.5 438 l 1,18,19
 411.5 468 411.5 468 435.5 492.5 c 128,-1,20
 459.5 517 459.5 517 490.5 531.5 c 128,-1,21
 521.5 546 521.5 546 558.5 546 c 0,0,1
EndSplineSet
EndChar

StartChar: s
Encoding: 115 115 84
Width: 930
Flags: W
LayerCount: 2
Fore
SplineSet
656.5 148 m 0,0,1
 656.5 96 656.5 96 630.5 61 c 128,-1,2
 604.5 26 604.5 26 556.5 8 c 128,-1,3
 508.5 -10 508.5 -10 442.5 -10 c 0,4,5
 386.5 -10 386.5 -10 346 -1 c 128,-1,6
 305.5 8 305.5 8 274.5 24 c 1,7,-1
 274.5 104 l 1,8,9
 306.5 88 306.5 88 352 74.5 c 128,-1,10
 397.5 61 397.5 61 444.5 61 c 0,11,12
 511.5 61 511.5 61 541.5 82.5 c 128,-1,13
 571.5 104 571.5 104 571.5 140 c 0,14,15
 571.5 160 571.5 160 560.5 176 c 128,-1,16
 549.5 192 549.5 192 521 208 c 128,-1,17
 492.5 224 492.5 224 439.5 244 c 0,18,19
 387.5 264 387.5 264 350.5 284 c 128,-1,20
 313.5 304 313.5 304 293.5 332 c 128,-1,21
 273.5 360 273.5 360 273.5 404 c 0,22,23
 273.5 472 273.5 472 329 509 c 128,-1,24
 384.5 546 384.5 546 474.5 546 c 0,25,26
 523.5 546 523.5 546 566 536.5 c 128,-1,27
 608.5 527 608.5 527 645.5 510 c 1,28,-1
 615.5 440 l 1,29,30
 581.5 454 581.5 454 544.5 464 c 128,-1,31
 507.5 474 507.5 474 468.5 474 c 0,32,33
 414.5 474 414.5 474 386 456.5 c 128,-1,34
 357.5 439 357.5 439 357.5 409 c 0,35,36
 357.5 387 357.5 387 370.5 371.5 c 128,-1,37
 383.5 356 383.5 356 414 341.5 c 128,-1,38
 444.5 327 444.5 327 495.5 307 c 0,39,40
 546.5 288 546.5 288 582.5 268 c 128,-1,41
 618.5 248 618.5 248 637.5 219.5 c 128,-1,42
 656.5 191 656.5 191 656.5 148 c 0,0,1
EndSplineSet
EndChar

StartChar: t
Encoding: 116 116 85
Width: 930
Flags: W
LayerCount: 2
Fore
SplineSet
551.5 62 m 0,0,1
 571.5 62 571.5 62 592.5 65.5 c 128,-1,2
 613.5 69 613.5 69 626.5 73 c 1,3,-1
 626.5 6 l 1,4,5
 612.5 -1 612.5 -1 586.5 -5.5 c 128,-1,6
 560.5 -10 560.5 -10 536.5 -10 c 0,7,8
 494.5 -10 494.5 -10 459 4.5 c 128,-1,9
 423.5 19 423.5 19 401.5 55 c 128,-1,10
 379.5 91 379.5 91 379.5 156 c 2,11,-1
 379.5 468 l 1,12,-1
 303.5 468 l 1,13,-1
 303.5 510 l 1,14,-1
 380.5 545 l 1,15,-1
 415.5 659 l 1,16,-1
 467.5 659 l 1,17,-1
 467.5 536 l 1,18,-1
 622.5 536 l 1,19,-1
 622.5 468 l 1,20,-1
 467.5 468 l 1,21,-1
 467.5 158 l 2,22,23
 467.5 109 467.5 109 491 85.5 c 128,-1,24
 514.5 62 514.5 62 551.5 62 c 0,0,1
EndSplineSet
EndChar

StartChar: u
Encoding: 117 117 86
Width: 930
Flags: W
LayerCount: 2
Fore
SplineSet
692 536 m 1,0,-1
 692 0 l 1,1,-1
 620 0 l 1,2,-1
 607 71 l 1,3,-1
 603 71 l 1,4,5
 586 43 586 43 559 25 c 128,-1,6
 532 7 532 7 500 -1.5 c 128,-1,7
 468 -10 468 -10 433 -10 c 0,8,9
 369 -10 369 -10 325.5 10.5 c 128,-1,10
 282 31 282 31 260 74 c 128,-1,11
 238 117 238 117 238 185 c 2,12,-1
 238 536 l 1,13,-1
 327 536 l 1,14,-1
 327 191 l 2,15,16
 327 127 327 127 356 95 c 128,-1,17
 385 63 385 63 446 63 c 0,18,19
 506 63 506 63 540.5 85.5 c 128,-1,20
 575 108 575 108 589.5 151.5 c 128,-1,21
 604 195 604 195 604 257 c 2,22,-1
 604 536 l 1,23,-1
 692 536 l 1,0,-1
EndSplineSet
EndChar

StartChar: v
Encoding: 118 118 87
Width: 930
Flags: W
LayerCount: 2
Fore
SplineSet
414 0 m 1,0,-1
 211 536 l 1,1,-1
 305 536 l 1,2,-1
 419 220 l 2,3,4
 427 198 427 198 436 171 c 128,-1,5
 445 144 445 144 452 119.5 c 128,-1,6
 459 95 459 95 462 78 c 1,7,-1
 466 78 l 1,8,9
 470 95 470 95 477.5 120 c 128,-1,10
 485 145 485 145 494.5 172 c 128,-1,11
 504 199 504 199 511 220 c 2,12,-1
 625 536 l 1,13,-1
 719 536 l 1,14,-1
 515 0 l 1,15,-1
 414 0 l 1,0,-1
EndSplineSet
EndChar

StartChar: w
Encoding: 119 119 88
Width: 930
Flags: W
AnchorPoint: "Anchor-1" 455.5 536 basechar 0
AnchorPoint: "Anchor-0" 454.5 0 basechar 0
LayerCount: 2
Fore
SplineSet
455.5 682 m 4,0,1
 475.5 682 475.5 682 491 668.5 c 132,-1,2
 506.5 655 506.5 655 506.5 626 c 4,3,4
 506.5 598 506.5 598 491 584 c 132,-1,5
 475.5 570 475.5 570 455.5 570 c 4,6,7
 433.5 570 433.5 570 418.5 584 c 132,-1,8
 403.5 598 403.5 598 403.5 626 c 4,9,10
 403.5 655 403.5 655 418.5 668.5 c 132,-1,11
 433.5 682 433.5 682 455.5 682 c 4,0,1
692.5 541 m 0,12,13
 704.5 541 704.5 541 714.5 539 c 128,-1,14
 724.5 537 724.5 537 733.5 535 c 1,15,-1
 733.5 467 l 1,16,17
 720.5 472 720.5 472 699.5 472 c 0,18,19
 677.5 472 677.5 472 663.5 452 c 128,-1,20
 649.5 432 649.5 432 635.5 390 c 2,21,-1
 512.5 0 l 1,22,-1
 395.5 0 l 1,23,-1
 196.5 536 l 1,24,-1
 288.5 536 l 1,25,-1
 415.5 181 l 2,26,27
 430.5 139 430.5 139 440.5 107.5 c 128,-1,28
 450.5 76 450.5 76 452.5 62 c 1,29,-1
 456.5 62 l 1,30,31
 460.5 83 460.5 83 468.5 119 c 128,-1,32
 476.5 155 476.5 155 487.5 189 c 2,33,-1
 557.5 407 l 2,34,35
 574.5 459 574.5 459 591 488 c 128,-1,36
 607.5 517 607.5 517 631 529 c 128,-1,37
 654.5 541 654.5 541 692.5 541 c 0,12,13
EndSplineSet
EndChar

StartChar: x
Encoding: 120 120 89
Width: 930
Flags: W
LayerCount: 2
Fore
SplineSet
412.5 274 m 1,0,-1
 227.5 536 l 1,1,-1
 327.5 536 l 1,2,-1
 465.5 334 l 1,3,-1
 602.5 536 l 1,4,-1
 701.5 536 l 1,5,-1
 516.5 274 l 1,6,-1
 711.5 0 l 1,7,-1
 611.5 0 l 1,8,-1
 465.5 214 l 1,9,-1
 317.5 0 l 1,10,-1
 218.5 0 l 1,11,-1
 412.5 274 l 1,0,-1
EndSplineSet
EndChar

StartChar: y
Encoding: 121 121 90
Width: 930
Flags: W
LayerCount: 2
Fore
SplineSet
210.5 536 m 1,0,-1
 304.5 536 l 1,1,-1
 420.5 231 l 2,2,3
 430.5 204 430.5 204 439 179 c 128,-1,4
 447.5 154 447.5 154 454.5 130.5 c 128,-1,5
 461.5 107 461.5 107 465.5 85 c 1,6,-1
 469.5 85 l 1,7,8
 475.5 110 475.5 110 488.5 150.5 c 128,-1,9
 501.5 191 501.5 191 515.5 232 c 2,10,-1
 624.5 536 l 1,11,-1
 719.5 536 l 1,12,-1
 488.5 -74 l 2,13,14
 469.5 -124 469.5 -124 444 -161.5 c 128,-1,15
 418.5 -199 418.5 -199 382 -219.5 c 128,-1,16
 345.5 -240 345.5 -240 293.5 -240 c 0,17,18
 269.5 -240 269.5 -240 251.5 -237.5 c 128,-1,19
 233.5 -235 233.5 -235 220.5 -232 c 1,20,-1
 220.5 -162 l 1,21,22
 231.5 -164 231.5 -164 247 -166 c 128,-1,23
 262.5 -168 262.5 -168 279.5 -168 c 0,24,25
 310.5 -168 310.5 -168 333 -156.5 c 128,-1,26
 355.5 -145 355.5 -145 371.5 -123.5 c 128,-1,27
 387.5 -102 387.5 -102 398.5 -73 c 2,28,-1
 426.5 -2 l 1,29,-1
 210.5 536 l 1,0,-1
EndSplineSet
EndChar

StartChar: z
Encoding: 122 122 91
Width: 930
Flags: W
LayerCount: 2
Fore
SplineSet
661 0 m 1,0,-1
 269 0 l 1,1,-1
 269 58 l 1,2,-1
 557 468 l 1,3,-1
 286 468 l 1,4,-1
 286 536 l 1,5,-1
 654 536 l 1,6,-1
 654 470 l 1,7,-1
 370 68 l 1,8,-1
 661 68 l 1,9,-1
 661 0 l 1,0,-1
EndSplineSet
EndChar

StartChar: at
Encoding: 64 64 92
Width: 930
Flags: W
LayerCount: 2
Fore
SplineSet
856.5 357 m 0,0,1
 856.5 311 856.5 311 846 267 c 128,-1,2
 835.5 223 835.5 223 813.5 187.5 c 128,-1,3
 791.5 152 791.5 152 759.5 130.5 c 128,-1,4
 727.5 109 727.5 109 683.5 109 c 0,5,6
 637.5 109 637.5 109 611 135.5 c 128,-1,7
 584.5 162 584.5 162 578.5 196 c 1,8,-1
 573.5 196 l 1,9,10
 555.5 159 555.5 159 520.5 134 c 128,-1,11
 485.5 109 485.5 109 432.5 109 c 0,12,13
 356.5 109 356.5 109 315 160 c 128,-1,14
 273.5 211 273.5 211 273.5 295 c 0,15,16
 273.5 361 273.5 361 299.5 411.5 c 128,-1,17
 325.5 462 325.5 462 373 491 c 128,-1,18
 420.5 520 420.5 520 485.5 520 c 0,19,20
 529.5 520 529.5 520 572 512.5 c 128,-1,21
 614.5 505 614.5 505 638.5 496 c 1,22,-1
 628.5 293 l 2,23,24
 627.5 275 627.5 275 627.5 267.5 c 128,-1,25
 627.5 260 627.5 260 627.5 257 c 0,26,27
 627.5 205 627.5 205 646 188 c 128,-1,28
 664.5 171 664.5 171 689.5 171 c 0,29,30
 720.5 171 720.5 171 742 196.5 c 128,-1,31
 763.5 222 763.5 222 775 264.5 c 128,-1,32
 786.5 307 786.5 307 786.5 358 c 0,33,34
 786.5 451 786.5 451 749 515.5 c 128,-1,35
 711.5 580 711.5 580 646 614 c 128,-1,36
 580.5 648 580.5 648 497.5 648 c 0,37,38
 412.5 648 412.5 648 346.5 621 c 128,-1,39
 280.5 594 280.5 594 236 545 c 128,-1,40
 191.5 496 191.5 496 168.5 429.5 c 128,-1,41
 145.5 363 145.5 363 145.5 283 c 0,42,43
 145.5 185 145.5 185 180.5 116.5 c 128,-1,44
 215.5 48 215.5 48 283 12.5 c 128,-1,45
 350.5 -23 350.5 -23 448.5 -23 c 0,46,47
 509.5 -23 509.5 -23 565 -9.5 c 128,-1,48
 620.5 4 620.5 4 663.5 20 c 1,49,-1
 663.5 -48 l 1,50,51
 620.5 -66 620.5 -66 567 -77.5 c 128,-1,52
 513.5 -89 513.5 -89 448.5 -89 c 0,53,54
 330.5 -89 330.5 -89 246.5 -45 c 128,-1,55
 162.5 -1 162.5 -1 118 81.5 c 128,-1,56
 73.5 164 73.5 164 73.5 280 c 0,57,58
 73.5 373 73.5 373 102.5 452.5 c 128,-1,59
 131.5 532 131.5 532 186.5 590.5 c 128,-1,60
 241.5 649 241.5 649 320 681.5 c 128,-1,61
 398.5 714 398.5 714 497.5 714 c 0,62,63
 575.5 714 575.5 714 641 689.5 c 128,-1,64
 706.5 665 706.5 665 755 618.5 c 128,-1,65
 803.5 572 803.5 572 830 506 c 128,-1,66
 856.5 440 856.5 440 856.5 357 c 0,0,1
351.5 293 m 0,67,68
 351.5 229 351.5 229 377 200 c 128,-1,69
 402.5 171 402.5 171 445.5 171 c 0,70,71
 501.5 171 501.5 171 526 213 c 128,-1,72
 550.5 255 550.5 255 554.5 322 c 2,73,-1
 560.5 447 l 1,74,75
 547.5 451 547.5 451 527.5 454 c 128,-1,76
 507.5 457 507.5 457 486.5 457 c 0,77,78
 437.5 457 437.5 457 407.5 433 c 128,-1,79
 377.5 409 377.5 409 364.5 371.5 c 128,-1,80
 351.5 334 351.5 334 351.5 293 c 0,67,68
EndSplineSet
EndChar

StartChar: ampersand
Encoding: 38 38 93
Width: 930
Flags: W
LayerCount: 2
Fore
SplineSet
377.5 725 m 0,0,1
 431.5 725 431.5 725 470 706.5 c 128,-1,2
 508.5 688 508.5 688 529.5 654 c 128,-1,3
 550.5 620 550.5 620 550.5 571 c 0,4,5
 550.5 508 550.5 508 510 464 c 128,-1,6
 469.5 420 469.5 420 407.5 384 c 1,7,-1
 600.5 198 l 1,8,9
 626.5 229 626.5 229 643 269.5 c 128,-1,10
 659.5 310 659.5 310 670.5 357 c 1,11,-1
 759.5 357 l 1,12,13
 743.5 293 743.5 293 719.5 238 c 128,-1,14
 695.5 183 695.5 183 657.5 142 c 1,15,-1
 803.5 0 l 1,16,-1
 684.5 0 l 1,17,-1
 597.5 84 l 1,18,19
 566.5 56 566.5 56 530.5 35 c 128,-1,20
 494.5 14 494.5 14 451 2 c 128,-1,21
 407.5 -10 407.5 -10 351.5 -10 c 0,22,23
 282.5 -10 282.5 -10 232 12.5 c 128,-1,24
 181.5 35 181.5 35 154 79 c 128,-1,25
 126.5 123 126.5 123 126.5 186 c 0,26,27
 126.5 237 126.5 237 145 274 c 128,-1,28
 163.5 311 163.5 311 198.5 340 c 128,-1,29
 233.5 369 233.5 369 280.5 396 c 1,30,31
 259.5 420 259.5 420 239.5 446 c 128,-1,32
 219.5 472 219.5 472 206.5 502.5 c 128,-1,33
 193.5 533 193.5 533 193.5 569 c 0,34,35
 193.5 618 193.5 618 215.5 653 c 128,-1,36
 237.5 688 237.5 688 279 706.5 c 128,-1,37
 320.5 725 320.5 725 377.5 725 c 0,0,1
333.5 341 m 1,38,39
 297.5 320 297.5 320 272 298.5 c 128,-1,40
 246.5 277 246.5 277 232.5 251 c 128,-1,41
 218.5 225 218.5 225 218.5 189 c 0,42,43
 218.5 134 218.5 134 255.5 101 c 128,-1,44
 292.5 68 292.5 68 354.5 68 c 0,45,46
 418.5 68 418.5 68 464.5 89 c 128,-1,47
 510.5 110 510.5 110 541.5 139 c 1,48,-1
 333.5 341 l 1,38,39
374.5 653 m 0,49,50
 332.5 653 332.5 653 306 631 c 128,-1,51
 279.5 609 279.5 609 279.5 570 c 0,52,53
 279.5 534 279.5 534 298.5 503.5 c 128,-1,54
 317.5 473 317.5 473 353.5 436 c 1,55,56
 412.5 470 412.5 470 438 500.5 c 128,-1,57
 463.5 531 463.5 531 463.5 571 c 0,58,59
 463.5 607 463.5 607 439.5 630 c 128,-1,60
 415.5 653 415.5 653 374.5 653 c 0,49,50
EndSplineSet
EndChar

StartChar: dollar
Encoding: 36 36 94
Width: 930
Flags: W
LayerCount: 2
Fore
SplineSet
429 49 m 1,0,1
 374 50 374 50 322 58.5 c 128,-1,2
 270 67 270 67 238 82 c 1,3,-1
 238 167 l 1,4,5
 272 151 272 151 325 139 c 128,-1,6
 378 127 378 127 429 126 c 1,7,-1
 429 328 l 1,8,9
 363 346 363 346 321 369.5 c 128,-1,10
 279 393 279 393 258.5 427 c 128,-1,11
 238 461 238 461 238 508 c 0,12,13
 238 557 238 557 261.5 592 c 128,-1,14
 285 627 285 627 328 647.5 c 128,-1,15
 371 668 371 668 429 671 c 1,16,-1
 429 759 l 1,17,-1
 493 759 l 1,18,-1
 493 672 l 1,19,20
 546 671 546 671 589.5 660.5 c 128,-1,21
 633 650 633 650 669 635 c 1,22,-1
 642 561 l 1,23,24
 610 574 610 574 571.5 583.5 c 128,-1,25
 533 593 533 593 493 596 c 1,26,-1
 493 395 l 1,27,28
 559 376 559 376 603 354.5 c 128,-1,29
 647 333 647 333 669.5 301.5 c 128,-1,30
 692 270 692 270 692 220 c 0,31,32
 692 150 692 150 640 106.5 c 128,-1,33
 588 63 588 63 493 53 c 1,34,-1
 493 -58 l 1,35,-1
 429 -58 l 1,36,-1
 429 49 l 1,0,1
493 131 m 1,37,38
 552 137 552 137 579 158.5 c 128,-1,39
 606 180 606 180 606 214 c 0,40,41
 606 239 606 239 596 255.5 c 128,-1,42
 586 272 586 272 561.5 284 c 128,-1,43
 537 296 537 296 493 307 c 1,44,-1
 493 131 l 1,37,38
429 594 m 1,45,46
 393 592 393 592 370 581.5 c 128,-1,47
 347 571 347 571 335.5 554 c 128,-1,48
 324 537 324 537 324 515 c 0,49,50
 324 489 324 489 333.5 470.5 c 128,-1,51
 343 452 343 452 366 439.5 c 128,-1,52
 389 427 389 427 429 417 c 1,53,-1
 429 594 l 1,45,46
EndSplineSet
EndChar

StartChar: grave
Encoding: 96 96 95
Width: 930
Flags: W
LayerCount: 2
Fore
SplineSet
469.5 766 m 1,0,1
 480.5 744 480.5 744 497 716.5 c 128,-1,2
 513.5 689 513.5 689 532 663 c 128,-1,3
 550.5 637 550.5 637 565.5 618 c 1,4,-1
 565.5 606 l 1,5,-1
 506.5 606 l 1,6,7
 489.5 620 489.5 620 468.5 639.5 c 128,-1,8
 447.5 659 447.5 659 427 680.5 c 128,-1,9
 406.5 702 406.5 702 390 722 c 128,-1,10
 373.5 742 373.5 742 364.5 756 c 1,11,-1
 364.5 766 l 1,12,-1
 469.5 766 l 1,0,1
EndSplineSet
EndChar

StartChar: uni0080
Encoding: 128 128 96
Width: 930
Flags: W
LayerCount: 2
Fore
SplineSet
259.5 85 m 0,0,1
 259.5 103 259.5 103 275 118 c 128,-1,2
 290.5 133 290.5 133 318.5 144.5 c 128,-1,3
 346.5 156 346.5 156 384 162.5 c 128,-1,4
 421.5 169 421.5 169 464.5 169 c 0,5,6
 508.5 169 508.5 169 546 162.5 c 128,-1,7
 583.5 156 583.5 156 611 144.5 c 128,-1,8
 638.5 133 638.5 133 654.5 118 c 128,-1,9
 670.5 103 670.5 103 670.5 85 c 0,10,11
 670.5 68 670.5 68 654.5 53 c 128,-1,12
 638.5 38 638.5 38 611 27 c 128,-1,13
 583.5 16 583.5 16 546 9.5 c 128,-1,14
 508.5 3 508.5 3 464.5 3 c 0,15,16
 421.5 3 421.5 3 384 9.5 c 128,-1,17
 346.5 16 346.5 16 318.5 27 c 128,-1,18
 290.5 38 290.5 38 275 53 c 128,-1,19
 259.5 68 259.5 68 259.5 85 c 0,0,1
339.5 85 m 256,20,21
 339.5 74 339.5 74 349 64.5 c 128,-1,22
 358.5 55 358.5 55 375.5 48.5 c 128,-1,23
 392.5 42 392.5 42 415.5 38 c 128,-1,24
 438.5 34 438.5 34 464.5 34 c 0,25,26
 491.5 34 491.5 34 514 38 c 128,-1,27
 536.5 42 536.5 42 553.5 48.5 c 128,-1,28
 570.5 55 570.5 55 580 64.5 c 128,-1,29
 589.5 74 589.5 74 589.5 85 c 256,30,31
 589.5 96 589.5 96 580 105.5 c 128,-1,32
 570.5 115 570.5 115 553.5 122 c 128,-1,33
 536.5 129 536.5 129 514 133 c 128,-1,34
 491.5 137 491.5 137 464.5 137 c 0,35,36
 438.5 137 438.5 137 415.5 133 c 128,-1,37
 392.5 129 392.5 129 375.5 122 c 128,-1,38
 358.5 115 358.5 115 349 105.5 c 128,-1,39
 339.5 96 339.5 96 339.5 85 c 256,20,21
259.5 272 m 0,40,41
 259.5 290 259.5 290 275 305 c 128,-1,42
 290.5 320 290.5 320 318.5 331.5 c 128,-1,43
 346.5 343 346.5 343 384 349 c 128,-1,44
 421.5 355 421.5 355 464.5 355 c 0,45,46
 508.5 355 508.5 355 546 349 c 128,-1,47
 583.5 343 583.5 343 611 331.5 c 128,-1,48
 638.5 320 638.5 320 654.5 305 c 128,-1,49
 670.5 290 670.5 290 670.5 272 c 0,50,51
 670.5 255 670.5 255 654.5 240 c 128,-1,52
 638.5 225 638.5 225 611 214 c 128,-1,53
 583.5 203 583.5 203 546 196 c 128,-1,54
 508.5 189 508.5 189 464.5 189 c 0,55,56
 421.5 189 421.5 189 384 196 c 128,-1,57
 346.5 203 346.5 203 318.5 214 c 128,-1,58
 290.5 225 290.5 225 275 240 c 128,-1,59
 259.5 255 259.5 255 259.5 272 c 0,40,41
339.5 272 m 256,60,61
 339.5 261 339.5 261 349 251.5 c 128,-1,62
 358.5 242 358.5 242 375.5 235 c 128,-1,63
 392.5 228 392.5 228 415.5 224 c 128,-1,64
 438.5 220 438.5 220 464.5 220 c 0,65,66
 491.5 220 491.5 220 514 224 c 128,-1,67
 536.5 228 536.5 228 553.5 235 c 128,-1,68
 570.5 242 570.5 242 580 251.5 c 128,-1,69
 589.5 261 589.5 261 589.5 272 c 256,70,71
 589.5 283 589.5 283 580 292.5 c 128,-1,72
 570.5 302 570.5 302 553.5 309 c 128,-1,73
 536.5 316 536.5 316 514 320 c 128,-1,74
 491.5 324 491.5 324 464.5 324 c 0,75,76
 438.5 324 438.5 324 415.5 320 c 128,-1,77
 392.5 316 392.5 316 375.5 309 c 128,-1,78
 358.5 302 358.5 302 349 292.5 c 128,-1,79
 339.5 283 339.5 283 339.5 272 c 256,60,61
259.5 461 m 256,80,81
 259.5 478 259.5 478 275 493.5 c 128,-1,82
 290.5 509 290.5 509 318.5 520 c 128,-1,83
 346.5 531 346.5 531 384 537.5 c 128,-1,84
 421.5 544 421.5 544 464.5 544 c 0,85,86
 508.5 544 508.5 544 546 537.5 c 128,-1,87
 583.5 531 583.5 531 611 520 c 128,-1,88
 638.5 509 638.5 509 654.5 493.5 c 128,-1,89
 670.5 478 670.5 478 670.5 461 c 256,90,91
 670.5 444 670.5 444 654.5 429 c 128,-1,92
 638.5 414 638.5 414 611 402.5 c 128,-1,93
 583.5 391 583.5 391 546 384.5 c 128,-1,94
 508.5 378 508.5 378 464.5 378 c 0,95,96
 421.5 378 421.5 378 384 384.5 c 128,-1,97
 346.5 391 346.5 391 318.5 402.5 c 128,-1,98
 290.5 414 290.5 414 275 429 c 128,-1,99
 259.5 444 259.5 444 259.5 461 c 256,80,81
339.5 461 m 256,100,101
 339.5 450 339.5 450 349 440.5 c 128,-1,102
 358.5 431 358.5 431 375.5 424 c 128,-1,103
 392.5 417 392.5 417 415.5 413 c 128,-1,104
 438.5 409 438.5 409 464.5 409 c 0,105,106
 491.5 409 491.5 409 514 413 c 128,-1,107
 536.5 417 536.5 417 553.5 424 c 128,-1,108
 570.5 431 570.5 431 580 440.5 c 128,-1,109
 589.5 450 589.5 450 589.5 461 c 256,110,111
 589.5 472 589.5 472 580 481.5 c 128,-1,112
 570.5 491 570.5 491 553.5 498 c 128,-1,113
 536.5 505 536.5 505 514 509 c 128,-1,114
 491.5 513 491.5 513 464.5 513 c 0,115,116
 438.5 513 438.5 513 415.5 509 c 128,-1,117
 392.5 505 392.5 505 375.5 498 c 128,-1,118
 358.5 491 358.5 491 349 481.5 c 128,-1,119
 339.5 472 339.5 472 339.5 461 c 256,100,101
259.5 648 m 256,120,121
 259.5 665 259.5 665 275 680.5 c 128,-1,122
 290.5 696 290.5 696 318.5 707 c 128,-1,123
 346.5 718 346.5 718 384 724.5 c 128,-1,124
 421.5 731 421.5 731 464.5 731 c 0,125,126
 508.5 731 508.5 731 546 724.5 c 128,-1,127
 583.5 718 583.5 718 611 707 c 128,-1,128
 638.5 696 638.5 696 654.5 680.5 c 128,-1,129
 670.5 665 670.5 665 670.5 648 c 256,130,131
 670.5 631 670.5 631 654.5 616 c 128,-1,132
 638.5 601 638.5 601 611 589.5 c 128,-1,133
 583.5 578 583.5 578 546 571.5 c 128,-1,134
 508.5 565 508.5 565 464.5 565 c 0,135,136
 421.5 565 421.5 565 384 571.5 c 128,-1,137
 346.5 578 346.5 578 318.5 589.5 c 128,-1,138
 290.5 601 290.5 601 275 616 c 128,-1,139
 259.5 631 259.5 631 259.5 648 c 256,120,121
339.5 648 m 0,140,141
 339.5 637 339.5 637 349 627.5 c 128,-1,142
 358.5 618 358.5 618 375.5 611 c 128,-1,143
 392.5 604 392.5 604 415.5 600 c 128,-1,144
 438.5 596 438.5 596 464.5 596 c 0,145,146
 491.5 596 491.5 596 514 600 c 128,-1,147
 536.5 604 536.5 604 553.5 611 c 128,-1,148
 570.5 618 570.5 618 580 627.5 c 128,-1,149
 589.5 637 589.5 637 589.5 648 c 0,150,151
 589.5 658 589.5 658 580 668 c 128,-1,152
 570.5 678 570.5 678 553.5 685 c 128,-1,153
 536.5 692 536.5 692 514 696 c 128,-1,154
 491.5 700 491.5 700 464.5 700 c 0,155,156
 438.5 700 438.5 700 415.5 696 c 128,-1,157
 392.5 692 392.5 692 375.5 685 c 128,-1,158
 358.5 678 358.5 678 349 668 c 128,-1,159
 339.5 658 339.5 658 339.5 648 c 0,140,141
EndSplineSet
EndChar

StartChar: uni0081
Encoding: 129 129 97
Width: 930
Flags: W
LayerCount: 2
Fore
SplineSet
259.5 85 m 0,0,1
 259.5 103 259.5 103 275 118 c 128,-1,2
 290.5 133 290.5 133 318.5 144.5 c 128,-1,3
 346.5 156 346.5 156 384 162.5 c 128,-1,4
 421.5 169 421.5 169 464.5 169 c 0,5,6
 508.5 169 508.5 169 546 162.5 c 128,-1,7
 583.5 156 583.5 156 611 144.5 c 128,-1,8
 638.5 133 638.5 133 654.5 118 c 128,-1,9
 670.5 103 670.5 103 670.5 85 c 0,10,11
 670.5 68 670.5 68 654.5 53 c 128,-1,12
 638.5 38 638.5 38 611 27 c 128,-1,13
 583.5 16 583.5 16 546 9.5 c 128,-1,14
 508.5 3 508.5 3 464.5 3 c 0,15,16
 421.5 3 421.5 3 384 9.5 c 128,-1,17
 346.5 16 346.5 16 318.5 27 c 128,-1,18
 290.5 38 290.5 38 275 53 c 128,-1,19
 259.5 68 259.5 68 259.5 85 c 0,0,1
259.5 272 m 0,20,21
 259.5 290 259.5 290 275 305 c 128,-1,22
 290.5 320 290.5 320 318.5 331.5 c 128,-1,23
 346.5 343 346.5 343 384 349 c 128,-1,24
 421.5 355 421.5 355 464.5 355 c 0,25,26
 508.5 355 508.5 355 546 349 c 128,-1,27
 583.5 343 583.5 343 611 331.5 c 128,-1,28
 638.5 320 638.5 320 654.5 305 c 128,-1,29
 670.5 290 670.5 290 670.5 272 c 0,30,31
 670.5 255 670.5 255 654.5 240 c 128,-1,32
 638.5 225 638.5 225 611 214 c 128,-1,33
 583.5 203 583.5 203 546 196 c 128,-1,34
 508.5 189 508.5 189 464.5 189 c 0,35,36
 421.5 189 421.5 189 384 196 c 128,-1,37
 346.5 203 346.5 203 318.5 214 c 128,-1,38
 290.5 225 290.5 225 275 240 c 128,-1,39
 259.5 255 259.5 255 259.5 272 c 0,20,21
339.5 272 m 256,40,41
 339.5 261 339.5 261 349 251.5 c 128,-1,42
 358.5 242 358.5 242 375.5 235 c 128,-1,43
 392.5 228 392.5 228 415.5 224 c 128,-1,44
 438.5 220 438.5 220 464.5 220 c 0,45,46
 491.5 220 491.5 220 514 224 c 128,-1,47
 536.5 228 536.5 228 553.5 235 c 128,-1,48
 570.5 242 570.5 242 580 251.5 c 128,-1,49
 589.5 261 589.5 261 589.5 272 c 256,50,51
 589.5 283 589.5 283 580 292.5 c 128,-1,52
 570.5 302 570.5 302 553.5 309 c 128,-1,53
 536.5 316 536.5 316 514 320 c 128,-1,54
 491.5 324 491.5 324 464.5 324 c 0,55,56
 438.5 324 438.5 324 415.5 320 c 128,-1,57
 392.5 316 392.5 316 375.5 309 c 128,-1,58
 358.5 302 358.5 302 349 292.5 c 128,-1,59
 339.5 283 339.5 283 339.5 272 c 256,40,41
259.5 461 m 256,60,61
 259.5 478 259.5 478 275 493.5 c 128,-1,62
 290.5 509 290.5 509 318.5 520 c 128,-1,63
 346.5 531 346.5 531 384 537.5 c 128,-1,64
 421.5 544 421.5 544 464.5 544 c 0,65,66
 508.5 544 508.5 544 546 537.5 c 128,-1,67
 583.5 531 583.5 531 611 520 c 128,-1,68
 638.5 509 638.5 509 654.5 493.5 c 128,-1,69
 670.5 478 670.5 478 670.5 461 c 256,70,71
 670.5 444 670.5 444 654.5 429 c 128,-1,72
 638.5 414 638.5 414 611 402.5 c 128,-1,73
 583.5 391 583.5 391 546 384.5 c 128,-1,74
 508.5 378 508.5 378 464.5 378 c 0,75,76
 421.5 378 421.5 378 384 384.5 c 128,-1,77
 346.5 391 346.5 391 318.5 402.5 c 128,-1,78
 290.5 414 290.5 414 275 429 c 128,-1,79
 259.5 444 259.5 444 259.5 461 c 256,60,61
339.5 461 m 256,80,81
 339.5 450 339.5 450 349 440.5 c 128,-1,82
 358.5 431 358.5 431 375.5 424 c 128,-1,83
 392.5 417 392.5 417 415.5 413 c 128,-1,84
 438.5 409 438.5 409 464.5 409 c 0,85,86
 491.5 409 491.5 409 514 413 c 128,-1,87
 536.5 417 536.5 417 553.5 424 c 128,-1,88
 570.5 431 570.5 431 580 440.5 c 128,-1,89
 589.5 450 589.5 450 589.5 461 c 256,90,91
 589.5 472 589.5 472 580 481.5 c 128,-1,92
 570.5 491 570.5 491 553.5 498 c 128,-1,93
 536.5 505 536.5 505 514 509 c 128,-1,94
 491.5 513 491.5 513 464.5 513 c 0,95,96
 438.5 513 438.5 513 415.5 509 c 128,-1,97
 392.5 505 392.5 505 375.5 498 c 128,-1,98
 358.5 491 358.5 491 349 481.5 c 128,-1,99
 339.5 472 339.5 472 339.5 461 c 256,80,81
259.5 648 m 256,100,101
 259.5 665 259.5 665 275 680.5 c 128,-1,102
 290.5 696 290.5 696 318.5 707 c 128,-1,103
 346.5 718 346.5 718 384 724.5 c 128,-1,104
 421.5 731 421.5 731 464.5 731 c 0,105,106
 508.5 731 508.5 731 546 724.5 c 128,-1,107
 583.5 718 583.5 718 611 707 c 128,-1,108
 638.5 696 638.5 696 654.5 680.5 c 128,-1,109
 670.5 665 670.5 665 670.5 648 c 256,110,111
 670.5 631 670.5 631 654.5 616 c 128,-1,112
 638.5 601 638.5 601 611 589.5 c 128,-1,113
 583.5 578 583.5 578 546 571.5 c 128,-1,114
 508.5 565 508.5 565 464.5 565 c 0,115,116
 421.5 565 421.5 565 384 571.5 c 128,-1,117
 346.5 578 346.5 578 318.5 589.5 c 128,-1,118
 290.5 601 290.5 601 275 616 c 128,-1,119
 259.5 631 259.5 631 259.5 648 c 256,100,101
339.5 648 m 0,120,121
 339.5 637 339.5 637 349 627.5 c 128,-1,122
 358.5 618 358.5 618 375.5 611 c 128,-1,123
 392.5 604 392.5 604 415.5 600 c 128,-1,124
 438.5 596 438.5 596 464.5 596 c 0,125,126
 491.5 596 491.5 596 514 600 c 128,-1,127
 536.5 604 536.5 604 553.5 611 c 128,-1,128
 570.5 618 570.5 618 580 627.5 c 128,-1,129
 589.5 637 589.5 637 589.5 648 c 0,130,131
 589.5 658 589.5 658 580 668 c 128,-1,132
 570.5 678 570.5 678 553.5 685 c 128,-1,133
 536.5 692 536.5 692 514 696 c 128,-1,134
 491.5 700 491.5 700 464.5 700 c 0,135,136
 438.5 700 438.5 700 415.5 696 c 128,-1,137
 392.5 692 392.5 692 375.5 685 c 128,-1,138
 358.5 678 358.5 678 349 668 c 128,-1,139
 339.5 658 339.5 658 339.5 648 c 0,120,121
EndSplineSet
EndChar

StartChar: uni0082
Encoding: 130 130 98
Width: 930
Flags: W
LayerCount: 2
Fore
SplineSet
259.5 85 m 0,0,1
 259.5 103 259.5 103 275 118 c 128,-1,2
 290.5 133 290.5 133 318.5 144.5 c 128,-1,3
 346.5 156 346.5 156 384 162.5 c 128,-1,4
 421.5 169 421.5 169 464.5 169 c 0,5,6
 508.5 169 508.5 169 546 162.5 c 128,-1,7
 583.5 156 583.5 156 611 144.5 c 128,-1,8
 638.5 133 638.5 133 654.5 118 c 128,-1,9
 670.5 103 670.5 103 670.5 85 c 0,10,11
 670.5 68 670.5 68 654.5 53 c 128,-1,12
 638.5 38 638.5 38 611 27 c 128,-1,13
 583.5 16 583.5 16 546 9.5 c 128,-1,14
 508.5 3 508.5 3 464.5 3 c 0,15,16
 421.5 3 421.5 3 384 9.5 c 128,-1,17
 346.5 16 346.5 16 318.5 27 c 128,-1,18
 290.5 38 290.5 38 275 53 c 128,-1,19
 259.5 68 259.5 68 259.5 85 c 0,0,1
339.5 85 m 256,20,21
 339.5 74 339.5 74 349 64.5 c 128,-1,22
 358.5 55 358.5 55 375.5 48.5 c 128,-1,23
 392.5 42 392.5 42 415.5 38 c 128,-1,24
 438.5 34 438.5 34 464.5 34 c 0,25,26
 491.5 34 491.5 34 514 38 c 128,-1,27
 536.5 42 536.5 42 553.5 48.5 c 128,-1,28
 570.5 55 570.5 55 580 64.5 c 128,-1,29
 589.5 74 589.5 74 589.5 85 c 256,30,31
 589.5 96 589.5 96 580 105.5 c 128,-1,32
 570.5 115 570.5 115 553.5 122 c 128,-1,33
 536.5 129 536.5 129 514 133 c 128,-1,34
 491.5 137 491.5 137 464.5 137 c 0,35,36
 438.5 137 438.5 137 415.5 133 c 128,-1,37
 392.5 129 392.5 129 375.5 122 c 128,-1,38
 358.5 115 358.5 115 349 105.5 c 128,-1,39
 339.5 96 339.5 96 339.5 85 c 256,20,21
259.5 272 m 0,40,41
 259.5 290 259.5 290 275 305 c 128,-1,42
 290.5 320 290.5 320 318.5 331.5 c 128,-1,43
 346.5 343 346.5 343 384 349 c 128,-1,44
 421.5 355 421.5 355 464.5 355 c 0,45,46
 508.5 355 508.5 355 546 349 c 128,-1,47
 583.5 343 583.5 343 611 331.5 c 128,-1,48
 638.5 320 638.5 320 654.5 305 c 128,-1,49
 670.5 290 670.5 290 670.5 272 c 0,50,51
 670.5 255 670.5 255 654.5 240 c 128,-1,52
 638.5 225 638.5 225 611 214 c 128,-1,53
 583.5 203 583.5 203 546 196 c 128,-1,54
 508.5 189 508.5 189 464.5 189 c 0,55,56
 421.5 189 421.5 189 384 196 c 128,-1,57
 346.5 203 346.5 203 318.5 214 c 128,-1,58
 290.5 225 290.5 225 275 240 c 128,-1,59
 259.5 255 259.5 255 259.5 272 c 0,40,41
259.5 461 m 256,60,61
 259.5 478 259.5 478 275 493.5 c 128,-1,62
 290.5 509 290.5 509 318.5 520 c 128,-1,63
 346.5 531 346.5 531 384 537.5 c 128,-1,64
 421.5 544 421.5 544 464.5 544 c 0,65,66
 508.5 544 508.5 544 546 537.5 c 128,-1,67
 583.5 531 583.5 531 611 520 c 128,-1,68
 638.5 509 638.5 509 654.5 493.5 c 128,-1,69
 670.5 478 670.5 478 670.5 461 c 256,70,71
 670.5 444 670.5 444 654.5 429 c 128,-1,72
 638.5 414 638.5 414 611 402.5 c 128,-1,73
 583.5 391 583.5 391 546 384.5 c 128,-1,74
 508.5 378 508.5 378 464.5 378 c 0,75,76
 421.5 378 421.5 378 384 384.5 c 128,-1,77
 346.5 391 346.5 391 318.5 402.5 c 128,-1,78
 290.5 414 290.5 414 275 429 c 128,-1,79
 259.5 444 259.5 444 259.5 461 c 256,60,61
339.5 461 m 256,80,81
 339.5 450 339.5 450 349 440.5 c 128,-1,82
 358.5 431 358.5 431 375.5 424 c 128,-1,83
 392.5 417 392.5 417 415.5 413 c 128,-1,84
 438.5 409 438.5 409 464.5 409 c 0,85,86
 491.5 409 491.5 409 514 413 c 128,-1,87
 536.5 417 536.5 417 553.5 424 c 128,-1,88
 570.5 431 570.5 431 580 440.5 c 128,-1,89
 589.5 450 589.5 450 589.5 461 c 256,90,91
 589.5 472 589.5 472 580 481.5 c 128,-1,92
 570.5 491 570.5 491 553.5 498 c 128,-1,93
 536.5 505 536.5 505 514 509 c 128,-1,94
 491.5 513 491.5 513 464.5 513 c 0,95,96
 438.5 513 438.5 513 415.5 509 c 128,-1,97
 392.5 505 392.5 505 375.5 498 c 128,-1,98
 358.5 491 358.5 491 349 481.5 c 128,-1,99
 339.5 472 339.5 472 339.5 461 c 256,80,81
259.5 648 m 256,100,101
 259.5 665 259.5 665 275 680.5 c 128,-1,102
 290.5 696 290.5 696 318.5 707 c 128,-1,103
 346.5 718 346.5 718 384 724.5 c 128,-1,104
 421.5 731 421.5 731 464.5 731 c 0,105,106
 508.5 731 508.5 731 546 724.5 c 128,-1,107
 583.5 718 583.5 718 611 707 c 128,-1,108
 638.5 696 638.5 696 654.5 680.5 c 128,-1,109
 670.5 665 670.5 665 670.5 648 c 256,110,111
 670.5 631 670.5 631 654.5 616 c 128,-1,112
 638.5 601 638.5 601 611 589.5 c 128,-1,113
 583.5 578 583.5 578 546 571.5 c 128,-1,114
 508.5 565 508.5 565 464.5 565 c 0,115,116
 421.5 565 421.5 565 384 571.5 c 128,-1,117
 346.5 578 346.5 578 318.5 589.5 c 128,-1,118
 290.5 601 290.5 601 275 616 c 128,-1,119
 259.5 631 259.5 631 259.5 648 c 256,100,101
339.5 648 m 0,120,121
 339.5 637 339.5 637 349 627.5 c 128,-1,122
 358.5 618 358.5 618 375.5 611 c 128,-1,123
 392.5 604 392.5 604 415.5 600 c 128,-1,124
 438.5 596 438.5 596 464.5 596 c 0,125,126
 491.5 596 491.5 596 514 600 c 128,-1,127
 536.5 604 536.5 604 553.5 611 c 128,-1,128
 570.5 618 570.5 618 580 627.5 c 128,-1,129
 589.5 637 589.5 637 589.5 648 c 0,130,131
 589.5 658 589.5 658 580 668 c 128,-1,132
 570.5 678 570.5 678 553.5 685 c 128,-1,133
 536.5 692 536.5 692 514 696 c 128,-1,134
 491.5 700 491.5 700 464.5 700 c 0,135,136
 438.5 700 438.5 700 415.5 696 c 128,-1,137
 392.5 692 392.5 692 375.5 685 c 128,-1,138
 358.5 678 358.5 678 349 668 c 128,-1,139
 339.5 658 339.5 658 339.5 648 c 0,120,121
EndSplineSet
EndChar

StartChar: uni0083
Encoding: 131 131 99
Width: 930
Flags: W
LayerCount: 2
Fore
SplineSet
259.5 85 m 0,0,1
 259.5 103 259.5 103 275 118 c 128,-1,2
 290.5 133 290.5 133 318.5 144.5 c 128,-1,3
 346.5 156 346.5 156 384 162.5 c 128,-1,4
 421.5 169 421.5 169 464.5 169 c 0,5,6
 508.5 169 508.5 169 546 162.5 c 128,-1,7
 583.5 156 583.5 156 611 144.5 c 128,-1,8
 638.5 133 638.5 133 654.5 118 c 128,-1,9
 670.5 103 670.5 103 670.5 85 c 0,10,11
 670.5 68 670.5 68 654.5 53 c 128,-1,12
 638.5 38 638.5 38 611 27 c 128,-1,13
 583.5 16 583.5 16 546 9.5 c 128,-1,14
 508.5 3 508.5 3 464.5 3 c 0,15,16
 421.5 3 421.5 3 384 9.5 c 128,-1,17
 346.5 16 346.5 16 318.5 27 c 128,-1,18
 290.5 38 290.5 38 275 53 c 128,-1,19
 259.5 68 259.5 68 259.5 85 c 0,0,1
259.5 272 m 0,20,21
 259.5 290 259.5 290 275 305 c 128,-1,22
 290.5 320 290.5 320 318.5 331.5 c 128,-1,23
 346.5 343 346.5 343 384 349 c 128,-1,24
 421.5 355 421.5 355 464.5 355 c 0,25,26
 508.5 355 508.5 355 546 349 c 128,-1,27
 583.5 343 583.5 343 611 331.5 c 128,-1,28
 638.5 320 638.5 320 654.5 305 c 128,-1,29
 670.5 290 670.5 290 670.5 272 c 0,30,31
 670.5 255 670.5 255 654.5 240 c 128,-1,32
 638.5 225 638.5 225 611 214 c 128,-1,33
 583.5 203 583.5 203 546 196 c 128,-1,34
 508.5 189 508.5 189 464.5 189 c 0,35,36
 421.5 189 421.5 189 384 196 c 128,-1,37
 346.5 203 346.5 203 318.5 214 c 128,-1,38
 290.5 225 290.5 225 275 240 c 128,-1,39
 259.5 255 259.5 255 259.5 272 c 0,20,21
259.5 461 m 256,40,41
 259.5 478 259.5 478 275 493.5 c 128,-1,42
 290.5 509 290.5 509 318.5 520 c 128,-1,43
 346.5 531 346.5 531 384 537.5 c 128,-1,44
 421.5 544 421.5 544 464.5 544 c 0,45,46
 508.5 544 508.5 544 546 537.5 c 128,-1,47
 583.5 531 583.5 531 611 520 c 128,-1,48
 638.5 509 638.5 509 654.5 493.5 c 128,-1,49
 670.5 478 670.5 478 670.5 461 c 256,50,51
 670.5 444 670.5 444 654.5 429 c 128,-1,52
 638.5 414 638.5 414 611 402.5 c 128,-1,53
 583.5 391 583.5 391 546 384.5 c 128,-1,54
 508.5 378 508.5 378 464.5 378 c 0,55,56
 421.5 378 421.5 378 384 384.5 c 128,-1,57
 346.5 391 346.5 391 318.5 402.5 c 128,-1,58
 290.5 414 290.5 414 275 429 c 128,-1,59
 259.5 444 259.5 444 259.5 461 c 256,40,41
339.5 461 m 256,60,61
 339.5 450 339.5 450 349 440.5 c 128,-1,62
 358.5 431 358.5 431 375.5 424 c 128,-1,63
 392.5 417 392.5 417 415.5 413 c 128,-1,64
 438.5 409 438.5 409 464.5 409 c 0,65,66
 491.5 409 491.5 409 514 413 c 128,-1,67
 536.5 417 536.5 417 553.5 424 c 128,-1,68
 570.5 431 570.5 431 580 440.5 c 128,-1,69
 589.5 450 589.5 450 589.5 461 c 256,70,71
 589.5 472 589.5 472 580 481.5 c 128,-1,72
 570.5 491 570.5 491 553.5 498 c 128,-1,73
 536.5 505 536.5 505 514 509 c 128,-1,74
 491.5 513 491.5 513 464.5 513 c 0,75,76
 438.5 513 438.5 513 415.5 509 c 128,-1,77
 392.5 505 392.5 505 375.5 498 c 128,-1,78
 358.5 491 358.5 491 349 481.5 c 128,-1,79
 339.5 472 339.5 472 339.5 461 c 256,60,61
259.5 648 m 256,80,81
 259.5 665 259.5 665 275 680.5 c 128,-1,82
 290.5 696 290.5 696 318.5 707 c 128,-1,83
 346.5 718 346.5 718 384 724.5 c 128,-1,84
 421.5 731 421.5 731 464.5 731 c 0,85,86
 508.5 731 508.5 731 546 724.5 c 128,-1,87
 583.5 718 583.5 718 611 707 c 128,-1,88
 638.5 696 638.5 696 654.5 680.5 c 128,-1,89
 670.5 665 670.5 665 670.5 648 c 256,90,91
 670.5 631 670.5 631 654.5 616 c 128,-1,92
 638.5 601 638.5 601 611 589.5 c 128,-1,93
 583.5 578 583.5 578 546 571.5 c 128,-1,94
 508.5 565 508.5 565 464.5 565 c 0,95,96
 421.5 565 421.5 565 384 571.5 c 128,-1,97
 346.5 578 346.5 578 318.5 589.5 c 128,-1,98
 290.5 601 290.5 601 275 616 c 128,-1,99
 259.5 631 259.5 631 259.5 648 c 256,80,81
339.5 648 m 0,100,101
 339.5 637 339.5 637 349 627.5 c 128,-1,102
 358.5 618 358.5 618 375.5 611 c 128,-1,103
 392.5 604 392.5 604 415.5 600 c 128,-1,104
 438.5 596 438.5 596 464.5 596 c 0,105,106
 491.5 596 491.5 596 514 600 c 128,-1,107
 536.5 604 536.5 604 553.5 611 c 128,-1,108
 570.5 618 570.5 618 580 627.5 c 128,-1,109
 589.5 637 589.5 637 589.5 648 c 0,110,111
 589.5 658 589.5 658 580 668 c 128,-1,112
 570.5 678 570.5 678 553.5 685 c 128,-1,113
 536.5 692 536.5 692 514 696 c 128,-1,114
 491.5 700 491.5 700 464.5 700 c 0,115,116
 438.5 700 438.5 700 415.5 696 c 128,-1,117
 392.5 692 392.5 692 375.5 685 c 128,-1,118
 358.5 678 358.5 678 349 668 c 128,-1,119
 339.5 658 339.5 658 339.5 648 c 0,100,101
EndSplineSet
EndChar

StartChar: uni0084
Encoding: 132 132 100
Width: 930
Flags: W
LayerCount: 2
Fore
SplineSet
259.5 85 m 0,0,1
 259.5 103 259.5 103 275 118 c 128,-1,2
 290.5 133 290.5 133 318.5 144.5 c 128,-1,3
 346.5 156 346.5 156 384 162.5 c 128,-1,4
 421.5 169 421.5 169 464.5 169 c 0,5,6
 508.5 169 508.5 169 546 162.5 c 128,-1,7
 583.5 156 583.5 156 611 144.5 c 128,-1,8
 638.5 133 638.5 133 654.5 118 c 128,-1,9
 670.5 103 670.5 103 670.5 85 c 0,10,11
 670.5 68 670.5 68 654.5 53 c 128,-1,12
 638.5 38 638.5 38 611 27 c 128,-1,13
 583.5 16 583.5 16 546 9.5 c 128,-1,14
 508.5 3 508.5 3 464.5 3 c 0,15,16
 421.5 3 421.5 3 384 9.5 c 128,-1,17
 346.5 16 346.5 16 318.5 27 c 128,-1,18
 290.5 38 290.5 38 275 53 c 128,-1,19
 259.5 68 259.5 68 259.5 85 c 0,0,1
339.5 85 m 256,20,21
 339.5 74 339.5 74 349 64.5 c 128,-1,22
 358.5 55 358.5 55 375.5 48.5 c 128,-1,23
 392.5 42 392.5 42 415.5 38 c 128,-1,24
 438.5 34 438.5 34 464.5 34 c 0,25,26
 491.5 34 491.5 34 514 38 c 128,-1,27
 536.5 42 536.5 42 553.5 48.5 c 128,-1,28
 570.5 55 570.5 55 580 64.5 c 128,-1,29
 589.5 74 589.5 74 589.5 85 c 256,30,31
 589.5 96 589.5 96 580 105.5 c 128,-1,32
 570.5 115 570.5 115 553.5 122 c 128,-1,33
 536.5 129 536.5 129 514 133 c 128,-1,34
 491.5 137 491.5 137 464.5 137 c 0,35,36
 438.5 137 438.5 137 415.5 133 c 128,-1,37
 392.5 129 392.5 129 375.5 122 c 128,-1,38
 358.5 115 358.5 115 349 105.5 c 128,-1,39
 339.5 96 339.5 96 339.5 85 c 256,20,21
259.5 272 m 0,40,41
 259.5 290 259.5 290 275 305 c 128,-1,42
 290.5 320 290.5 320 318.5 331.5 c 128,-1,43
 346.5 343 346.5 343 384 349 c 128,-1,44
 421.5 355 421.5 355 464.5 355 c 0,45,46
 508.5 355 508.5 355 546 349 c 128,-1,47
 583.5 343 583.5 343 611 331.5 c 128,-1,48
 638.5 320 638.5 320 654.5 305 c 128,-1,49
 670.5 290 670.5 290 670.5 272 c 0,50,51
 670.5 255 670.5 255 654.5 240 c 128,-1,52
 638.5 225 638.5 225 611 214 c 128,-1,53
 583.5 203 583.5 203 546 196 c 128,-1,54
 508.5 189 508.5 189 464.5 189 c 0,55,56
 421.5 189 421.5 189 384 196 c 128,-1,57
 346.5 203 346.5 203 318.5 214 c 128,-1,58
 290.5 225 290.5 225 275 240 c 128,-1,59
 259.5 255 259.5 255 259.5 272 c 0,40,41
339.5 272 m 256,60,61
 339.5 261 339.5 261 349 251.5 c 128,-1,62
 358.5 242 358.5 242 375.5 235 c 128,-1,63
 392.5 228 392.5 228 415.5 224 c 128,-1,64
 438.5 220 438.5 220 464.5 220 c 0,65,66
 491.5 220 491.5 220 514 224 c 128,-1,67
 536.5 228 536.5 228 553.5 235 c 128,-1,68
 570.5 242 570.5 242 580 251.5 c 128,-1,69
 589.5 261 589.5 261 589.5 272 c 256,70,71
 589.5 283 589.5 283 580 292.5 c 128,-1,72
 570.5 302 570.5 302 553.5 309 c 128,-1,73
 536.5 316 536.5 316 514 320 c 128,-1,74
 491.5 324 491.5 324 464.5 324 c 0,75,76
 438.5 324 438.5 324 415.5 320 c 128,-1,77
 392.5 316 392.5 316 375.5 309 c 128,-1,78
 358.5 302 358.5 302 349 292.5 c 128,-1,79
 339.5 283 339.5 283 339.5 272 c 256,60,61
259.5 461 m 256,80,81
 259.5 478 259.5 478 275 493.5 c 128,-1,82
 290.5 509 290.5 509 318.5 520 c 128,-1,83
 346.5 531 346.5 531 384 537.5 c 128,-1,84
 421.5 544 421.5 544 464.5 544 c 0,85,86
 508.5 544 508.5 544 546 537.5 c 128,-1,87
 583.5 531 583.5 531 611 520 c 128,-1,88
 638.5 509 638.5 509 654.5 493.5 c 128,-1,89
 670.5 478 670.5 478 670.5 461 c 256,90,91
 670.5 444 670.5 444 654.5 429 c 128,-1,92
 638.5 414 638.5 414 611 402.5 c 128,-1,93
 583.5 391 583.5 391 546 384.5 c 128,-1,94
 508.5 378 508.5 378 464.5 378 c 0,95,96
 421.5 378 421.5 378 384 384.5 c 128,-1,97
 346.5 391 346.5 391 318.5 402.5 c 128,-1,98
 290.5 414 290.5 414 275 429 c 128,-1,99
 259.5 444 259.5 444 259.5 461 c 256,80,81
259.5 648 m 256,100,101
 259.5 665 259.5 665 275 680.5 c 128,-1,102
 290.5 696 290.5 696 318.5 707 c 128,-1,103
 346.5 718 346.5 718 384 724.5 c 128,-1,104
 421.5 731 421.5 731 464.5 731 c 0,105,106
 508.5 731 508.5 731 546 724.5 c 128,-1,107
 583.5 718 583.5 718 611 707 c 128,-1,108
 638.5 696 638.5 696 654.5 680.5 c 128,-1,109
 670.5 665 670.5 665 670.5 648 c 256,110,111
 670.5 631 670.5 631 654.5 616 c 128,-1,112
 638.5 601 638.5 601 611 589.5 c 128,-1,113
 583.5 578 583.5 578 546 571.5 c 128,-1,114
 508.5 565 508.5 565 464.5 565 c 0,115,116
 421.5 565 421.5 565 384 571.5 c 128,-1,117
 346.5 578 346.5 578 318.5 589.5 c 128,-1,118
 290.5 601 290.5 601 275 616 c 128,-1,119
 259.5 631 259.5 631 259.5 648 c 256,100,101
339.5 648 m 0,120,121
 339.5 637 339.5 637 349 627.5 c 128,-1,122
 358.5 618 358.5 618 375.5 611 c 128,-1,123
 392.5 604 392.5 604 415.5 600 c 128,-1,124
 438.5 596 438.5 596 464.5 596 c 0,125,126
 491.5 596 491.5 596 514 600 c 128,-1,127
 536.5 604 536.5 604 553.5 611 c 128,-1,128
 570.5 618 570.5 618 580 627.5 c 128,-1,129
 589.5 637 589.5 637 589.5 648 c 0,130,131
 589.5 658 589.5 658 580 668 c 128,-1,132
 570.5 678 570.5 678 553.5 685 c 128,-1,133
 536.5 692 536.5 692 514 696 c 128,-1,134
 491.5 700 491.5 700 464.5 700 c 0,135,136
 438.5 700 438.5 700 415.5 696 c 128,-1,137
 392.5 692 392.5 692 375.5 685 c 128,-1,138
 358.5 678 358.5 678 349 668 c 128,-1,139
 339.5 658 339.5 658 339.5 648 c 0,120,121
EndSplineSet
EndChar

StartChar: uni0085
Encoding: 133 133 101
Width: 930
Flags: W
LayerCount: 2
Fore
SplineSet
259.5 85 m 0,0,1
 259.5 103 259.5 103 275 118 c 128,-1,2
 290.5 133 290.5 133 318.5 144.5 c 128,-1,3
 346.5 156 346.5 156 384 162.5 c 128,-1,4
 421.5 169 421.5 169 464.5 169 c 0,5,6
 508.5 169 508.5 169 546 162.5 c 128,-1,7
 583.5 156 583.5 156 611 144.5 c 128,-1,8
 638.5 133 638.5 133 654.5 118 c 128,-1,9
 670.5 103 670.5 103 670.5 85 c 0,10,11
 670.5 68 670.5 68 654.5 53 c 128,-1,12
 638.5 38 638.5 38 611 27 c 128,-1,13
 583.5 16 583.5 16 546 9.5 c 128,-1,14
 508.5 3 508.5 3 464.5 3 c 0,15,16
 421.5 3 421.5 3 384 9.5 c 128,-1,17
 346.5 16 346.5 16 318.5 27 c 128,-1,18
 290.5 38 290.5 38 275 53 c 128,-1,19
 259.5 68 259.5 68 259.5 85 c 0,0,1
259.5 272 m 0,20,21
 259.5 290 259.5 290 275 305 c 128,-1,22
 290.5 320 290.5 320 318.5 331.5 c 128,-1,23
 346.5 343 346.5 343 384 349 c 128,-1,24
 421.5 355 421.5 355 464.5 355 c 0,25,26
 508.5 355 508.5 355 546 349 c 128,-1,27
 583.5 343 583.5 343 611 331.5 c 128,-1,28
 638.5 320 638.5 320 654.5 305 c 128,-1,29
 670.5 290 670.5 290 670.5 272 c 0,30,31
 670.5 255 670.5 255 654.5 240 c 128,-1,32
 638.5 225 638.5 225 611 214 c 128,-1,33
 583.5 203 583.5 203 546 196 c 128,-1,34
 508.5 189 508.5 189 464.5 189 c 0,35,36
 421.5 189 421.5 189 384 196 c 128,-1,37
 346.5 203 346.5 203 318.5 214 c 128,-1,38
 290.5 225 290.5 225 275 240 c 128,-1,39
 259.5 255 259.5 255 259.5 272 c 0,20,21
339.5 272 m 256,40,41
 339.5 261 339.5 261 349 251.5 c 128,-1,42
 358.5 242 358.5 242 375.5 235 c 128,-1,43
 392.5 228 392.5 228 415.5 224 c 128,-1,44
 438.5 220 438.5 220 464.5 220 c 0,45,46
 491.5 220 491.5 220 514 224 c 128,-1,47
 536.5 228 536.5 228 553.5 235 c 128,-1,48
 570.5 242 570.5 242 580 251.5 c 128,-1,49
 589.5 261 589.5 261 589.5 272 c 256,50,51
 589.5 283 589.5 283 580 292.5 c 128,-1,52
 570.5 302 570.5 302 553.5 309 c 128,-1,53
 536.5 316 536.5 316 514 320 c 128,-1,54
 491.5 324 491.5 324 464.5 324 c 0,55,56
 438.5 324 438.5 324 415.5 320 c 128,-1,57
 392.5 316 392.5 316 375.5 309 c 128,-1,58
 358.5 302 358.5 302 349 292.5 c 128,-1,59
 339.5 283 339.5 283 339.5 272 c 256,40,41
259.5 461 m 256,60,61
 259.5 478 259.5 478 275 493.5 c 128,-1,62
 290.5 509 290.5 509 318.5 520 c 128,-1,63
 346.5 531 346.5 531 384 537.5 c 128,-1,64
 421.5 544 421.5 544 464.5 544 c 0,65,66
 508.5 544 508.5 544 546 537.5 c 128,-1,67
 583.5 531 583.5 531 611 520 c 128,-1,68
 638.5 509 638.5 509 654.5 493.5 c 128,-1,69
 670.5 478 670.5 478 670.5 461 c 256,70,71
 670.5 444 670.5 444 654.5 429 c 128,-1,72
 638.5 414 638.5 414 611 402.5 c 128,-1,73
 583.5 391 583.5 391 546 384.5 c 128,-1,74
 508.5 378 508.5 378 464.5 378 c 0,75,76
 421.5 378 421.5 378 384 384.5 c 128,-1,77
 346.5 391 346.5 391 318.5 402.5 c 128,-1,78
 290.5 414 290.5 414 275 429 c 128,-1,79
 259.5 444 259.5 444 259.5 461 c 256,60,61
259.5 648 m 256,80,81
 259.5 665 259.5 665 275 680.5 c 128,-1,82
 290.5 696 290.5 696 318.5 707 c 128,-1,83
 346.5 718 346.5 718 384 724.5 c 128,-1,84
 421.5 731 421.5 731 464.5 731 c 0,85,86
 508.5 731 508.5 731 546 724.5 c 128,-1,87
 583.5 718 583.5 718 611 707 c 128,-1,88
 638.5 696 638.5 696 654.5 680.5 c 128,-1,89
 670.5 665 670.5 665 670.5 648 c 256,90,91
 670.5 631 670.5 631 654.5 616 c 128,-1,92
 638.5 601 638.5 601 611 589.5 c 128,-1,93
 583.5 578 583.5 578 546 571.5 c 128,-1,94
 508.5 565 508.5 565 464.5 565 c 0,95,96
 421.5 565 421.5 565 384 571.5 c 128,-1,97
 346.5 578 346.5 578 318.5 589.5 c 128,-1,98
 290.5 601 290.5 601 275 616 c 128,-1,99
 259.5 631 259.5 631 259.5 648 c 256,80,81
339.5 648 m 0,100,101
 339.5 637 339.5 637 349 627.5 c 128,-1,102
 358.5 618 358.5 618 375.5 611 c 128,-1,103
 392.5 604 392.5 604 415.5 600 c 128,-1,104
 438.5 596 438.5 596 464.5 596 c 0,105,106
 491.5 596 491.5 596 514 600 c 128,-1,107
 536.5 604 536.5 604 553.5 611 c 128,-1,108
 570.5 618 570.5 618 580 627.5 c 128,-1,109
 589.5 637 589.5 637 589.5 648 c 0,110,111
 589.5 658 589.5 658 580 668 c 128,-1,112
 570.5 678 570.5 678 553.5 685 c 128,-1,113
 536.5 692 536.5 692 514 696 c 128,-1,114
 491.5 700 491.5 700 464.5 700 c 0,115,116
 438.5 700 438.5 700 415.5 696 c 128,-1,117
 392.5 692 392.5 692 375.5 685 c 128,-1,118
 358.5 678 358.5 678 349 668 c 128,-1,119
 339.5 658 339.5 658 339.5 648 c 0,100,101
EndSplineSet
EndChar

StartChar: uni0086
Encoding: 134 134 102
Width: 930
Flags: W
LayerCount: 2
Fore
SplineSet
259.5 85 m 0,0,1
 259.5 103 259.5 103 275 118 c 128,-1,2
 290.5 133 290.5 133 318.5 144.5 c 128,-1,3
 346.5 156 346.5 156 384 162.5 c 128,-1,4
 421.5 169 421.5 169 464.5 169 c 0,5,6
 508.5 169 508.5 169 546 162.5 c 128,-1,7
 583.5 156 583.5 156 611 144.5 c 128,-1,8
 638.5 133 638.5 133 654.5 118 c 128,-1,9
 670.5 103 670.5 103 670.5 85 c 0,10,11
 670.5 68 670.5 68 654.5 53 c 128,-1,12
 638.5 38 638.5 38 611 27 c 128,-1,13
 583.5 16 583.5 16 546 9.5 c 128,-1,14
 508.5 3 508.5 3 464.5 3 c 0,15,16
 421.5 3 421.5 3 384 9.5 c 128,-1,17
 346.5 16 346.5 16 318.5 27 c 128,-1,18
 290.5 38 290.5 38 275 53 c 128,-1,19
 259.5 68 259.5 68 259.5 85 c 0,0,1
339.5 85 m 256,20,21
 339.5 74 339.5 74 349 64.5 c 128,-1,22
 358.5 55 358.5 55 375.5 48.5 c 128,-1,23
 392.5 42 392.5 42 415.5 38 c 128,-1,24
 438.5 34 438.5 34 464.5 34 c 0,25,26
 491.5 34 491.5 34 514 38 c 128,-1,27
 536.5 42 536.5 42 553.5 48.5 c 128,-1,28
 570.5 55 570.5 55 580 64.5 c 128,-1,29
 589.5 74 589.5 74 589.5 85 c 256,30,31
 589.5 96 589.5 96 580 105.5 c 128,-1,32
 570.5 115 570.5 115 553.5 122 c 128,-1,33
 536.5 129 536.5 129 514 133 c 128,-1,34
 491.5 137 491.5 137 464.5 137 c 0,35,36
 438.5 137 438.5 137 415.5 133 c 128,-1,37
 392.5 129 392.5 129 375.5 122 c 128,-1,38
 358.5 115 358.5 115 349 105.5 c 128,-1,39
 339.5 96 339.5 96 339.5 85 c 256,20,21
259.5 272 m 0,40,41
 259.5 290 259.5 290 275 305 c 128,-1,42
 290.5 320 290.5 320 318.5 331.5 c 128,-1,43
 346.5 343 346.5 343 384 349 c 128,-1,44
 421.5 355 421.5 355 464.5 355 c 0,45,46
 508.5 355 508.5 355 546 349 c 128,-1,47
 583.5 343 583.5 343 611 331.5 c 128,-1,48
 638.5 320 638.5 320 654.5 305 c 128,-1,49
 670.5 290 670.5 290 670.5 272 c 0,50,51
 670.5 255 670.5 255 654.5 240 c 128,-1,52
 638.5 225 638.5 225 611 214 c 128,-1,53
 583.5 203 583.5 203 546 196 c 128,-1,54
 508.5 189 508.5 189 464.5 189 c 0,55,56
 421.5 189 421.5 189 384 196 c 128,-1,57
 346.5 203 346.5 203 318.5 214 c 128,-1,58
 290.5 225 290.5 225 275 240 c 128,-1,59
 259.5 255 259.5 255 259.5 272 c 0,40,41
259.5 461 m 256,60,61
 259.5 478 259.5 478 275 493.5 c 128,-1,62
 290.5 509 290.5 509 318.5 520 c 128,-1,63
 346.5 531 346.5 531 384 537.5 c 128,-1,64
 421.5 544 421.5 544 464.5 544 c 0,65,66
 508.5 544 508.5 544 546 537.5 c 128,-1,67
 583.5 531 583.5 531 611 520 c 128,-1,68
 638.5 509 638.5 509 654.5 493.5 c 128,-1,69
 670.5 478 670.5 478 670.5 461 c 256,70,71
 670.5 444 670.5 444 654.5 429 c 128,-1,72
 638.5 414 638.5 414 611 402.5 c 128,-1,73
 583.5 391 583.5 391 546 384.5 c 128,-1,74
 508.5 378 508.5 378 464.5 378 c 0,75,76
 421.5 378 421.5 378 384 384.5 c 128,-1,77
 346.5 391 346.5 391 318.5 402.5 c 128,-1,78
 290.5 414 290.5 414 275 429 c 128,-1,79
 259.5 444 259.5 444 259.5 461 c 256,60,61
259.5 648 m 256,80,81
 259.5 665 259.5 665 275 680.5 c 128,-1,82
 290.5 696 290.5 696 318.5 707 c 128,-1,83
 346.5 718 346.5 718 384 724.5 c 128,-1,84
 421.5 731 421.5 731 464.5 731 c 0,85,86
 508.5 731 508.5 731 546 724.5 c 128,-1,87
 583.5 718 583.5 718 611 707 c 128,-1,88
 638.5 696 638.5 696 654.5 680.5 c 128,-1,89
 670.5 665 670.5 665 670.5 648 c 256,90,91
 670.5 631 670.5 631 654.5 616 c 128,-1,92
 638.5 601 638.5 601 611 589.5 c 128,-1,93
 583.5 578 583.5 578 546 571.5 c 128,-1,94
 508.5 565 508.5 565 464.5 565 c 0,95,96
 421.5 565 421.5 565 384 571.5 c 128,-1,97
 346.5 578 346.5 578 318.5 589.5 c 128,-1,98
 290.5 601 290.5 601 275 616 c 128,-1,99
 259.5 631 259.5 631 259.5 648 c 256,80,81
339.5 648 m 0,100,101
 339.5 637 339.5 637 349 627.5 c 128,-1,102
 358.5 618 358.5 618 375.5 611 c 128,-1,103
 392.5 604 392.5 604 415.5 600 c 128,-1,104
 438.5 596 438.5 596 464.5 596 c 0,105,106
 491.5 596 491.5 596 514 600 c 128,-1,107
 536.5 604 536.5 604 553.5 611 c 128,-1,108
 570.5 618 570.5 618 580 627.5 c 128,-1,109
 589.5 637 589.5 637 589.5 648 c 0,110,111
 589.5 658 589.5 658 580 668 c 128,-1,112
 570.5 678 570.5 678 553.5 685 c 128,-1,113
 536.5 692 536.5 692 514 696 c 128,-1,114
 491.5 700 491.5 700 464.5 700 c 0,115,116
 438.5 700 438.5 700 415.5 696 c 128,-1,117
 392.5 692 392.5 692 375.5 685 c 128,-1,118
 358.5 678 358.5 678 349 668 c 128,-1,119
 339.5 658 339.5 658 339.5 648 c 0,100,101
EndSplineSet
EndChar

StartChar: uni0087
Encoding: 135 135 103
Width: 930
Flags: W
LayerCount: 2
Fore
SplineSet
259.5 85 m 0,0,1
 259.5 103 259.5 103 275 118 c 128,-1,2
 290.5 133 290.5 133 318.5 144.5 c 128,-1,3
 346.5 156 346.5 156 384 162.5 c 128,-1,4
 421.5 169 421.5 169 464.5 169 c 0,5,6
 508.5 169 508.5 169 546 162.5 c 128,-1,7
 583.5 156 583.5 156 611 144.5 c 128,-1,8
 638.5 133 638.5 133 654.5 118 c 128,-1,9
 670.5 103 670.5 103 670.5 85 c 0,10,11
 670.5 68 670.5 68 654.5 53 c 128,-1,12
 638.5 38 638.5 38 611 27 c 128,-1,13
 583.5 16 583.5 16 546 9.5 c 128,-1,14
 508.5 3 508.5 3 464.5 3 c 0,15,16
 421.5 3 421.5 3 384 9.5 c 128,-1,17
 346.5 16 346.5 16 318.5 27 c 128,-1,18
 290.5 38 290.5 38 275 53 c 128,-1,19
 259.5 68 259.5 68 259.5 85 c 0,0,1
259.5 272 m 0,20,21
 259.5 290 259.5 290 275 305 c 128,-1,22
 290.5 320 290.5 320 318.5 331.5 c 128,-1,23
 346.5 343 346.5 343 384 349 c 128,-1,24
 421.5 355 421.5 355 464.5 355 c 0,25,26
 508.5 355 508.5 355 546 349 c 128,-1,27
 583.5 343 583.5 343 611 331.5 c 128,-1,28
 638.5 320 638.5 320 654.5 305 c 128,-1,29
 670.5 290 670.5 290 670.5 272 c 0,30,31
 670.5 255 670.5 255 654.5 240 c 128,-1,32
 638.5 225 638.5 225 611 214 c 128,-1,33
 583.5 203 583.5 203 546 196 c 128,-1,34
 508.5 189 508.5 189 464.5 189 c 0,35,36
 421.5 189 421.5 189 384 196 c 128,-1,37
 346.5 203 346.5 203 318.5 214 c 128,-1,38
 290.5 225 290.5 225 275 240 c 128,-1,39
 259.5 255 259.5 255 259.5 272 c 0,20,21
259.5 461 m 256,40,41
 259.5 478 259.5 478 275 493.5 c 128,-1,42
 290.5 509 290.5 509 318.5 520 c 128,-1,43
 346.5 531 346.5 531 384 537.5 c 128,-1,44
 421.5 544 421.5 544 464.5 544 c 0,45,46
 508.5 544 508.5 544 546 537.5 c 128,-1,47
 583.5 531 583.5 531 611 520 c 128,-1,48
 638.5 509 638.5 509 654.5 493.5 c 128,-1,49
 670.5 478 670.5 478 670.5 461 c 256,50,51
 670.5 444 670.5 444 654.5 429 c 128,-1,52
 638.5 414 638.5 414 611 402.5 c 128,-1,53
 583.5 391 583.5 391 546 384.5 c 128,-1,54
 508.5 378 508.5 378 464.5 378 c 0,55,56
 421.5 378 421.5 378 384 384.5 c 128,-1,57
 346.5 391 346.5 391 318.5 402.5 c 128,-1,58
 290.5 414 290.5 414 275 429 c 128,-1,59
 259.5 444 259.5 444 259.5 461 c 256,40,41
259.5 648 m 256,60,61
 259.5 665 259.5 665 275 680.5 c 128,-1,62
 290.5 696 290.5 696 318.5 707 c 128,-1,63
 346.5 718 346.5 718 384 724.5 c 128,-1,64
 421.5 731 421.5 731 464.5 731 c 0,65,66
 508.5 731 508.5 731 546 724.5 c 128,-1,67
 583.5 718 583.5 718 611 707 c 128,-1,68
 638.5 696 638.5 696 654.5 680.5 c 128,-1,69
 670.5 665 670.5 665 670.5 648 c 256,70,71
 670.5 631 670.5 631 654.5 616 c 128,-1,72
 638.5 601 638.5 601 611 589.5 c 128,-1,73
 583.5 578 583.5 578 546 571.5 c 128,-1,74
 508.5 565 508.5 565 464.5 565 c 0,75,76
 421.5 565 421.5 565 384 571.5 c 128,-1,77
 346.5 578 346.5 578 318.5 589.5 c 128,-1,78
 290.5 601 290.5 601 275 616 c 128,-1,79
 259.5 631 259.5 631 259.5 648 c 256,60,61
339.5 648 m 0,80,81
 339.5 637 339.5 637 349 627.5 c 128,-1,82
 358.5 618 358.5 618 375.5 611 c 128,-1,83
 392.5 604 392.5 604 415.5 600 c 128,-1,84
 438.5 596 438.5 596 464.5 596 c 0,85,86
 491.5 596 491.5 596 514 600 c 128,-1,87
 536.5 604 536.5 604 553.5 611 c 128,-1,88
 570.5 618 570.5 618 580 627.5 c 128,-1,89
 589.5 637 589.5 637 589.5 648 c 0,90,91
 589.5 658 589.5 658 580 668 c 128,-1,92
 570.5 678 570.5 678 553.5 685 c 128,-1,93
 536.5 692 536.5 692 514 696 c 128,-1,94
 491.5 700 491.5 700 464.5 700 c 0,95,96
 438.5 700 438.5 700 415.5 696 c 128,-1,97
 392.5 692 392.5 692 375.5 685 c 128,-1,98
 358.5 678 358.5 678 349 668 c 128,-1,99
 339.5 658 339.5 658 339.5 648 c 0,80,81
EndSplineSet
EndChar

StartChar: uni0088
Encoding: 136 136 104
Width: 930
Flags: W
LayerCount: 2
Fore
SplineSet
259.5 85 m 0,0,1
 259.5 103 259.5 103 275 118 c 128,-1,2
 290.5 133 290.5 133 318.5 144.5 c 128,-1,3
 346.5 156 346.5 156 384 162.5 c 128,-1,4
 421.5 169 421.5 169 464.5 169 c 0,5,6
 508.5 169 508.5 169 546 162.5 c 128,-1,7
 583.5 156 583.5 156 611 144.5 c 128,-1,8
 638.5 133 638.5 133 654.5 118 c 128,-1,9
 670.5 103 670.5 103 670.5 85 c 0,10,11
 670.5 68 670.5 68 654.5 53 c 128,-1,12
 638.5 38 638.5 38 611 27 c 128,-1,13
 583.5 16 583.5 16 546 9.5 c 128,-1,14
 508.5 3 508.5 3 464.5 3 c 0,15,16
 421.5 3 421.5 3 384 9.5 c 128,-1,17
 346.5 16 346.5 16 318.5 27 c 128,-1,18
 290.5 38 290.5 38 275 53 c 128,-1,19
 259.5 68 259.5 68 259.5 85 c 0,0,1
339.5 85 m 256,20,21
 339.5 74 339.5 74 349 64.5 c 128,-1,22
 358.5 55 358.5 55 375.5 48.5 c 128,-1,23
 392.5 42 392.5 42 415.5 38 c 128,-1,24
 438.5 34 438.5 34 464.5 34 c 0,25,26
 491.5 34 491.5 34 514 38 c 128,-1,27
 536.5 42 536.5 42 553.5 48.5 c 128,-1,28
 570.5 55 570.5 55 580 64.5 c 128,-1,29
 589.5 74 589.5 74 589.5 85 c 256,30,31
 589.5 96 589.5 96 580 105.5 c 128,-1,32
 570.5 115 570.5 115 553.5 122 c 128,-1,33
 536.5 129 536.5 129 514 133 c 128,-1,34
 491.5 137 491.5 137 464.5 137 c 0,35,36
 438.5 137 438.5 137 415.5 133 c 128,-1,37
 392.5 129 392.5 129 375.5 122 c 128,-1,38
 358.5 115 358.5 115 349 105.5 c 128,-1,39
 339.5 96 339.5 96 339.5 85 c 256,20,21
259.5 272 m 0,40,41
 259.5 290 259.5 290 275 305 c 128,-1,42
 290.5 320 290.5 320 318.5 331.5 c 128,-1,43
 346.5 343 346.5 343 384 349 c 128,-1,44
 421.5 355 421.5 355 464.5 355 c 0,45,46
 508.5 355 508.5 355 546 349 c 128,-1,47
 583.5 343 583.5 343 611 331.5 c 128,-1,48
 638.5 320 638.5 320 654.5 305 c 128,-1,49
 670.5 290 670.5 290 670.5 272 c 0,50,51
 670.5 255 670.5 255 654.5 240 c 128,-1,52
 638.5 225 638.5 225 611 214 c 128,-1,53
 583.5 203 583.5 203 546 196 c 128,-1,54
 508.5 189 508.5 189 464.5 189 c 0,55,56
 421.5 189 421.5 189 384 196 c 128,-1,57
 346.5 203 346.5 203 318.5 214 c 128,-1,58
 290.5 225 290.5 225 275 240 c 128,-1,59
 259.5 255 259.5 255 259.5 272 c 0,40,41
339.5 272 m 256,60,61
 339.5 261 339.5 261 349 251.5 c 128,-1,62
 358.5 242 358.5 242 375.5 235 c 128,-1,63
 392.5 228 392.5 228 415.5 224 c 128,-1,64
 438.5 220 438.5 220 464.5 220 c 0,65,66
 491.5 220 491.5 220 514 224 c 128,-1,67
 536.5 228 536.5 228 553.5 235 c 128,-1,68
 570.5 242 570.5 242 580 251.5 c 128,-1,69
 589.5 261 589.5 261 589.5 272 c 256,70,71
 589.5 283 589.5 283 580 292.5 c 128,-1,72
 570.5 302 570.5 302 553.5 309 c 128,-1,73
 536.5 316 536.5 316 514 320 c 128,-1,74
 491.5 324 491.5 324 464.5 324 c 0,75,76
 438.5 324 438.5 324 415.5 320 c 128,-1,77
 392.5 316 392.5 316 375.5 309 c 128,-1,78
 358.5 302 358.5 302 349 292.5 c 128,-1,79
 339.5 283 339.5 283 339.5 272 c 256,60,61
259.5 461 m 256,80,81
 259.5 478 259.5 478 275 493.5 c 128,-1,82
 290.5 509 290.5 509 318.5 520 c 128,-1,83
 346.5 531 346.5 531 384 537.5 c 128,-1,84
 421.5 544 421.5 544 464.5 544 c 0,85,86
 508.5 544 508.5 544 546 537.5 c 128,-1,87
 583.5 531 583.5 531 611 520 c 128,-1,88
 638.5 509 638.5 509 654.5 493.5 c 128,-1,89
 670.5 478 670.5 478 670.5 461 c 256,90,91
 670.5 444 670.5 444 654.5 429 c 128,-1,92
 638.5 414 638.5 414 611 402.5 c 128,-1,93
 583.5 391 583.5 391 546 384.5 c 128,-1,94
 508.5 378 508.5 378 464.5 378 c 0,95,96
 421.5 378 421.5 378 384 384.5 c 128,-1,97
 346.5 391 346.5 391 318.5 402.5 c 128,-1,98
 290.5 414 290.5 414 275 429 c 128,-1,99
 259.5 444 259.5 444 259.5 461 c 256,80,81
339.5 461 m 256,100,101
 339.5 450 339.5 450 349 440.5 c 128,-1,102
 358.5 431 358.5 431 375.5 424 c 128,-1,103
 392.5 417 392.5 417 415.5 413 c 128,-1,104
 438.5 409 438.5 409 464.5 409 c 0,105,106
 491.5 409 491.5 409 514 413 c 128,-1,107
 536.5 417 536.5 417 553.5 424 c 128,-1,108
 570.5 431 570.5 431 580 440.5 c 128,-1,109
 589.5 450 589.5 450 589.5 461 c 256,110,111
 589.5 472 589.5 472 580 481.5 c 128,-1,112
 570.5 491 570.5 491 553.5 498 c 128,-1,113
 536.5 505 536.5 505 514 509 c 128,-1,114
 491.5 513 491.5 513 464.5 513 c 0,115,116
 438.5 513 438.5 513 415.5 509 c 128,-1,117
 392.5 505 392.5 505 375.5 498 c 128,-1,118
 358.5 491 358.5 491 349 481.5 c 128,-1,119
 339.5 472 339.5 472 339.5 461 c 256,100,101
259.5 648 m 256,120,121
 259.5 665 259.5 665 275 680.5 c 128,-1,122
 290.5 696 290.5 696 318.5 707 c 128,-1,123
 346.5 718 346.5 718 384 724.5 c 128,-1,124
 421.5 731 421.5 731 464.5 731 c 0,125,126
 508.5 731 508.5 731 546 724.5 c 128,-1,127
 583.5 718 583.5 718 611 707 c 128,-1,128
 638.5 696 638.5 696 654.5 680.5 c 128,-1,129
 670.5 665 670.5 665 670.5 648 c 256,130,131
 670.5 631 670.5 631 654.5 616 c 128,-1,132
 638.5 601 638.5 601 611 589.5 c 128,-1,133
 583.5 578 583.5 578 546 571.5 c 128,-1,134
 508.5 565 508.5 565 464.5 565 c 0,135,136
 421.5 565 421.5 565 384 571.5 c 128,-1,137
 346.5 578 346.5 578 318.5 589.5 c 128,-1,138
 290.5 601 290.5 601 275 616 c 128,-1,139
 259.5 631 259.5 631 259.5 648 c 256,120,121
EndSplineSet
EndChar

StartChar: uni0089
Encoding: 137 137 105
Width: 930
Flags: W
LayerCount: 2
Fore
SplineSet
259.5 85 m 0,0,1
 259.5 103 259.5 103 275 118 c 128,-1,2
 290.5 133 290.5 133 318.5 144.5 c 128,-1,3
 346.5 156 346.5 156 384 162.5 c 128,-1,4
 421.5 169 421.5 169 464.5 169 c 0,5,6
 508.5 169 508.5 169 546 162.5 c 128,-1,7
 583.5 156 583.5 156 611 144.5 c 128,-1,8
 638.5 133 638.5 133 654.5 118 c 128,-1,9
 670.5 103 670.5 103 670.5 85 c 0,10,11
 670.5 68 670.5 68 654.5 53 c 128,-1,12
 638.5 38 638.5 38 611 27 c 128,-1,13
 583.5 16 583.5 16 546 9.5 c 128,-1,14
 508.5 3 508.5 3 464.5 3 c 0,15,16
 421.5 3 421.5 3 384 9.5 c 128,-1,17
 346.5 16 346.5 16 318.5 27 c 128,-1,18
 290.5 38 290.5 38 275 53 c 128,-1,19
 259.5 68 259.5 68 259.5 85 c 0,0,1
259.5 272 m 0,20,21
 259.5 290 259.5 290 275 305 c 128,-1,22
 290.5 320 290.5 320 318.5 331.5 c 128,-1,23
 346.5 343 346.5 343 384 349 c 128,-1,24
 421.5 355 421.5 355 464.5 355 c 0,25,26
 508.5 355 508.5 355 546 349 c 128,-1,27
 583.5 343 583.5 343 611 331.5 c 128,-1,28
 638.5 320 638.5 320 654.5 305 c 128,-1,29
 670.5 290 670.5 290 670.5 272 c 0,30,31
 670.5 255 670.5 255 654.5 240 c 128,-1,32
 638.5 225 638.5 225 611 214 c 128,-1,33
 583.5 203 583.5 203 546 196 c 128,-1,34
 508.5 189 508.5 189 464.5 189 c 0,35,36
 421.5 189 421.5 189 384 196 c 128,-1,37
 346.5 203 346.5 203 318.5 214 c 128,-1,38
 290.5 225 290.5 225 275 240 c 128,-1,39
 259.5 255 259.5 255 259.5 272 c 0,20,21
339.5 272 m 256,40,41
 339.5 261 339.5 261 349 251.5 c 128,-1,42
 358.5 242 358.5 242 375.5 235 c 128,-1,43
 392.5 228 392.5 228 415.5 224 c 128,-1,44
 438.5 220 438.5 220 464.5 220 c 0,45,46
 491.5 220 491.5 220 514 224 c 128,-1,47
 536.5 228 536.5 228 553.5 235 c 128,-1,48
 570.5 242 570.5 242 580 251.5 c 128,-1,49
 589.5 261 589.5 261 589.5 272 c 256,50,51
 589.5 283 589.5 283 580 292.5 c 128,-1,52
 570.5 302 570.5 302 553.5 309 c 128,-1,53
 536.5 316 536.5 316 514 320 c 128,-1,54
 491.5 324 491.5 324 464.5 324 c 0,55,56
 438.5 324 438.5 324 415.5 320 c 128,-1,57
 392.5 316 392.5 316 375.5 309 c 128,-1,58
 358.5 302 358.5 302 349 292.5 c 128,-1,59
 339.5 283 339.5 283 339.5 272 c 256,40,41
259.5 461 m 256,60,61
 259.5 478 259.5 478 275 493.5 c 128,-1,62
 290.5 509 290.5 509 318.5 520 c 128,-1,63
 346.5 531 346.5 531 384 537.5 c 128,-1,64
 421.5 544 421.5 544 464.5 544 c 0,65,66
 508.5 544 508.5 544 546 537.5 c 128,-1,67
 583.5 531 583.5 531 611 520 c 128,-1,68
 638.5 509 638.5 509 654.5 493.5 c 128,-1,69
 670.5 478 670.5 478 670.5 461 c 256,70,71
 670.5 444 670.5 444 654.5 429 c 128,-1,72
 638.5 414 638.5 414 611 402.5 c 128,-1,73
 583.5 391 583.5 391 546 384.5 c 128,-1,74
 508.5 378 508.5 378 464.5 378 c 0,75,76
 421.5 378 421.5 378 384 384.5 c 128,-1,77
 346.5 391 346.5 391 318.5 402.5 c 128,-1,78
 290.5 414 290.5 414 275 429 c 128,-1,79
 259.5 444 259.5 444 259.5 461 c 256,60,61
339.5 461 m 256,80,81
 339.5 450 339.5 450 349 440.5 c 128,-1,82
 358.5 431 358.5 431 375.5 424 c 128,-1,83
 392.5 417 392.5 417 415.5 413 c 128,-1,84
 438.5 409 438.5 409 464.5 409 c 0,85,86
 491.5 409 491.5 409 514 413 c 128,-1,87
 536.5 417 536.5 417 553.5 424 c 128,-1,88
 570.5 431 570.5 431 580 440.5 c 128,-1,89
 589.5 450 589.5 450 589.5 461 c 256,90,91
 589.5 472 589.5 472 580 481.5 c 128,-1,92
 570.5 491 570.5 491 553.5 498 c 128,-1,93
 536.5 505 536.5 505 514 509 c 128,-1,94
 491.5 513 491.5 513 464.5 513 c 0,95,96
 438.5 513 438.5 513 415.5 509 c 128,-1,97
 392.5 505 392.5 505 375.5 498 c 128,-1,98
 358.5 491 358.5 491 349 481.5 c 128,-1,99
 339.5 472 339.5 472 339.5 461 c 256,80,81
259.5 648 m 256,100,101
 259.5 665 259.5 665 275 680.5 c 128,-1,102
 290.5 696 290.5 696 318.5 707 c 128,-1,103
 346.5 718 346.5 718 384 724.5 c 128,-1,104
 421.5 731 421.5 731 464.5 731 c 0,105,106
 508.5 731 508.5 731 546 724.5 c 128,-1,107
 583.5 718 583.5 718 611 707 c 128,-1,108
 638.5 696 638.5 696 654.5 680.5 c 128,-1,109
 670.5 665 670.5 665 670.5 648 c 256,110,111
 670.5 631 670.5 631 654.5 616 c 128,-1,112
 638.5 601 638.5 601 611 589.5 c 128,-1,113
 583.5 578 583.5 578 546 571.5 c 128,-1,114
 508.5 565 508.5 565 464.5 565 c 0,115,116
 421.5 565 421.5 565 384 571.5 c 128,-1,117
 346.5 578 346.5 578 318.5 589.5 c 128,-1,118
 290.5 601 290.5 601 275 616 c 128,-1,119
 259.5 631 259.5 631 259.5 648 c 256,100,101
EndSplineSet
EndChar

StartChar: uni008A
Encoding: 138 138 106
Width: 930
Flags: W
LayerCount: 2
Fore
SplineSet
259.5 85 m 0,0,1
 259.5 103 259.5 103 275 118 c 128,-1,2
 290.5 133 290.5 133 318.5 144.5 c 128,-1,3
 346.5 156 346.5 156 384 162.5 c 128,-1,4
 421.5 169 421.5 169 464.5 169 c 0,5,6
 508.5 169 508.5 169 546 162.5 c 128,-1,7
 583.5 156 583.5 156 611 144.5 c 128,-1,8
 638.5 133 638.5 133 654.5 118 c 128,-1,9
 670.5 103 670.5 103 670.5 85 c 0,10,11
 670.5 68 670.5 68 654.5 53 c 128,-1,12
 638.5 38 638.5 38 611 27 c 128,-1,13
 583.5 16 583.5 16 546 9.5 c 128,-1,14
 508.5 3 508.5 3 464.5 3 c 0,15,16
 421.5 3 421.5 3 384 9.5 c 128,-1,17
 346.5 16 346.5 16 318.5 27 c 128,-1,18
 290.5 38 290.5 38 275 53 c 128,-1,19
 259.5 68 259.5 68 259.5 85 c 0,0,1
339.5 85 m 256,20,21
 339.5 74 339.5 74 349 64.5 c 128,-1,22
 358.5 55 358.5 55 375.5 48.5 c 128,-1,23
 392.5 42 392.5 42 415.5 38 c 128,-1,24
 438.5 34 438.5 34 464.5 34 c 0,25,26
 491.5 34 491.5 34 514 38 c 128,-1,27
 536.5 42 536.5 42 553.5 48.5 c 128,-1,28
 570.5 55 570.5 55 580 64.5 c 128,-1,29
 589.5 74 589.5 74 589.5 85 c 256,30,31
 589.5 96 589.5 96 580 105.5 c 128,-1,32
 570.5 115 570.5 115 553.5 122 c 128,-1,33
 536.5 129 536.5 129 514 133 c 128,-1,34
 491.5 137 491.5 137 464.5 137 c 0,35,36
 438.5 137 438.5 137 415.5 133 c 128,-1,37
 392.5 129 392.5 129 375.5 122 c 128,-1,38
 358.5 115 358.5 115 349 105.5 c 128,-1,39
 339.5 96 339.5 96 339.5 85 c 256,20,21
259.5 272 m 0,40,41
 259.5 290 259.5 290 275 305 c 128,-1,42
 290.5 320 290.5 320 318.5 331.5 c 128,-1,43
 346.5 343 346.5 343 384 349 c 128,-1,44
 421.5 355 421.5 355 464.5 355 c 0,45,46
 508.5 355 508.5 355 546 349 c 128,-1,47
 583.5 343 583.5 343 611 331.5 c 128,-1,48
 638.5 320 638.5 320 654.5 305 c 128,-1,49
 670.5 290 670.5 290 670.5 272 c 0,50,51
 670.5 255 670.5 255 654.5 240 c 128,-1,52
 638.5 225 638.5 225 611 214 c 128,-1,53
 583.5 203 583.5 203 546 196 c 128,-1,54
 508.5 189 508.5 189 464.5 189 c 0,55,56
 421.5 189 421.5 189 384 196 c 128,-1,57
 346.5 203 346.5 203 318.5 214 c 128,-1,58
 290.5 225 290.5 225 275 240 c 128,-1,59
 259.5 255 259.5 255 259.5 272 c 0,40,41
259.5 461 m 256,60,61
 259.5 478 259.5 478 275 493.5 c 128,-1,62
 290.5 509 290.5 509 318.5 520 c 128,-1,63
 346.5 531 346.5 531 384 537.5 c 128,-1,64
 421.5 544 421.5 544 464.5 544 c 0,65,66
 508.5 544 508.5 544 546 537.5 c 128,-1,67
 583.5 531 583.5 531 611 520 c 128,-1,68
 638.5 509 638.5 509 654.5 493.5 c 128,-1,69
 670.5 478 670.5 478 670.5 461 c 256,70,71
 670.5 444 670.5 444 654.5 429 c 128,-1,72
 638.5 414 638.5 414 611 402.5 c 128,-1,73
 583.5 391 583.5 391 546 384.5 c 128,-1,74
 508.5 378 508.5 378 464.5 378 c 0,75,76
 421.5 378 421.5 378 384 384.5 c 128,-1,77
 346.5 391 346.5 391 318.5 402.5 c 128,-1,78
 290.5 414 290.5 414 275 429 c 128,-1,79
 259.5 444 259.5 444 259.5 461 c 256,60,61
339.5 461 m 256,80,81
 339.5 450 339.5 450 349 440.5 c 128,-1,82
 358.5 431 358.5 431 375.5 424 c 128,-1,83
 392.5 417 392.5 417 415.5 413 c 128,-1,84
 438.5 409 438.5 409 464.5 409 c 0,85,86
 491.5 409 491.5 409 514 413 c 128,-1,87
 536.5 417 536.5 417 553.5 424 c 128,-1,88
 570.5 431 570.5 431 580 440.5 c 128,-1,89
 589.5 450 589.5 450 589.5 461 c 256,90,91
 589.5 472 589.5 472 580 481.5 c 128,-1,92
 570.5 491 570.5 491 553.5 498 c 128,-1,93
 536.5 505 536.5 505 514 509 c 128,-1,94
 491.5 513 491.5 513 464.5 513 c 0,95,96
 438.5 513 438.5 513 415.5 509 c 128,-1,97
 392.5 505 392.5 505 375.5 498 c 128,-1,98
 358.5 491 358.5 491 349 481.5 c 128,-1,99
 339.5 472 339.5 472 339.5 461 c 256,80,81
259.5 648 m 256,100,101
 259.5 665 259.5 665 275 680.5 c 128,-1,102
 290.5 696 290.5 696 318.5 707 c 128,-1,103
 346.5 718 346.5 718 384 724.5 c 128,-1,104
 421.5 731 421.5 731 464.5 731 c 0,105,106
 508.5 731 508.5 731 546 724.5 c 128,-1,107
 583.5 718 583.5 718 611 707 c 128,-1,108
 638.5 696 638.5 696 654.5 680.5 c 128,-1,109
 670.5 665 670.5 665 670.5 648 c 256,110,111
 670.5 631 670.5 631 654.5 616 c 128,-1,112
 638.5 601 638.5 601 611 589.5 c 128,-1,113
 583.5 578 583.5 578 546 571.5 c 128,-1,114
 508.5 565 508.5 565 464.5 565 c 0,115,116
 421.5 565 421.5 565 384 571.5 c 128,-1,117
 346.5 578 346.5 578 318.5 589.5 c 128,-1,118
 290.5 601 290.5 601 275 616 c 128,-1,119
 259.5 631 259.5 631 259.5 648 c 256,100,101
EndSplineSet
EndChar

StartChar: uni008B
Encoding: 139 139 107
Width: 930
Flags: W
LayerCount: 2
Fore
SplineSet
259.5 85 m 0,0,1
 259.5 103 259.5 103 275 118 c 128,-1,2
 290.5 133 290.5 133 318.5 144.5 c 128,-1,3
 346.5 156 346.5 156 384 162.5 c 128,-1,4
 421.5 169 421.5 169 464.5 169 c 0,5,6
 508.5 169 508.5 169 546 162.5 c 128,-1,7
 583.5 156 583.5 156 611 144.5 c 128,-1,8
 638.5 133 638.5 133 654.5 118 c 128,-1,9
 670.5 103 670.5 103 670.5 85 c 0,10,11
 670.5 68 670.5 68 654.5 53 c 128,-1,12
 638.5 38 638.5 38 611 27 c 128,-1,13
 583.5 16 583.5 16 546 9.5 c 128,-1,14
 508.5 3 508.5 3 464.5 3 c 0,15,16
 421.5 3 421.5 3 384 9.5 c 128,-1,17
 346.5 16 346.5 16 318.5 27 c 128,-1,18
 290.5 38 290.5 38 275 53 c 128,-1,19
 259.5 68 259.5 68 259.5 85 c 0,0,1
259.5 272 m 0,20,21
 259.5 290 259.5 290 275 305 c 128,-1,22
 290.5 320 290.5 320 318.5 331.5 c 128,-1,23
 346.5 343 346.5 343 384 349 c 128,-1,24
 421.5 355 421.5 355 464.5 355 c 0,25,26
 508.5 355 508.5 355 546 349 c 128,-1,27
 583.5 343 583.5 343 611 331.5 c 128,-1,28
 638.5 320 638.5 320 654.5 305 c 128,-1,29
 670.5 290 670.5 290 670.5 272 c 0,30,31
 670.5 255 670.5 255 654.5 240 c 128,-1,32
 638.5 225 638.5 225 611 214 c 128,-1,33
 583.5 203 583.5 203 546 196 c 128,-1,34
 508.5 189 508.5 189 464.5 189 c 0,35,36
 421.5 189 421.5 189 384 196 c 128,-1,37
 346.5 203 346.5 203 318.5 214 c 128,-1,38
 290.5 225 290.5 225 275 240 c 128,-1,39
 259.5 255 259.5 255 259.5 272 c 0,20,21
259.5 461 m 256,40,41
 259.5 478 259.5 478 275 493.5 c 128,-1,42
 290.5 509 290.5 509 318.5 520 c 128,-1,43
 346.5 531 346.5 531 384 537.5 c 128,-1,44
 421.5 544 421.5 544 464.5 544 c 0,45,46
 508.5 544 508.5 544 546 537.5 c 128,-1,47
 583.5 531 583.5 531 611 520 c 128,-1,48
 638.5 509 638.5 509 654.5 493.5 c 128,-1,49
 670.5 478 670.5 478 670.5 461 c 256,50,51
 670.5 444 670.5 444 654.5 429 c 128,-1,52
 638.5 414 638.5 414 611 402.5 c 128,-1,53
 583.5 391 583.5 391 546 384.5 c 128,-1,54
 508.5 378 508.5 378 464.5 378 c 0,55,56
 421.5 378 421.5 378 384 384.5 c 128,-1,57
 346.5 391 346.5 391 318.5 402.5 c 128,-1,58
 290.5 414 290.5 414 275 429 c 128,-1,59
 259.5 444 259.5 444 259.5 461 c 256,40,41
339.5 461 m 256,60,61
 339.5 450 339.5 450 349 440.5 c 128,-1,62
 358.5 431 358.5 431 375.5 424 c 128,-1,63
 392.5 417 392.5 417 415.5 413 c 128,-1,64
 438.5 409 438.5 409 464.5 409 c 0,65,66
 491.5 409 491.5 409 514 413 c 128,-1,67
 536.5 417 536.5 417 553.5 424 c 128,-1,68
 570.5 431 570.5 431 580 440.5 c 128,-1,69
 589.5 450 589.5 450 589.5 461 c 256,70,71
 589.5 472 589.5 472 580 481.5 c 128,-1,72
 570.5 491 570.5 491 553.5 498 c 128,-1,73
 536.5 505 536.5 505 514 509 c 128,-1,74
 491.5 513 491.5 513 464.5 513 c 0,75,76
 438.5 513 438.5 513 415.5 509 c 128,-1,77
 392.5 505 392.5 505 375.5 498 c 128,-1,78
 358.5 491 358.5 491 349 481.5 c 128,-1,79
 339.5 472 339.5 472 339.5 461 c 256,60,61
259.5 648 m 256,80,81
 259.5 665 259.5 665 275 680.5 c 128,-1,82
 290.5 696 290.5 696 318.5 707 c 128,-1,83
 346.5 718 346.5 718 384 724.5 c 128,-1,84
 421.5 731 421.5 731 464.5 731 c 0,85,86
 508.5 731 508.5 731 546 724.5 c 128,-1,87
 583.5 718 583.5 718 611 707 c 128,-1,88
 638.5 696 638.5 696 654.5 680.5 c 128,-1,89
 670.5 665 670.5 665 670.5 648 c 256,90,91
 670.5 631 670.5 631 654.5 616 c 128,-1,92
 638.5 601 638.5 601 611 589.5 c 128,-1,93
 583.5 578 583.5 578 546 571.5 c 128,-1,94
 508.5 565 508.5 565 464.5 565 c 0,95,96
 421.5 565 421.5 565 384 571.5 c 128,-1,97
 346.5 578 346.5 578 318.5 589.5 c 128,-1,98
 290.5 601 290.5 601 275 616 c 128,-1,99
 259.5 631 259.5 631 259.5 648 c 256,80,81
EndSplineSet
EndChar

StartChar: uni008C
Encoding: 140 140 108
Width: 930
Flags: W
LayerCount: 2
Fore
SplineSet
259.5 85 m 0,0,1
 259.5 103 259.5 103 275 118 c 128,-1,2
 290.5 133 290.5 133 318.5 144.5 c 128,-1,3
 346.5 156 346.5 156 384 162.5 c 128,-1,4
 421.5 169 421.5 169 464.5 169 c 0,5,6
 508.5 169 508.5 169 546 162.5 c 128,-1,7
 583.5 156 583.5 156 611 144.5 c 128,-1,8
 638.5 133 638.5 133 654.5 118 c 128,-1,9
 670.5 103 670.5 103 670.5 85 c 0,10,11
 670.5 68 670.5 68 654.5 53 c 128,-1,12
 638.5 38 638.5 38 611 27 c 128,-1,13
 583.5 16 583.5 16 546 9.5 c 128,-1,14
 508.5 3 508.5 3 464.5 3 c 0,15,16
 421.5 3 421.5 3 384 9.5 c 128,-1,17
 346.5 16 346.5 16 318.5 27 c 128,-1,18
 290.5 38 290.5 38 275 53 c 128,-1,19
 259.5 68 259.5 68 259.5 85 c 0,0,1
339.5 85 m 256,20,21
 339.5 74 339.5 74 349 64.5 c 128,-1,22
 358.5 55 358.5 55 375.5 48.5 c 128,-1,23
 392.5 42 392.5 42 415.5 38 c 128,-1,24
 438.5 34 438.5 34 464.5 34 c 0,25,26
 491.5 34 491.5 34 514 38 c 128,-1,27
 536.5 42 536.5 42 553.5 48.5 c 128,-1,28
 570.5 55 570.5 55 580 64.5 c 128,-1,29
 589.5 74 589.5 74 589.5 85 c 256,30,31
 589.5 96 589.5 96 580 105.5 c 128,-1,32
 570.5 115 570.5 115 553.5 122 c 128,-1,33
 536.5 129 536.5 129 514 133 c 128,-1,34
 491.5 137 491.5 137 464.5 137 c 0,35,36
 438.5 137 438.5 137 415.5 133 c 128,-1,37
 392.5 129 392.5 129 375.5 122 c 128,-1,38
 358.5 115 358.5 115 349 105.5 c 128,-1,39
 339.5 96 339.5 96 339.5 85 c 256,20,21
259.5 272 m 0,40,41
 259.5 290 259.5 290 275 305 c 128,-1,42
 290.5 320 290.5 320 318.5 331.5 c 128,-1,43
 346.5 343 346.5 343 384 349 c 128,-1,44
 421.5 355 421.5 355 464.5 355 c 0,45,46
 508.5 355 508.5 355 546 349 c 128,-1,47
 583.5 343 583.5 343 611 331.5 c 128,-1,48
 638.5 320 638.5 320 654.5 305 c 128,-1,49
 670.5 290 670.5 290 670.5 272 c 0,50,51
 670.5 255 670.5 255 654.5 240 c 128,-1,52
 638.5 225 638.5 225 611 214 c 128,-1,53
 583.5 203 583.5 203 546 196 c 128,-1,54
 508.5 189 508.5 189 464.5 189 c 0,55,56
 421.5 189 421.5 189 384 196 c 128,-1,57
 346.5 203 346.5 203 318.5 214 c 128,-1,58
 290.5 225 290.5 225 275 240 c 128,-1,59
 259.5 255 259.5 255 259.5 272 c 0,40,41
339.5 272 m 256,60,61
 339.5 261 339.5 261 349 251.5 c 128,-1,62
 358.5 242 358.5 242 375.5 235 c 128,-1,63
 392.5 228 392.5 228 415.5 224 c 128,-1,64
 438.5 220 438.5 220 464.5 220 c 0,65,66
 491.5 220 491.5 220 514 224 c 128,-1,67
 536.5 228 536.5 228 553.5 235 c 128,-1,68
 570.5 242 570.5 242 580 251.5 c 128,-1,69
 589.5 261 589.5 261 589.5 272 c 256,70,71
 589.5 283 589.5 283 580 292.5 c 128,-1,72
 570.5 302 570.5 302 553.5 309 c 128,-1,73
 536.5 316 536.5 316 514 320 c 128,-1,74
 491.5 324 491.5 324 464.5 324 c 0,75,76
 438.5 324 438.5 324 415.5 320 c 128,-1,77
 392.5 316 392.5 316 375.5 309 c 128,-1,78
 358.5 302 358.5 302 349 292.5 c 128,-1,79
 339.5 283 339.5 283 339.5 272 c 256,60,61
259.5 461 m 256,80,81
 259.5 478 259.5 478 275 493.5 c 128,-1,82
 290.5 509 290.5 509 318.5 520 c 128,-1,83
 346.5 531 346.5 531 384 537.5 c 128,-1,84
 421.5 544 421.5 544 464.5 544 c 0,85,86
 508.5 544 508.5 544 546 537.5 c 128,-1,87
 583.5 531 583.5 531 611 520 c 128,-1,88
 638.5 509 638.5 509 654.5 493.5 c 128,-1,89
 670.5 478 670.5 478 670.5 461 c 256,90,91
 670.5 444 670.5 444 654.5 429 c 128,-1,92
 638.5 414 638.5 414 611 402.5 c 128,-1,93
 583.5 391 583.5 391 546 384.5 c 128,-1,94
 508.5 378 508.5 378 464.5 378 c 0,95,96
 421.5 378 421.5 378 384 384.5 c 128,-1,97
 346.5 391 346.5 391 318.5 402.5 c 128,-1,98
 290.5 414 290.5 414 275 429 c 128,-1,99
 259.5 444 259.5 444 259.5 461 c 256,80,81
259.5 648 m 256,100,101
 259.5 665 259.5 665 275 680.5 c 128,-1,102
 290.5 696 290.5 696 318.5 707 c 128,-1,103
 346.5 718 346.5 718 384 724.5 c 128,-1,104
 421.5 731 421.5 731 464.5 731 c 0,105,106
 508.5 731 508.5 731 546 724.5 c 128,-1,107
 583.5 718 583.5 718 611 707 c 128,-1,108
 638.5 696 638.5 696 654.5 680.5 c 128,-1,109
 670.5 665 670.5 665 670.5 648 c 256,110,111
 670.5 631 670.5 631 654.5 616 c 128,-1,112
 638.5 601 638.5 601 611 589.5 c 128,-1,113
 583.5 578 583.5 578 546 571.5 c 128,-1,114
 508.5 565 508.5 565 464.5 565 c 0,115,116
 421.5 565 421.5 565 384 571.5 c 128,-1,117
 346.5 578 346.5 578 318.5 589.5 c 128,-1,118
 290.5 601 290.5 601 275 616 c 128,-1,119
 259.5 631 259.5 631 259.5 648 c 256,100,101
EndSplineSet
EndChar

StartChar: uni008D
Encoding: 141 141 109
Width: 930
Flags: W
LayerCount: 2
Fore
SplineSet
259.5 85 m 0,0,1
 259.5 103 259.5 103 275 118 c 128,-1,2
 290.5 133 290.5 133 318.5 144.5 c 128,-1,3
 346.5 156 346.5 156 384 162.5 c 128,-1,4
 421.5 169 421.5 169 464.5 169 c 0,5,6
 508.5 169 508.5 169 546 162.5 c 128,-1,7
 583.5 156 583.5 156 611 144.5 c 128,-1,8
 638.5 133 638.5 133 654.5 118 c 128,-1,9
 670.5 103 670.5 103 670.5 85 c 0,10,11
 670.5 68 670.5 68 654.5 53 c 128,-1,12
 638.5 38 638.5 38 611 27 c 128,-1,13
 583.5 16 583.5 16 546 9.5 c 128,-1,14
 508.5 3 508.5 3 464.5 3 c 0,15,16
 421.5 3 421.5 3 384 9.5 c 128,-1,17
 346.5 16 346.5 16 318.5 27 c 128,-1,18
 290.5 38 290.5 38 275 53 c 128,-1,19
 259.5 68 259.5 68 259.5 85 c 0,0,1
259.5 272 m 0,20,21
 259.5 290 259.5 290 275 305 c 128,-1,22
 290.5 320 290.5 320 318.5 331.5 c 128,-1,23
 346.5 343 346.5 343 384 349 c 128,-1,24
 421.5 355 421.5 355 464.5 355 c 0,25,26
 508.5 355 508.5 355 546 349 c 128,-1,27
 583.5 343 583.5 343 611 331.5 c 128,-1,28
 638.5 320 638.5 320 654.5 305 c 128,-1,29
 670.5 290 670.5 290 670.5 272 c 0,30,31
 670.5 255 670.5 255 654.5 240 c 128,-1,32
 638.5 225 638.5 225 611 214 c 128,-1,33
 583.5 203 583.5 203 546 196 c 128,-1,34
 508.5 189 508.5 189 464.5 189 c 0,35,36
 421.5 189 421.5 189 384 196 c 128,-1,37
 346.5 203 346.5 203 318.5 214 c 128,-1,38
 290.5 225 290.5 225 275 240 c 128,-1,39
 259.5 255 259.5 255 259.5 272 c 0,20,21
339.5 272 m 256,40,41
 339.5 261 339.5 261 349 251.5 c 128,-1,42
 358.5 242 358.5 242 375.5 235 c 128,-1,43
 392.5 228 392.5 228 415.5 224 c 128,-1,44
 438.5 220 438.5 220 464.5 220 c 0,45,46
 491.5 220 491.5 220 514 224 c 128,-1,47
 536.5 228 536.5 228 553.5 235 c 128,-1,48
 570.5 242 570.5 242 580 251.5 c 128,-1,49
 589.5 261 589.5 261 589.5 272 c 256,50,51
 589.5 283 589.5 283 580 292.5 c 128,-1,52
 570.5 302 570.5 302 553.5 309 c 128,-1,53
 536.5 316 536.5 316 514 320 c 128,-1,54
 491.5 324 491.5 324 464.5 324 c 0,55,56
 438.5 324 438.5 324 415.5 320 c 128,-1,57
 392.5 316 392.5 316 375.5 309 c 128,-1,58
 358.5 302 358.5 302 349 292.5 c 128,-1,59
 339.5 283 339.5 283 339.5 272 c 256,40,41
259.5 461 m 256,60,61
 259.5 478 259.5 478 275 493.5 c 128,-1,62
 290.5 509 290.5 509 318.5 520 c 128,-1,63
 346.5 531 346.5 531 384 537.5 c 128,-1,64
 421.5 544 421.5 544 464.5 544 c 0,65,66
 508.5 544 508.5 544 546 537.5 c 128,-1,67
 583.5 531 583.5 531 611 520 c 128,-1,68
 638.5 509 638.5 509 654.5 493.5 c 128,-1,69
 670.5 478 670.5 478 670.5 461 c 256,70,71
 670.5 444 670.5 444 654.5 429 c 128,-1,72
 638.5 414 638.5 414 611 402.5 c 128,-1,73
 583.5 391 583.5 391 546 384.5 c 128,-1,74
 508.5 378 508.5 378 464.5 378 c 0,75,76
 421.5 378 421.5 378 384 384.5 c 128,-1,77
 346.5 391 346.5 391 318.5 402.5 c 128,-1,78
 290.5 414 290.5 414 275 429 c 128,-1,79
 259.5 444 259.5 444 259.5 461 c 256,60,61
259.5 648 m 256,80,81
 259.5 665 259.5 665 275 680.5 c 128,-1,82
 290.5 696 290.5 696 318.5 707 c 128,-1,83
 346.5 718 346.5 718 384 724.5 c 128,-1,84
 421.5 731 421.5 731 464.5 731 c 0,85,86
 508.5 731 508.5 731 546 724.5 c 128,-1,87
 583.5 718 583.5 718 611 707 c 128,-1,88
 638.5 696 638.5 696 654.5 680.5 c 128,-1,89
 670.5 665 670.5 665 670.5 648 c 256,90,91
 670.5 631 670.5 631 654.5 616 c 128,-1,92
 638.5 601 638.5 601 611 589.5 c 128,-1,93
 583.5 578 583.5 578 546 571.5 c 128,-1,94
 508.5 565 508.5 565 464.5 565 c 0,95,96
 421.5 565 421.5 565 384 571.5 c 128,-1,97
 346.5 578 346.5 578 318.5 589.5 c 128,-1,98
 290.5 601 290.5 601 275 616 c 128,-1,99
 259.5 631 259.5 631 259.5 648 c 256,80,81
EndSplineSet
EndChar

StartChar: uni008E
Encoding: 142 142 110
Width: 930
Flags: W
LayerCount: 2
Fore
SplineSet
259.5 85 m 0,0,1
 259.5 103 259.5 103 275 118 c 128,-1,2
 290.5 133 290.5 133 318.5 144.5 c 128,-1,3
 346.5 156 346.5 156 384 162.5 c 128,-1,4
 421.5 169 421.5 169 464.5 169 c 0,5,6
 508.5 169 508.5 169 546 162.5 c 128,-1,7
 583.5 156 583.5 156 611 144.5 c 128,-1,8
 638.5 133 638.5 133 654.5 118 c 128,-1,9
 670.5 103 670.5 103 670.5 85 c 0,10,11
 670.5 68 670.5 68 654.5 53 c 128,-1,12
 638.5 38 638.5 38 611 27 c 128,-1,13
 583.5 16 583.5 16 546 9.5 c 128,-1,14
 508.5 3 508.5 3 464.5 3 c 0,15,16
 421.5 3 421.5 3 384 9.5 c 128,-1,17
 346.5 16 346.5 16 318.5 27 c 128,-1,18
 290.5 38 290.5 38 275 53 c 128,-1,19
 259.5 68 259.5 68 259.5 85 c 0,0,1
339.5 85 m 256,20,21
 339.5 74 339.5 74 349 64.5 c 128,-1,22
 358.5 55 358.5 55 375.5 48.5 c 128,-1,23
 392.5 42 392.5 42 415.5 38 c 128,-1,24
 438.5 34 438.5 34 464.5 34 c 0,25,26
 491.5 34 491.5 34 514 38 c 128,-1,27
 536.5 42 536.5 42 553.5 48.5 c 128,-1,28
 570.5 55 570.5 55 580 64.5 c 128,-1,29
 589.5 74 589.5 74 589.5 85 c 256,30,31
 589.5 96 589.5 96 580 105.5 c 128,-1,32
 570.5 115 570.5 115 553.5 122 c 128,-1,33
 536.5 129 536.5 129 514 133 c 128,-1,34
 491.5 137 491.5 137 464.5 137 c 0,35,36
 438.5 137 438.5 137 415.5 133 c 128,-1,37
 392.5 129 392.5 129 375.5 122 c 128,-1,38
 358.5 115 358.5 115 349 105.5 c 128,-1,39
 339.5 96 339.5 96 339.5 85 c 256,20,21
259.5 272 m 0,40,41
 259.5 290 259.5 290 275 305 c 128,-1,42
 290.5 320 290.5 320 318.5 331.5 c 128,-1,43
 346.5 343 346.5 343 384 349 c 128,-1,44
 421.5 355 421.5 355 464.5 355 c 0,45,46
 508.5 355 508.5 355 546 349 c 128,-1,47
 583.5 343 583.5 343 611 331.5 c 128,-1,48
 638.5 320 638.5 320 654.5 305 c 128,-1,49
 670.5 290 670.5 290 670.5 272 c 0,50,51
 670.5 255 670.5 255 654.5 240 c 128,-1,52
 638.5 225 638.5 225 611 214 c 128,-1,53
 583.5 203 583.5 203 546 196 c 128,-1,54
 508.5 189 508.5 189 464.5 189 c 0,55,56
 421.5 189 421.5 189 384 196 c 128,-1,57
 346.5 203 346.5 203 318.5 214 c 128,-1,58
 290.5 225 290.5 225 275 240 c 128,-1,59
 259.5 255 259.5 255 259.5 272 c 0,40,41
259.5 461 m 256,60,61
 259.5 478 259.5 478 275 493.5 c 128,-1,62
 290.5 509 290.5 509 318.5 520 c 128,-1,63
 346.5 531 346.5 531 384 537.5 c 128,-1,64
 421.5 544 421.5 544 464.5 544 c 0,65,66
 508.5 544 508.5 544 546 537.5 c 128,-1,67
 583.5 531 583.5 531 611 520 c 128,-1,68
 638.5 509 638.5 509 654.5 493.5 c 128,-1,69
 670.5 478 670.5 478 670.5 461 c 256,70,71
 670.5 444 670.5 444 654.5 429 c 128,-1,72
 638.5 414 638.5 414 611 402.5 c 128,-1,73
 583.5 391 583.5 391 546 384.5 c 128,-1,74
 508.5 378 508.5 378 464.5 378 c 0,75,76
 421.5 378 421.5 378 384 384.5 c 128,-1,77
 346.5 391 346.5 391 318.5 402.5 c 128,-1,78
 290.5 414 290.5 414 275 429 c 128,-1,79
 259.5 444 259.5 444 259.5 461 c 256,60,61
259.5 648 m 256,80,81
 259.5 665 259.5 665 275 680.5 c 128,-1,82
 290.5 696 290.5 696 318.5 707 c 128,-1,83
 346.5 718 346.5 718 384 724.5 c 128,-1,84
 421.5 731 421.5 731 464.5 731 c 0,85,86
 508.5 731 508.5 731 546 724.5 c 128,-1,87
 583.5 718 583.5 718 611 707 c 128,-1,88
 638.5 696 638.5 696 654.5 680.5 c 128,-1,89
 670.5 665 670.5 665 670.5 648 c 256,90,91
 670.5 631 670.5 631 654.5 616 c 128,-1,92
 638.5 601 638.5 601 611 589.5 c 128,-1,93
 583.5 578 583.5 578 546 571.5 c 128,-1,94
 508.5 565 508.5 565 464.5 565 c 0,95,96
 421.5 565 421.5 565 384 571.5 c 128,-1,97
 346.5 578 346.5 578 318.5 589.5 c 128,-1,98
 290.5 601 290.5 601 275 616 c 128,-1,99
 259.5 631 259.5 631 259.5 648 c 256,80,81
EndSplineSet
EndChar

StartChar: uni008F
Encoding: 143 143 111
Width: 930
Flags: W
LayerCount: 2
Fore
SplineSet
259.5 85 m 0,0,1
 259.5 103 259.5 103 275 118 c 128,-1,2
 290.5 133 290.5 133 318.5 144.5 c 128,-1,3
 346.5 156 346.5 156 384 162.5 c 128,-1,4
 421.5 169 421.5 169 464.5 169 c 0,5,6
 508.5 169 508.5 169 546 162.5 c 128,-1,7
 583.5 156 583.5 156 611 144.5 c 128,-1,8
 638.5 133 638.5 133 654.5 118 c 128,-1,9
 670.5 103 670.5 103 670.5 85 c 0,10,11
 670.5 68 670.5 68 654.5 53 c 128,-1,12
 638.5 38 638.5 38 611 27 c 128,-1,13
 583.5 16 583.5 16 546 9.5 c 128,-1,14
 508.5 3 508.5 3 464.5 3 c 0,15,16
 421.5 3 421.5 3 384 9.5 c 128,-1,17
 346.5 16 346.5 16 318.5 27 c 128,-1,18
 290.5 38 290.5 38 275 53 c 128,-1,19
 259.5 68 259.5 68 259.5 85 c 0,0,1
259.5 272 m 0,20,21
 259.5 290 259.5 290 275 305 c 128,-1,22
 290.5 320 290.5 320 318.5 331.5 c 128,-1,23
 346.5 343 346.5 343 384 349 c 128,-1,24
 421.5 355 421.5 355 464.5 355 c 0,25,26
 508.5 355 508.5 355 546 349 c 128,-1,27
 583.5 343 583.5 343 611 331.5 c 128,-1,28
 638.5 320 638.5 320 654.5 305 c 128,-1,29
 670.5 290 670.5 290 670.5 272 c 0,30,31
 670.5 255 670.5 255 654.5 240 c 128,-1,32
 638.5 225 638.5 225 611 214 c 128,-1,33
 583.5 203 583.5 203 546 196 c 128,-1,34
 508.5 189 508.5 189 464.5 189 c 0,35,36
 421.5 189 421.5 189 384 196 c 128,-1,37
 346.5 203 346.5 203 318.5 214 c 128,-1,38
 290.5 225 290.5 225 275 240 c 128,-1,39
 259.5 255 259.5 255 259.5 272 c 0,20,21
259.5 461 m 256,40,41
 259.5 478 259.5 478 275 493.5 c 128,-1,42
 290.5 509 290.5 509 318.5 520 c 128,-1,43
 346.5 531 346.5 531 384 537.5 c 128,-1,44
 421.5 544 421.5 544 464.5 544 c 0,45,46
 508.5 544 508.5 544 546 537.5 c 128,-1,47
 583.5 531 583.5 531 611 520 c 128,-1,48
 638.5 509 638.5 509 654.5 493.5 c 128,-1,49
 670.5 478 670.5 478 670.5 461 c 256,50,51
 670.5 444 670.5 444 654.5 429 c 128,-1,52
 638.5 414 638.5 414 611 402.5 c 128,-1,53
 583.5 391 583.5 391 546 384.5 c 128,-1,54
 508.5 378 508.5 378 464.5 378 c 0,55,56
 421.5 378 421.5 378 384 384.5 c 128,-1,57
 346.5 391 346.5 391 318.5 402.5 c 128,-1,58
 290.5 414 290.5 414 275 429 c 128,-1,59
 259.5 444 259.5 444 259.5 461 c 256,40,41
259.5 648 m 256,60,61
 259.5 665 259.5 665 275 680.5 c 128,-1,62
 290.5 696 290.5 696 318.5 707 c 128,-1,63
 346.5 718 346.5 718 384 724.5 c 128,-1,64
 421.5 731 421.5 731 464.5 731 c 0,65,66
 508.5 731 508.5 731 546 724.5 c 128,-1,67
 583.5 718 583.5 718 611 707 c 128,-1,68
 638.5 696 638.5 696 654.5 680.5 c 128,-1,69
 670.5 665 670.5 665 670.5 648 c 256,70,71
 670.5 631 670.5 631 654.5 616 c 128,-1,72
 638.5 601 638.5 601 611 589.5 c 128,-1,73
 583.5 578 583.5 578 546 571.5 c 128,-1,74
 508.5 565 508.5 565 464.5 565 c 0,75,76
 421.5 565 421.5 565 384 571.5 c 128,-1,77
 346.5 578 346.5 578 318.5 589.5 c 128,-1,78
 290.5 601 290.5 601 275 616 c 128,-1,79
 259.5 631 259.5 631 259.5 648 c 256,60,61
EndSplineSet
EndChar

StartChar: uni0090
Encoding: 144 144 112
Width: 930
Flags: W
LayerCount: 2
Fore
SplineSet
702 345 m 0,0,1
 702 261 702 261 689 195 c 128,-1,2
 676 129 676 129 647.5 82.5 c 128,-1,3
 619 36 619 36 573.5 12 c 128,-1,4
 528 -12 528 -12 464 -12 c 0,5,6
 384 -12 384 -12 331.5 30.5 c 128,-1,7
 279 73 279 73 253.5 153 c 128,-1,8
 228 233 228 233 228 345 c 0,9,10
 228 458 228 458 251.5 537.5 c 128,-1,11
 275 617 275 617 327 659.5 c 128,-1,12
 379 702 379 702 464 702 c 0,13,14
 544 702 544 702 597 660 c 128,-1,15
 650 618 650 618 676 538 c 128,-1,16
 702 458 702 458 702 345 c 0,0,1
316 345 m 0,17,18
 316 251 316 251 330.5 188.5 c 128,-1,19
 345 126 345 126 377.5 94.5 c 128,-1,20
 410 63 410 63 464 63 c 256,21,22
 518 63 518 63 550.5 94 c 128,-1,23
 583 125 583 125 598 188 c 128,-1,24
 613 251 613 251 613 345 c 0,25,26
 613 440 613 440 598 502.5 c 128,-1,27
 583 565 583 565 550.5 596 c 128,-1,28
 518 627 518 627 464 627 c 256,29,30
 410 627 410 627 377.5 596 c 128,-1,31
 345 565 345 565 330.5 502.5 c 128,-1,32
 316 440 316 440 316 345 c 0,17,18
EndSplineSet
EndChar

StartChar: uni0091
Encoding: 145 145 113
Width: 930
Flags: W
LayerCount: 2
Fore
SplineSet
598 0 m 1,0,-1
 512 0 l 1,1,-1
 512 482 l 2,2,3
 512 511 512 511 512.5 531.5 c 128,-1,4
 513 552 513 552 514 569 c 128,-1,5
 515 586 515 586 516 605 c 1,6,7
 500 589 500 589 487 578 c 128,-1,8
 474 567 474 567 454 550 c 2,9,-1
 378 488 l 1,10,-1
 332 547 l 1,11,-1
 525 697 l 1,12,-1
 598 697 l 1,13,-1
 598 0 l 1,0,-1
EndSplineSet
EndChar

StartChar: uni0092
Encoding: 146 146 114
Width: 930
Flags: W
LayerCount: 2
Fore
SplineSet
701 0 m 1,0,-1
 229 0 l 1,1,-1
 229 73 l 1,2,-1
 394 234 l 2,3,4
 459 297 459 297 500.5 342.5 c 128,-1,5
 542 388 542 388 562 428 c 128,-1,6
 582 468 582 468 582 511 c 0,7,8
 582 549 582 549 567 575 c 128,-1,9
 552 601 552 601 524 614 c 128,-1,10
 496 627 496 627 456 627 c 0,11,12
 404 627 404 627 364.5 609 c 128,-1,13
 325 591 325 591 284 559 c 1,14,-1
 237 618 l 1,15,16
 265 642 265 642 298.5 661 c 128,-1,17
 332 680 332 680 371.5 691 c 128,-1,18
 411 702 411 702 457 702 c 0,19,20
 525 702 525 702 573 680 c 128,-1,21
 621 658 621 658 646.5 617 c 128,-1,22
 672 576 672 576 672 519 c 0,23,24
 672 464 672 464 652 417.5 c 128,-1,25
 632 371 632 371 595.5 327 c 128,-1,26
 559 283 559 283 508 233 c 2,27,-1
 353 84 l 1,28,-1
 353 80 l 1,29,-1
 701 80 l 1,30,-1
 701 0 l 1,0,-1
EndSplineSet
EndChar

StartChar: uni0093
Encoding: 147 147 115
Width: 930
Flags: W
LayerCount: 2
Fore
SplineSet
678 530 m 0,0,1
 678 484 678 484 660 449.5 c 128,-1,2
 642 415 642 415 608.5 394 c 128,-1,3
 575 373 575 373 530 364 c 1,4,-1
 530 361 l 1,5,6
 616 351 616 351 658 307.5 c 128,-1,7
 700 264 700 264 700 196 c 0,8,9
 700 135 700 135 671 88 c 128,-1,10
 642 41 642 41 581.5 14.5 c 128,-1,11
 521 -12 521 -12 426 -12 c 0,12,13
 370 -12 370 -12 322 -3.5 c 128,-1,14
 274 5 274 5 230 27 c 1,15,-1
 230 109 l 1,16,17
 275 87 275 87 327 74.5 c 128,-1,18
 379 62 379 62 427 62 c 0,19,20
 523 62 523 62 565.5 98 c 128,-1,21
 608 134 608 134 608 198 c 0,22,23
 608 241 608 241 584.5 267.5 c 128,-1,24
 561 294 561 294 516 306.5 c 128,-1,25
 471 319 471 319 408 319 c 2,26,-1
 339 319 l 1,27,-1
 339 394 l 1,28,-1
 409 394 l 2,29,30
 468 394 468 394 507.5 410 c 128,-1,31
 547 426 547 426 567.5 455 c 128,-1,32
 588 484 588 484 588 523 c 0,33,34
 588 573 588 573 553 600.5 c 128,-1,35
 518 628 518 628 458 628 c 0,36,37
 400 628 400 628 359 611 c 128,-1,38
 318 594 318 594 278 568 c 1,39,-1
 234 628 l 1,40,41
 272 658 272 658 328.5 680 c 128,-1,42
 385 702 385 702 457 702 c 0,43,44
 569 702 569 702 623.5 653 c 128,-1,45
 678 604 678 604 678 530 c 0,0,1
EndSplineSet
EndChar

StartChar: uni0094
Encoding: 148 148 116
Width: 930
Flags: W
LayerCount: 2
Fore
SplineSet
730.5 157 m 1,0,-1
 626.5 157 l 1,1,-1
 626.5 0 l 1,2,-1
 541.5 0 l 1,3,-1
 541.5 157 l 1,4,-1
 199.5 157 l 1,5,-1
 199.5 231 l 1,6,-1
 535.5 695 l 1,7,-1
 626.5 695 l 1,8,-1
 626.5 236 l 1,9,-1
 730.5 236 l 1,10,-1
 730.5 157 l 1,0,-1
541.5 236 m 1,11,-1
 541.5 443 l 2,12,13
 541.5 496 541.5 496 543.5 533 c 128,-1,14
 545.5 570 545.5 570 546.5 603 c 1,15,-1
 542.5 603 l 1,16,17
 534.5 584 534.5 584 520.5 561.5 c 128,-1,18
 506.5 539 506.5 539 495.5 524 c 2,19,-1
 285.5 236 l 1,20,-1
 541.5 236 l 1,11,-1
EndSplineSet
EndChar

StartChar: uni0095
Encoding: 149 149 117
Width: 930
Flags: W
LayerCount: 2
Fore
SplineSet
424 -12 m 0,0,1
 369 -12 369 -12 320.5 -2 c 128,-1,2
 272 8 272 8 239 27 c 1,3,-1
 239 110 l 1,4,5
 275 88 275 88 326.5 75.5 c 128,-1,6
 378 63 378 63 425 63 c 0,7,8
 478 63 478 63 517.5 79 c 128,-1,9
 557 95 557 95 579 128 c 128,-1,10
 601 161 601 161 601 212 c 0,11,12
 601 280 601 280 558 316.5 c 128,-1,13
 515 353 515 353 422 353 c 0,14,15
 394 353 394 353 358 348 c 128,-1,16
 322 343 322 343 300 338 c 1,17,-1
 256 366 l 1,18,-1
 282 690 l 1,19,-1
 641 690 l 1,20,-1
 641 610 l 1,21,-1
 358 610 l 1,22,-1
 341 416 l 1,23,24
 358 419 358 419 387 423 c 128,-1,25
 416 427 416 427 451 427 c 0,26,27
 524 427 524 427 578 402.5 c 128,-1,28
 632 378 632 378 661.5 332 c 128,-1,29
 691 286 691 286 691 221 c 0,30,31
 691 149 691 149 659 96.5 c 128,-1,32
 627 44 627 44 567.5 16 c 128,-1,33
 508 -12 508 -12 424 -12 c 0,0,1
EndSplineSet
EndChar

StartChar: uni0096
Encoding: 150 150 118
Width: 930
Flags: W
LayerCount: 2
Fore
SplineSet
230 295 m 0,0,1
 230 355 230 355 238.5 413.5 c 128,-1,2
 247 472 247 472 268 524 c 128,-1,3
 289 576 289 576 326 616 c 128,-1,4
 363 656 363 656 419.5 679 c 128,-1,5
 476 702 476 702 557 702 c 0,6,7
 578 702 578 702 603.5 700 c 128,-1,8
 629 698 629 698 645 693 c 1,9,-1
 645 619 l 1,10,11
 627 624 627 624 604.5 627 c 128,-1,12
 582 630 582 630 559 630 c 0,13,14
 490 630 490 630 444 608 c 128,-1,15
 398 586 398 586 371.5 547.5 c 128,-1,16
 345 509 345 509 333 459 c 128,-1,17
 321 409 321 409 318 353 c 1,18,-1
 324 353 l 1,19,20
 339 377 339 377 362 396 c 128,-1,21
 385 415 385 415 417.5 426 c 128,-1,22
 450 437 450 437 493 437 c 0,23,24
 555 437 555 437 601.5 412 c 128,-1,25
 648 387 648 387 674 339.5 c 128,-1,26
 700 292 700 292 700 224 c 0,27,28
 700 151 700 151 672 98.5 c 128,-1,29
 644 46 644 46 593.5 17.5 c 128,-1,30
 543 -11 543 -11 473 -11 c 0,31,32
 422 -11 422 -11 378 7.5 c 128,-1,33
 334 26 334 26 300.5 63.5 c 128,-1,34
 267 101 267 101 248.5 159 c 128,-1,35
 230 217 230 217 230 295 c 0,0,1
472 63 m 0,36,37
 535 63 535 63 574 102.5 c 128,-1,38
 613 142 613 142 613 224 c 0,39,40
 613 291 613 291 578.5 329.5 c 128,-1,41
 544 368 544 368 475 368 c 0,42,43
 428 368 428 368 393 349 c 128,-1,44
 358 330 358 330 338.5 301 c 128,-1,45
 319 272 319 272 319 241 c 0,46,47
 319 209 319 209 328.5 177.5 c 128,-1,48
 338 146 338 146 357.5 120 c 128,-1,49
 377 94 377 94 405.5 78.5 c 128,-1,50
 434 63 434 63 472 63 c 0,36,37
EndSplineSet
EndChar

StartChar: uni0097
Encoding: 151 151 119
Width: 930
Flags: W
LayerCount: 2
Fore
SplineSet
323.5 0 m 1,0,-1
 610.5 610 l 1,1,-1
 225.5 610 l 1,2,-1
 225.5 690 l 1,3,-1
 704.5 690 l 1,4,-1
 704.5 623 l 1,5,-1
 419.5 0 l 1,6,-1
 323.5 0 l 1,0,-1
EndSplineSet
EndChar

StartChar: uni0098
Encoding: 152 152 120
Width: 930
Flags: W
LayerCount: 2
Fore
SplineSet
464.5 702 m 0,0,1
 527.5 702 527.5 702 575.5 683 c 128,-1,2
 623.5 664 623.5 664 651 627 c 128,-1,3
 678.5 590 678.5 590 678.5 536 c 0,4,5
 678.5 495 678.5 495 660 463.5 c 128,-1,6
 641.5 432 641.5 432 610.5 408.5 c 128,-1,7
 579.5 385 579.5 385 542.5 366 c 1,8,9
 586.5 345 586.5 345 622.5 319.5 c 128,-1,10
 658.5 294 658.5 294 680 260 c 128,-1,11
 701.5 226 701.5 226 701.5 178 c 0,12,13
 701.5 120 701.5 120 672.5 77 c 128,-1,14
 643.5 34 643.5 34 591 11 c 128,-1,15
 538.5 -12 538.5 -12 467.5 -12 c 0,16,17
 390.5 -12 390.5 -12 337 10 c 128,-1,18
 283.5 32 283.5 32 256 74 c 128,-1,19
 228.5 116 228.5 116 228.5 175 c 0,20,21
 228.5 223 228.5 223 249 258 c 128,-1,22
 269.5 293 269.5 293 303.5 318.5 c 128,-1,23
 337.5 344 337.5 344 376.5 361 c 1,24,25
 341.5 381 341.5 381 313 405 c 128,-1,26
 284.5 429 284.5 429 268 461.5 c 128,-1,27
 251.5 494 251.5 494 251.5 537 c 0,28,29
 251.5 590 251.5 590 279.5 627 c 128,-1,30
 307.5 664 307.5 664 355.5 683 c 128,-1,31
 403.5 702 403.5 702 464.5 702 c 0,0,1
314.5 175 m 0,32,33
 314.5 125 314.5 125 351.5 91.5 c 128,-1,34
 388.5 58 388.5 58 465.5 58 c 0,35,36
 538.5 58 538.5 58 577 91.5 c 128,-1,37
 615.5 125 615.5 125 615.5 178 c 0,38,39
 615.5 211 615.5 211 597 236.5 c 128,-1,40
 578.5 262 578.5 262 545 282.5 c 128,-1,41
 511.5 303 511.5 303 465.5 319 c 2,42,-1
 449.5 325 l 1,43,44
 405.5 307 405.5 307 375.5 285.5 c 128,-1,45
 345.5 264 345.5 264 330 237 c 128,-1,46
 314.5 210 314.5 210 314.5 175 c 0,32,33
463.5 631 m 0,47,48
 408.5 631 408.5 631 373 605.5 c 128,-1,49
 337.5 580 337.5 580 337.5 532 c 0,50,51
 337.5 497 337.5 497 355 473 c 128,-1,52
 372.5 449 372.5 449 402.5 432 c 128,-1,53
 432.5 415 432.5 415 468.5 400 c 1,54,55
 503.5 414 503.5 414 531 431.5 c 128,-1,56
 558.5 449 558.5 449 575 473.5 c 128,-1,57
 591.5 498 591.5 498 591.5 532 c 0,58,59
 591.5 580 591.5 580 556.5 605.5 c 128,-1,60
 521.5 631 521.5 631 463.5 631 c 0,47,48
EndSplineSet
EndChar

StartChar: uni0099
Encoding: 153 153 121
Width: 930
Flags: W
LayerCount: 2
Fore
SplineSet
700 396 m 0,0,1
 700 336 700 336 691.5 277 c 128,-1,2
 683 218 683 218 662 166 c 128,-1,3
 641 114 641 114 604 74 c 128,-1,4
 567 34 567 34 510 11 c 128,-1,5
 453 -12 453 -12 372 -12 c 0,6,7
 352 -12 352 -12 325.5 -9.5 c 128,-1,8
 299 -7 299 -7 282 -2 c 1,9,-1
 282 73 l 1,10,11
 300 67 300 67 324 63.5 c 128,-1,12
 348 60 348 60 370 60 c 0,13,14
 440 60 440 60 485.5 82 c 128,-1,15
 531 104 531 104 558 142 c 128,-1,16
 585 180 585 180 597 230 c 128,-1,17
 609 280 609 280 611 336 c 1,18,-1
 605 336 l 1,19,20
 590 314 590 314 567 295 c 128,-1,21
 544 276 544 276 511.5 264.5 c 128,-1,22
 479 253 479 253 435 253 c 0,23,24
 374 253 374 253 327.5 278 c 128,-1,25
 281 303 281 303 255.5 350.5 c 128,-1,26
 230 398 230 398 230 465 c 0,27,28
 230 538 230 538 258.5 591 c 128,-1,29
 287 644 287 644 338 673 c 128,-1,30
 389 702 389 702 458 702 c 0,31,32
 509 702 509 702 553 683.5 c 128,-1,33
 597 665 597 665 630 627 c 128,-1,34
 663 589 663 589 681.5 531.5 c 128,-1,35
 700 474 700 474 700 396 c 0,0,1
458 628 m 0,36,37
 396 628 396 628 356.5 588.5 c 128,-1,38
 317 549 317 549 317 466 c 0,39,40
 317 400 317 400 350.5 361.5 c 128,-1,41
 384 323 384 323 454 323 c 0,42,43
 502 323 502 323 537 341.5 c 128,-1,44
 572 360 572 360 591.5 389.5 c 128,-1,45
 611 419 611 419 611 450 c 0,46,47
 611 482 611 482 601.5 513 c 128,-1,48
 592 544 592 544 573 570.5 c 128,-1,49
 554 597 554 597 525 612.5 c 128,-1,50
 496 628 496 628 458 628 c 0,36,37
EndSplineSet
EndChar

StartChar: uni009A
Encoding: 154 154 122
Width: 930
Flags: W
LayerCount: 2
Fore
SplineSet
515.5 723 m 0,0,1
 570.5 723 570.5 723 614.5 711 c 128,-1,2
 658.5 699 658.5 699 692.5 682 c 1,3,-1
 661.5 612 l 1,4,5
 631.5 626 631.5 626 595 638 c 128,-1,6
 558.5 650 558.5 650 517.5 650 c 0,7,8
 460.5 650 460.5 650 430.5 620.5 c 128,-1,9
 400.5 591 400.5 591 400.5 525 c 2,10,-1
 400.5 386 l 1,11,-1
 604.5 386 l 1,12,-1
 604.5 320 l 1,13,-1
 400.5 320 l 1,14,-1
 400.5 216 l 2,15,16
 400.5 176 400.5 176 391 149.5 c 128,-1,17
 381.5 123 381.5 123 366 107 c 128,-1,18
 350.5 91 350.5 91 332.5 80 c 1,19,-1
 716.5 80 l 1,20,-1
 716.5 0 l 1,21,-1
 213.5 0 l 1,22,-1
 213.5 74 l 1,23,24
 242.5 81 242.5 81 264.5 97.5 c 128,-1,25
 286.5 114 286.5 114 299.5 142.5 c 128,-1,26
 312.5 171 312.5 171 312.5 215 c 2,27,-1
 312.5 320 l 1,28,-1
 216.5 320 l 1,29,-1
 216.5 386 l 1,30,-1
 312.5 386 l 1,31,-1
 312.5 534 l 2,32,33
 312.5 594 312.5 594 337.5 636 c 128,-1,34
 362.5 678 362.5 678 408.5 700.5 c 128,-1,35
 454.5 723 454.5 723 515.5 723 c 0,0,1
EndSplineSet
EndChar

StartChar: uni009B
Encoding: 155 155 123
Width: 930
Flags: W
LayerCount: 2
Fore
SplineSet
414.5 -8 m 4,0,1
 359.5 -8 359.5 -8 315.5 4 c 132,-1,2
 271.5 16 271.5 16 237.5 33 c 5,3,-1
 268.5 103 l 5,4,5
 298.5 89 298.5 89 335 77 c 132,-1,6
 371.5 65 371.5 65 412.5 65 c 4,7,8
 469.5 65 469.5 65 499.5 94.5 c 132,-1,9
 529.5 124 529.5 124 529.5 190 c 6,10,-1
 529.5 329 l 5,11,-1
 325.5 329 l 5,12,-1
 325.5 395 l 5,13,-1
 529.5 395 l 5,14,-1
 529.5 499 l 6,15,16
 529.5 539 529.5 539 539 565.5 c 132,-1,17
 548.5 592 548.5 592 564 608 c 132,-1,18
 579.5 624 579.5 624 597.5 635 c 5,19,-1
 213.5 635 l 5,20,-1
 213.5 715 l 5,21,-1
 716.5 715 l 5,22,-1
 716.5 641 l 5,23,24
 687.5 634 687.5 634 665.5 617.5 c 132,-1,25
 643.5 601 643.5 601 630.5 572.5 c 132,-1,26
 617.5 544 617.5 544 617.5 500 c 6,27,-1
 617.5 395 l 5,28,-1
 713.5 395 l 5,29,-1
 713.5 329 l 5,30,-1
 617.5 329 l 5,31,-1
 617.5 181 l 6,32,33
 617.5 121 617.5 121 592.5 79 c 132,-1,34
 567.5 37 567.5 37 521.5 14.5 c 132,-1,35
 475.5 -8 475.5 -8 414.5 -8 c 4,0,1
EndSplineSet
EndChar

StartChar: uni009C
Encoding: 156 156 124
Width: 930
Flags: W
LayerCount: 2
Fore
SplineSet
716 -5 m 1,0,1
 696 -5 696 -5 677 2 c 128,-1,2
 658 9 658 9 644 26 c 1,3,-1
 644 291 l 5,4,5
 616 266 616 266 579 250.5 c 132,-1,6
 542 235 542 235 492 235 c 4,7,8
 450 235 450 235 401 258 c 132,-1,9
 352 281 352 281 310 318 c 132,-1,10
 268 355 268 355 240 401 c 132,-1,11
 212 447 212 447 212 493 c 4,12,13
 212 541 212 541 229.5 578 c 132,-1,14
 247 615 247 615 277 640.5 c 132,-1,15
 307 666 307 666 347.5 679 c 132,-1,16
 388 692 388 692 434 692 c 4,17,18
 468 692 468 692 498 684 c 4,19,20
 547 671 547 671 554 662.5 c 4,21,22
 589 622 589 622 602.5 631.5 c 4,23,24
 606 634 606 634 644 718 c 5,25,-1
 642 717 l 5,26,-1
 718 717 l 6,27,-1
 716 -5 l 1,0,1
435 292 m 4,28,29
 473 292 473 292 509 304.5 c 132,-1,30
 545 317 545 317 575 340 c 5,31,-1
 342 580 l 5,32,33
 315 556 315 556 300 521.5 c 132,-1,34
 285 487 285 487 285 442 c 4,35,36
 285 406 285 406 296.5 378 c 132,-1,37
 308 350 308 350 328 331 c 132,-1,38
 348 312 348 312 375.5 302 c 132,-1,39
 403 292 403 292 435 292 c 4,28,29
644 571 m 5,40,41
 609 598 609 598 571.5 613.5 c 132,-1,42
 534 629 534 629 485 629 c 4,43,44
 413 629 413 629 362 596 c 5,45,-1
 593 356 l 5,46,47
 609 371 609 371 622 389 c 132,-1,48
 635 407 635 407 644 427 c 5,49,-1
 644 571 l 5,40,41
EndSplineSet
EndChar

StartChar: uni009D
Encoding: 157 157 125
Width: 930
Flags: W
LayerCount: 2
Fore
SplineSet
917.5 714 m 1,0,-1
 727.5 0 l 1,1,-1
 636.5 0 l 1,2,-1
 497.5 468 l 2,3,4
 491.5 489 491.5 489 485.5 511 c 128,-1,5
 479.5 533 479.5 533 474.5 553 c 128,-1,6
 469.5 573 469.5 573 466 587.5 c 128,-1,7
 462.5 602 462.5 602 461.5 609 c 1,8,9
 460.5 602 460.5 602 458 587.5 c 128,-1,10
 455.5 573 455.5 573 450.5 553 c 128,-1,11
 445.5 533 445.5 533 440 510.5 c 128,-1,12
 434.5 488 434.5 488 427.5 465 c 2,13,-1
 292.5 0 l 1,14,-1
 201.5 0 l 1,15,-1
 12.5 714 l 1,16,-1
 106.5 714 l 1,17,-1
 217.5 278 l 2,18,19
 223.5 255 223.5 255 228.5 232.5 c 128,-1,20
 233.5 210 233.5 210 238 188.5 c 128,-1,21
 242.5 167 242.5 167 245.5 147 c 128,-1,22
 248.5 127 248.5 127 251.5 108 c 1,23,24
 254.5 128 254.5 128 258 149 c 128,-1,25
 261.5 170 261.5 170 266.5 192.5 c 128,-1,26
 271.5 215 271.5 215 277.5 238 c 128,-1,27
 283.5 261 283.5 261 289.5 283 c 2,28,-1
 415.5 714 l 1,29,-1
 508.5 714 l 1,30,-1
 639.5 280 l 2,31,32
 646.5 257 646.5 257 652.5 233.5 c 128,-1,33
 658.5 210 658.5 210 663.5 188 c 128,-1,34
 668.5 166 668.5 166 672 145.5 c 128,-1,35
 675.5 125 675.5 125 678.5 108 c 1,36,37
 681.5 133 681.5 133 686.5 160.5 c 128,-1,38
 691.5 188 691.5 188 698.5 218 c 128,-1,39
 705.5 248 705.5 248 713.5 279 c 2,40,-1
 823.5 714 l 1,41,-1
 917.5 714 l 1,0,-1
EndSplineSet
EndChar

StartChar: uni009E
Encoding: 158 158 126
Width: 930
Flags: W
LayerCount: 2
Fore
SplineSet
754 0 m 1,0,-1
 652 0 l 1,1,-1
 463 310 l 1,2,-1
 271 0 l 1,3,-1
 176 0 l 1,4,-1
 413 372 l 1,5,-1
 191 714 l 1,6,-1
 291 714 l 1,7,-1
 466 434 l 1,8,-1
 642 714 l 1,9,-1
 737 714 l 1,10,-1
 516 374 l 1,11,-1
 754 0 l 1,0,-1
EndSplineSet
EndChar

StartChar: uni009F
Encoding: 159 159 127
Width: 930
Flags: W
LayerCount: 2
Fore
SplineSet
355.5 0 m 1,0,-1
 265.5 0 l 1,1,-1
 265.5 714 l 1,2,-1
 664.5 714 l 1,3,-1
 664.5 635 l 1,4,-1
 355.5 635 l 1,5,-1
 355.5 382 l 1,6,-1
 645.5 382 l 1,7,-1
 645.5 303 l 1,8,-1
 355.5 303 l 1,9,-1
 355.5 0 l 1,0,-1
EndSplineSet
EndChar

